<?xml version="1.0" standalone="no"?><!DOCTYPE svg PUBLIC "-//W3C//DTD SVG 1.1//EN" "http://www.w3.org/Graphics/SVG/1.1/DTD/svg11.dtd"><svg t="1539763157819" class="icon" style="" viewBox="0 0 1024 1024" version="1.1" xmlns="http://www.w3.org/2000/svg" p-id="1060" xmlns:xlink="http://www.w3.org/1999/xlink" width="1024" height="1024"><defs><style type="text/css"></style></defs><path d="M604.718721 142.931326H988.598307v726.336783H604.718721z" fill="#FFFFFF" p-id="1061"></path><path d="M800.391345 612.304798a82.844779 82.844779 0 1 0-82.844779 82.844779 82.844779 82.844779 0 0 0 82.844779-82.844779z" fill="#73DDAD" p-id="1062"></path><path d="M1022.795861 153.888993A40.699906 40.699906 0 0 0 977.761054 108.372531c-124.146754-1.926623-248.654751 0-373.283161 0V0h-65.746002C359.074318 31.30762 179.537159 63.698965 0 95.488241v833.264346c177.490122 31.90969 355.100659 62.133584 532.349953 94.765757h72.248354v-118.607714h349.200376c19.988711-0.963311 42.024459 0.722484 59.002822-12.041392 13.486359-21.313264 9.994356-48.165569 11.198495-72.248354-1.685795-221.802446 0.842897-444.327375-1.204139-666.731891z m-34.197554 715.258702H604.718721V142.931326H988.598307z" fill="#17A561" p-id="1063"></path><path d="M290.558796 555.58984v-60.206961h150.276576V688.767639h-50.092192l-7.465664-45.034807a176.526811 176.526811 0 0 1-38.532455 35.522107A136.188147 136.188147 0 0 1 271.05174 698.400753a154.491063 154.491063 0 0 1-115.236124-46.479775c-33.354657-34.07714-50.092192-81.158984-50.092192-141.606773a200.970837 200.970837 0 0 1 42.144873-131.492004q47.5635-58.521167 133.659455-58.521166 75.138288 0 120.413923 41.783631a105.723424 105.723424 0 0 1 37.569143 78.87112h-75.258701a52.50047 52.50047 0 0 0-19.0254-34.317969 81.881468 81.881468 0 0 0-60.206962-24.082784 92.718721 92.718721 0 0 0-71.646284 29.983067c-21.072437 22.999059-31.548448 56.112888-31.548447 98.980244q0 67.552211 32.993414 98.498589a100.06397 100.06397 0 0 0 71.646284 25.046096 82.844779 82.844779 0 0 0 43.589841-12.041392 96.331138 96.331138 0 0 0 43.58984-67.070555z" fill="#FFFFFF" p-id="1064"></path><path d="M878.299153 641.565381a82.844779 82.844779 0 1 0-82.844779 82.844779 82.844779 82.844779 0 0 0 82.844779-82.844779z" fill="#98EAC1" p-id="1065"></path><path d="M956.206961 675.642521A82.844779 82.844779 0 1 0 873.362183 758.607714a82.724365 82.724365 0 0 0 82.844778-82.965193z" fill="#D2F9E5" p-id="1066"></path><path d="M764.507996 271.412982A51.657573 51.657573 0 0 1 782.690499 305.490122h-22.39699a31.066792 31.066792 0 0 0-12.041392-19.627469 42.867357 42.867357 0 0 0-24.805268-6.381938 37.328316 37.328316 0 0 0-30.223895 12.88429 55.269991 55.269991 0 0 0-12.041392 38.532455 55.751646 55.751646 0 0 0 10.837253 36.84666 45.757291 45.757291 0 0 0 36.124177 13.606774 68.395108 68.395108 0 0 0 18.42333-2.287865 58.521167 58.521167 0 0 0 14.44967-5.779868v-28.417686h-36.124176v-18.904986h58.159924v57.317027a78.991533 78.991533 0 0 1-24.082784 12.88429 111.74412 111.74412 0 0 1-32.873001 4.575729 63.458137 63.458137 0 0 1-50.33302-20.470367 72.248354 72.248354 0 0 1-16.617121-49.369708 74.054563 74.054563 0 0 1 16.617121-50.092192 59.123236 59.123236 0 0 1 48.165569-20.952022 66.107244 66.107244 0 0 1 40.579492 11.559736zM830.133584 262.502352v135.586077H807.977422V262.502352zM949.10254 262.502352v19.0254H879.021637v37.569144h66.227657v19.025399H879.021637v60.206962h-22.276576V262.502352z" fill="#17A561" p-id="1067"></path></svg>