<?xml version="1.0" standalone="no"?><!DOCTYPE svg PUBLIC "-//W3C//DTD SVG 1.1//EN" "http://www.w3.org/Graphics/SVG/1.1/DTD/svg11.dtd"><svg class="icon" width="200px" height="200.00px" viewBox="0 0 1024 1024" version="1.1" xmlns="http://www.w3.org/2000/svg"><path d="M512 89.7792c-133.2736 0-255.6928 61.5168-335.872 168.7808a38.4 38.4 0 1 0 61.5168 45.9776C303.1808 216.8576 403.1744 166.5792 512 166.5792c189.2608 0 343.1936 155.0336 343.1936 345.6s-153.9584 345.6-343.1936 345.6c-169.5488 0-312.064-122.1376-338.8416-290.4576a350.5408 350.5408 0 0 1-4.352-55.1424 38.4 38.4 0 1 0-76.8 0c0 22.528 1.7664 45.1584 5.2992 67.2256C130.048 785.2032 304.4608 934.5792 512 934.5792c231.6032 0 419.9936-189.4912 419.9936-422.4 0-232.9088-188.3904-422.4-419.9936-422.4z" fill="#006fff" /><path d="M512 652.288a38.4 38.4 0 0 0 38.4-38.4V281.5744a38.4 38.4 0 1 0-76.8 0V613.888a38.4 38.4 0 0 0 38.4 38.4zM473.6 768.5632a38.4 38.4 0 0 0 76.8 0v-41.9584a38.4 38.4 0 0 0-76.8 0v41.9584z" fill="#006fff" /></svg>