<?xml version="1.0" standalone="no"?><!DOCTYPE svg PUBLIC "-//W3C//DTD SVG 1.1//EN" "http://www.w3.org/Graphics/SVG/1.1/DTD/svg11.dtd"><svg class="icon" width="200px" height="200.00px" viewBox="0 0 1024 1024" version="1.1" xmlns="http://www.w3.org/2000/svg"><path d="M227.06087 244.869565C164.730435 311.652174 124.66087 400.695652 120.208696 498.643478h222.608695c0-102.4-44.521739-191.443478-115.756521-253.773913z" fill="#26bee4" /><path d="M373.982609 498.643478h120.208695V120.208696c-93.495652 4.452174-178.086957 44.521739-244.869565 102.4 75.686957 71.234783 124.66087 164.730435 124.66087 276.034782zM774.678261 222.608696c-66.782609-57.878261-151.373913-97.947826-249.321739-102.4v373.982608h120.208695c4.452174-106.852174 53.426087-200.347826 129.113044-271.582608z" fill="#26bee4" /><path d="M903.791304 498.643478c-4.452174-97.947826-44.521739-186.991304-106.852174-253.773913-71.234783 62.330435-115.756522 151.373913-115.756521 253.773913h222.608695zM650.017391 525.356522h-120.208695v373.982608c93.495652-4.452174 182.53913-40.069565 249.321739-102.4-80.13913-66.782609-129.113043-160.278261-129.113044-271.582608z" fill="#26bee4" /><path d="M796.93913 779.130435c62.330435-66.782609 102.4-155.826087 106.852174-253.773913h-222.608695c0 102.4 44.521739 191.443478 115.756521 253.773913zM120.208696 525.356522c4.452174 97.947826 44.521739 186.991304 106.852174 253.773913 71.234783-62.330435 115.756522-151.373913 115.756521-253.773913h-222.608695z" fill="#26bee4" /><path d="M249.321739 801.391304c66.782609 57.878261 151.373913 97.947826 249.321739 102.4v-373.982608H373.982609c0 106.852174-48.973913 200.347826-124.66087 271.582608z" fill="#26bee4" /></svg>