<?xml version="1.0" standalone="no"?><!DOCTYPE svg PUBLIC "-//W3C//DTD SVG 1.1//EN" "http://www.w3.org/Graphics/SVG/1.1/DTD/svg11.dtd"><svg class="icon" width="200px" height="200.00px" viewBox="0 0 1024 1024" version="1.1" xmlns="http://www.w3.org/2000/svg"><path d="M859.976 69.113H166.141c-13.788 0-25.352 11.119-25.352 25.352v839.273c0 13.788 11.119 25.352 25.352 25.352h693.835c13.789 0 25.352-11.119 25.352-25.352V94.465c0-14.233-11.564-25.352-25.352-25.352zM681.625 614.841h-59.154V464.51H548.64v150.331h-29.354V464.51h-73.387v150.331h-36.47V464.51H348.94v150.331h-26.686V464.51h-69.383v150.331h-61.378V391.124H835.07v223.717H726.101l18.681-8.895-67.16-141.436-54.706 25.797 58.709 124.534z m105.854-285.095l47.59-114.75v114.75h-47.59z m47.59-210.374v81.836l-51.148-20.903-59.599 144.549 12.008 4.893H631.812V173.189H557.98v156.557h-27.576V173.189h-73.831v156.557H425.44V173.189h-78.278v156.557h-34.248V173.189h-60.488v156.557h-61.377V119.372h644.02zM191.048 676.219h643.576v99.183l-48.479-21.794-64.046 142.77 26.241 12.009H618.023V759.391h-60.487v148.996h-38.25V759.391h-73.387v148.996h-40.918V759.391h-60.488v148.996h-35.581V759.391h-60.488v148.996h-57.375V676.219h-0.001z m591.984 232.168l51.593-115.194v115.194h-51.593z" fill="#8bc34a" /></svg>