<?xml version="1.0" standalone="no"?><!DOCTYPE svg PUBLIC "-//W3C//DTD SVG 1.1//EN" "http://www.w3.org/Graphics/SVG/1.1/DTD/svg11.dtd"><svg t="1529125003140" class="icon" style="" viewBox="0 0 1024 1024" version="1.1" xmlns="http://www.w3.org/2000/svg" p-id="2887" xmlns:xlink="http://www.w3.org/1999/xlink" width="200" height="200"><defs><style type="text/css"></style></defs><path d="M358.4 163.84h523.702857c42.422857 0 76.068571 33.645714 76.068572 76.068571V629.028571c0 42.422857-33.645714 76.068571-76.068572 76.068572H118.491429c-42.422857 0-76.068571-33.645714-76.068572-76.068572v-58.514285c0-67.291429-4.388571-73.142857 45.348572-118.491429l92.16-83.382857 80.457142-146.285714c23.405714-33.645714 52.662857-58.514286 98.011429-58.514286z" fill="#F8C213" p-id="2888"></path><path d="M882.102857 716.8H118.491429c-48.274286 0-86.308571-39.497143-86.308572-86.308571V555.885714c0-57.051429 1.462857-67.291429 49.737143-111.177143l90.697143-81.92 80.457143-144.822857c19.017143-27.794286 49.737143-62.902857 106.788571-62.902857h523.702857c48.274286 0 86.308571 39.497143 86.308572 86.308572v389.12c0 48.274286-39.497143 86.308571-87.771429 86.308571zM358.4 174.08c-36.571429 0-64.365714 16.091429-89.234286 54.125714l-80.457143 146.285715c0 1.462857-1.462857 1.462857-1.462857 2.925714l-92.16 83.382857c-42.422857 38.034286-42.422857 42.422857-42.422857 95.085714v76.068572c0 36.571429 29.257143 65.828571 65.828572 65.828571h765.074285c36.571429 0 65.828571-29.257143 65.828572-65.828571V239.908571c0-36.571429-29.257143-65.828571-65.828572-65.828571H358.4z" fill="#141515" p-id="2889"></path><path d="M159.451429 387.657143l20.48-19.017143 78.994285-144.822857h64.365715c8.777143 0 16.091429 7.314286 16.091428 16.091428v86.308572c0 33.645714-27.794286 61.44-61.44 61.44h-118.491428z" fill="#90CED9" p-id="2890"></path><path d="M279.405714 397.897143h-119.954285c-4.388571 0-8.777143-2.925714-10.24-7.314286-1.462857-4.388571 0-8.777143 2.925714-11.702857l19.017143-17.554286 78.994285-143.36c1.462857-2.925714 5.851429-5.851429 8.777143-5.851428h64.365715c14.628571 0 26.331429 11.702857 26.331428 26.331428v86.308572c0 40.96-32.182857 73.142857-70.217143 73.142857z m-93.622857-20.48H277.942857c27.794286 0 49.737143-21.942857 49.737143-49.737143v-86.308571c0-2.925714-2.925714-5.851429-5.851429-5.851429h-58.514285l-76.068572 138.971429c1.462857 0 0 1.462857-1.462857 2.925714z" fill="#141515" p-id="2891"></path><path d="M956.708571 225.28c1.462857 5.851429 1.462857 10.24 1.462858 16.091429v147.748571H441.782857c-33.645714 0-61.44-27.794286-61.44-61.44v-86.308571c0-8.777143 7.314286-16.091429 16.091429-16.091429h560.274285z" fill="#90CED9" p-id="2892"></path><path d="M959.634286 397.897143H441.782857c-39.497143 0-71.68-32.182857-71.68-71.68v-86.308572c0-14.628571 11.702857-26.331429 26.331429-26.331428h560.274285c4.388571 0 8.777143 2.925714 10.24 8.777143 1.462857 5.851429 1.462857 11.702857 1.462858 17.554285v147.748572c1.462857 5.851429-4.388571 10.24-8.777143 10.24zM397.897143 235.52c-2.925714 0-5.851429 2.925714-5.851429 5.851429v86.308571c0 27.794286 21.942857 49.737143 49.737143 49.737143h506.148572v-136.045714-5.851429H397.897143z" fill="#141515" p-id="2893"></path><path d="M959.634286 608.548571v21.942858c0 42.422857-33.645714 76.068571-76.068572 76.068571H118.491429c-42.422857 0-76.068571-33.645714-76.068572-76.068571v-21.942858h917.211429z" fill="#6E7377" p-id="2894"></path><path d="M882.102857 716.8H118.491429c-48.274286 0-86.308571-39.497143-86.308572-86.308571v-21.942858c0-5.851429 4.388571-10.24 10.24-10.24h917.211429c5.851429 0 10.24 4.388571 10.24 10.24v21.942858c0 48.274286-39.497143 86.308571-87.771429 86.308571zM51.2 618.788571v11.702858c0 36.571429 29.257143 65.828571 65.828571 65.828571h765.074286c36.571429 0 65.828571-29.257143 65.828572-65.828571v-11.702858H51.2z" fill="#141515" p-id="2895"></path><path d="M217.965714 860.16c64.365714 0 118.491429-52.662857 118.491429-118.491429 0-64.365714-52.662857-118.491429-118.491429-118.491428-64.365714 0-118.491429 52.662857-118.491428 118.491428s54.125714 118.491429 118.491428 118.491429z" fill="#A1A69C" p-id="2896"></path><path d="M217.965714 870.4c-70.217143 0-128.731429-57.051429-128.731428-128.731429 0-70.217143 57.051429-128.731429 128.731428-128.731428s128.731429 57.051429 128.731429 128.731428c0 70.217143-58.514286 128.731429-128.731429 128.731429z m0-235.52c-58.514286 0-106.788571 48.274286-106.788571 106.788571 0 59.977143 48.274286 106.788571 106.788571 106.788572 59.977143 0 106.788571-48.274286 106.788572-106.788572s-46.811429-106.788571-106.788572-106.788571z" fill="#141515" p-id="2897"></path><path d="M217.965714 741.668571m-55.588571 0a55.588571 55.588571 0 1 0 111.177143 0 55.588571 55.588571 0 1 0-111.177143 0Z" fill="#DAD9B4" p-id="2898"></path><path d="M217.965714 807.497143c-36.571429 0-65.828571-29.257143-65.828571-65.828572s29.257143-65.828571 65.828571-65.828571 65.828571 29.257143 65.828572 65.828571-29.257143 65.828571-65.828572 65.828572z m0-111.177143c-24.868571 0-45.348571 20.48-45.348571 45.348571 0 24.868571 20.48 45.348571 45.348571 45.348572 24.868571 0 45.348571-20.48 45.348572-45.348572 0-24.868571-20.48-45.348571-45.348572-45.348571z" fill="#141515" p-id="2899"></path><path d="M784.091429 860.16c64.365714 0 118.491429-52.662857 118.491428-118.491429 0-64.365714-52.662857-118.491429-118.491428-118.491428-64.365714 0-118.491429 52.662857-118.491429 118.491428s54.125714 118.491429 118.491429 118.491429z" fill="#A1A69C" p-id="2900"></path><path d="M784.091429 870.4c-70.217143 0-128.731429-57.051429-128.731429-128.731429 0-70.217143 57.051429-128.731429 128.731429-128.731428s128.731429 57.051429 128.731428 128.731428c0 70.217143-58.514286 128.731429-128.731428 128.731429z m0-235.52c-59.977143 0-106.788571 48.274286-106.788572 106.788571 0 59.977143 48.274286 106.788571 106.788572 106.788572s106.788571-48.274286 106.788571-106.788572-48.274286-106.788571-106.788571-106.788571z" fill="#141515" p-id="2901"></path><path d="M784.091429 741.668571m-55.588572 0a55.588571 55.588571 0 1 0 111.177143 0 55.588571 55.588571 0 1 0-111.177143 0Z" fill="#DAD9B4" p-id="2902"></path><path d="M784.091429 807.497143c-36.571429 0-65.828571-29.257143-65.828572-65.828572s29.257143-65.828571 65.828572-65.828571 65.828571 29.257143 65.828571 65.828571-29.257143 65.828571-65.828571 65.828572z m0-111.177143c-24.868571 0-45.348571 20.48-45.348572 45.348571 0 24.868571 20.48 45.348571 45.348572 45.348572s45.348571-20.48 45.348571-45.348572c0-24.868571-20.48-45.348571-45.348571-45.348571z" fill="#141515" p-id="2903"></path><path d="M370.102857 706.56h257.462857v59.977143H370.102857z" fill="#7E8495" p-id="2904"></path><path d="M627.565714 776.777143H370.102857c-5.851429 0-10.24-4.388571-10.24-10.24v-59.977143c0-5.851429 4.388571-10.24 10.24-10.24h257.462857c5.851429 0 10.24 4.388571 10.24 10.24v59.977143c0 5.851429-4.388571 10.24-10.24 10.24zM380.342857 756.297143h236.982857V716.8H380.342857v39.497143z" fill="#141515" p-id="2905"></path><path d="M498.834286 763.611429c-5.851429 0-10.24-4.388571-10.24-10.24V716.8c0-5.851429 4.388571-10.24 10.24-10.24 5.851429 0 10.24 4.388571 10.24 10.24v35.108571c0 5.851429-4.388571 11.702857-10.24 11.702858z" fill="#141515" p-id="2906"></path><path d="M355.474286 586.605714c-5.851429 0-10.24-4.388571-10.24-10.24V399.36c0-5.851429 4.388571-10.24 10.24-10.24 5.851429 0 10.24 4.388571 10.24 10.24v177.005714c0 5.851429-4.388571 10.24-10.24 10.24z" fill="#141515" p-id="2907"></path><path d="M528.091429 586.605714c-5.851429 0-10.24-4.388571-10.24-10.24v-143.36c0-5.851429 4.388571-10.24 10.24-10.24 5.851429 0 10.24 4.388571 10.24 10.24v143.36c0 5.851429-4.388571 10.24-10.24 10.24z" fill="#141515" p-id="2908"></path><path d="M735.817143 586.605714c-5.851429 0-10.24-4.388571-10.24-10.24v-143.36c0-5.851429 4.388571-10.24 10.24-10.24 5.851429 0 10.24 4.388571 10.24 10.24v143.36c0 5.851429-4.388571 10.24-10.24 10.24z" fill="#141515" p-id="2909"></path><path d="M501.76 231.131429h46.811429v156.525714h-46.811429z" fill="#FCDD10" p-id="2910"></path><path d="M548.571429 397.897143h-46.811429c-5.851429 0-10.24-4.388571-10.24-10.24V231.131429c0-5.851429 4.388571-10.24 10.24-10.24h46.811429c5.851429 0 10.24 4.388571 10.24 10.24v156.525714c0 5.851429-4.388571 10.24-10.24 10.24zM512 377.417143h26.331429v-136.045714H512v136.045714z" fill="#141515" p-id="2911"></path><path d="M709.485714 231.131429h46.811429v156.525714h-46.811429z" fill="#FCDD10" p-id="2912"></path><path d="M756.297143 397.897143h-46.811429c-5.851429 0-10.24-4.388571-10.24-10.24V231.131429c0-5.851429 4.388571-10.24 10.24-10.24h46.811429c5.851429 0 10.24 4.388571 10.24 10.24v156.525714c0 5.851429-4.388571 10.24-10.24 10.24z m-36.571429-20.48H746.057143v-136.045714h-26.331429v136.045714z" fill="#141515" p-id="2913"></path><path d="M914.285714 564.662857h64.365715c10.24 0 19.017143 8.777143 19.017142 19.017143v10.24c0 10.24-8.777143 19.017143-19.017142 19.017143h-64.365715c-10.24 0-19.017143-8.777143-19.017143-19.017143v-10.24c0-10.24 7.314286-19.017143 19.017143-19.017143z" fill="#EC748B" p-id="2914"></path><path d="M978.651429 623.177143h-64.365715c-16.091429 0-29.257143-13.165714-29.257143-29.257143v-10.24c0-16.091429 13.165714-29.257143 29.257143-29.257143h64.365715c16.091429 0 29.257143 13.165714 29.257142 29.257143v10.24c0 16.091429-13.165714 29.257143-29.257142 29.257143z m-64.365715-48.274286c-4.388571 0-8.777143 4.388571-8.777143 8.777143v10.24c0 4.388571 4.388571 8.777143 8.777143 8.777143h64.365715c4.388571 0 8.777143-4.388571 8.777142-8.777143v-10.24c0-4.388571-4.388571-8.777143-8.777142-8.777143h-64.365715z" fill="#141515" p-id="2915"></path><path d="M93.622857 702.171429c-30.72-10.24-51.2-39.497143-51.2-71.68V570.514286v-14.628572c42.422857 7.314286 74.605714 43.885714 74.605714 87.771429-1.462857 21.942857-10.24 43.885714-23.405714 58.514286z" fill="#7E8495" p-id="2916"></path><path d="M93.622857 712.411429h-2.925714c-35.108571-11.702857-58.514286-45.348571-58.514286-81.92V555.885714c0-2.925714 1.462857-5.851429 4.388572-7.314285 2.925714-1.462857 5.851429-2.925714 8.777142-2.925715 48.274286 8.777143 83.382857 49.737143 83.382858 98.011429 0 24.868571-8.777143 48.274286-24.868572 65.828571-4.388571 2.925714-7.314286 2.925714-10.24 2.925715z m-42.422857-143.36v61.44c0 26.331429 14.628571 49.737143 38.034286 59.977142 10.24-13.165714 14.628571-29.257143 14.628571-46.811428 1.462857-35.108571-20.48-64.365714-52.662857-74.605714z" fill="#141515" p-id="2917"></path><path d="M26.331429 605.622857v-29.257143-43.885714h68.754285c27.794286 0 57.051429 16.091429 65.828572 36.571429l8.777143 20.48c4.388571 8.777143-2.925714 16.091429-14.628572 16.091428H26.331429z" fill="#FFEC5E" p-id="2918"></path><path d="M156.525714 615.862857H26.331429c-5.851429 0-10.24-4.388571-10.24-10.24v-45.348571-27.794286c0-5.851429 4.388571-10.24 10.24-10.24h68.754285c32.182857 0 64.365714 19.017143 76.068572 42.422857l8.777143 20.48c2.925714 7.314286 2.925714 14.628571-1.462858 20.48-2.925714 5.851429-11.702857 10.24-21.942857 10.24z m-119.954285-20.48h119.954285c2.925714 0 4.388571-1.462857 5.851429-1.462857l-10.24-20.48C144.822857 555.885714 118.491429 541.257143 95.085714 541.257143h-58.514285v54.125714z" fill="#141515" p-id="2919"></path><path d="M248.685714 324.754286c-5.851429 0-10.24-4.388571-10.24-10.24v-30.72c0-35.108571-29.257143-64.365714-64.365714-64.365715h-73.142857c-5.851429 0-10.24-4.388571-10.24-10.24 0-5.851429 4.388571-10.24 10.24-10.24H175.542857c46.811429 0 84.845714 38.034286 84.845714 84.845715v30.72c0 4.388571-5.851429 10.24-11.702857 10.24z" fill="#141515" p-id="2920"></path><path d="M124.342857 182.857143h49.737143c13.165714 0 23.405714 10.24 23.405714 23.405714v7.314286c0 13.165714-10.24 23.405714-23.405714 23.405714H124.342857c-13.165714 0-23.405714-10.24-23.405714-23.405714v-7.314286c0-13.165714 10.24-23.405714 23.405714-23.405714z" fill="#6E7377" p-id="2921"></path><path d="M174.08 248.685714H124.342857c-19.017143 0-33.645714-14.628571-33.645714-33.645714v-7.314286c0-19.017143 14.628571-33.645714 33.645714-33.645714h49.737143c19.017143 0 33.645714 14.628571 33.645714 33.645714v7.314286c0 17.554286-14.628571 33.645714-33.645714 33.645714z m-49.737143-55.588571c-7.314286 0-13.165714 5.851429-13.165714 13.165714v7.314286c0 7.314286 5.851429 13.165714 13.165714 13.165714h49.737143c7.314286 0 13.165714-5.851429 13.165714-13.165714v-7.314286c0-7.314286-5.851429-13.165714-13.165714-13.165714H124.342857z" fill="#141515" p-id="2922"></path></svg>