<?xml version="1.0" standalone="no"?><!DOCTYPE svg PUBLIC "-//W3C//DTD SVG 1.1//EN" "http://www.w3.org/Graphics/SVG/1.1/DTD/svg11.dtd"><svg class="icon" width="200px" height="200.00px" viewBox="0 0 1024 1024" version="1.1" xmlns="http://www.w3.org/2000/svg"><path d="M790 928.8H240.1C162.9 928.8 100 866 100 788.7v-275c0-13.8 11.2-25 25-25s25 11.2 25 25v274.9c0 49.7 40.4 90.1 90.1 90.1H790c49.7 0 90.1-40.4 90.1-90.1V238.8c0-49.7-40.4-90.1-90.1-90.1H240.1c-49.7 0-90.1 40.4-90.1 90.1v123.1c0 13.8-11.2 25-25 25s-25-11.2-25-25V238.8c0-77.2 62.8-140.1 140.1-140.1H790c77.2 0 140.1 62.8 140.1 140.1v549.9c0 77.2-62.9 140.1-140.1 140.1z" fill="#4a90e2" /><path d="M443.9 372.5H269.7c-13.8 0-25-11.2-25-25s11.2-25 25-25h174.2c13.8 0 25 11.2 25 25s-11.2 25-25 25zM764.4 372.5H590.2c-13.8 0-25-11.2-25-25s11.2-25 25-25h174.2c13.8 0 25 11.2 25 25s-11.2 25-25 25zM764.4 631.4H590.2c-13.8 0-25-11.2-25-25s11.2-25 25-25h174.2c13.8 0 25 11.2 25 25s-11.2 25-25 25zM764.4 742.2H590.2c-13.8 0-25-11.2-25-25s11.2-25 25-25h174.2c13.8 0 25 11.2 25 25s-11.2 25-25 25z" fill="#4a90e2" /><path d="M356.8 459.6c-13.8 0-25-11.2-25-25V260.4c0-13.8 11.2-25 25-25s25 11.2 25 25v174.2c0 13.8-11.2 25-25 25zM418.4 742.6c-6.4 0-12.8-2.4-17.7-7.3L277.5 612.1c-9.8-9.8-9.8-25.6 0-35.4 9.8-9.8 25.6-9.8 35.4 0l123.2 123.2c9.8 9.8 9.8 25.6 0 35.4-4.9 4.9-11.3 7.3-17.7 7.3z" fill="#4a90e2" /><path d="M295.2 742.6c-6.4 0-12.8-2.4-17.7-7.3-9.8-9.8-9.8-25.6 0-35.4l123.2-123.2c9.8-9.8 25.6-9.8 35.4 0 9.8 9.8 9.8 25.6 0 35.4L312.9 735.3c-4.9 4.9-11.3 7.3-17.7 7.3z" fill="#4a90e2" /></svg>