<?xml version="1.0" standalone="no"?><!DOCTYPE svg PUBLIC "-//W3C//DTD SVG 1.1//EN" "http://www.w3.org/Graphics/SVG/1.1/DTD/svg11.dtd"><svg class="icon" width="200px" height="200.00px" viewBox="0 0 1024 1024" version="1.1" xmlns="http://www.w3.org/2000/svg"><path d="M331.21872 640c-20.8 9.6-52.8 17.6-84.8 17.6h-1.6c-94.4 0-150.4-59.2-150.4-158.4 0-51.2 14.4-92.8 41.6-121.6 27.2-27.2 65.6-43.2 112-43.2 40 0 68.8 9.6 81.6 16l17.6 8 22.4-80-12.8-6.4c-12.8-6.4-48-20.8-112-20.8C99.21872 254.4-1.58128 356.8 0.01872 502.4c0 73.6 24 134.4 68.8 176 41.6 40 99.2 60.8 164.8 60.8h1.6c57.6 0 100.8-12.8 123.2-24l12.8-6.4-20.8-78.4-19.2 9.6zM494.41872 649.6v-124.8l169.6-1.6v-80l-171.2 1.6v-105.6H672.01872V256l-270.4 3.2 3.2 472 280-1.6v-81.6zM1024.01872 336v-81.6l-326.4 1.6v83.2l118.4-1.6 1.6 390.4h92.8l-3.2-390.4z" fill="#31c37c" /></svg>