<?xml version="1.0" standalone="no"?><!DOCTYPE svg PUBLIC "-//W3C//DTD SVG 1.1//EN" "http://www.w3.org/Graphics/SVG/1.1/DTD/svg11.dtd"><svg t="1529125075168" class="icon" style="" viewBox="0 0 1024 1024" version="1.1" xmlns="http://www.w3.org/2000/svg" p-id="6127" xmlns:xlink="http://www.w3.org/1999/xlink" width="200" height="200"><defs><style type="text/css"></style></defs><path d="M220.16 616.5504L125.8496 522.24a25.6 25.6 0 0 1 0-36.1984L220.16 392.0896a25.6 25.6 0 0 1 36.1984 0L350.3104 486.4a25.6 25.6 0 0 1 0 36.1984L256 616.5504a25.6 25.6 0 0 1-35.84 0z" fill="#4FDAD7" p-id="6128"></path><path d="M689.8688 384.4096a56.32 56.32 0 0 0 39.9872 16.0768H957.44a56.32 56.32 0 0 0 56.832-55.7568V121.856A56.32 56.32 0 0 0 957.44 66.0992h-227.4304a56.32 56.32 0 0 0-56.832 55.7568v55.7056H502.7328a56.32 56.32 0 0 0-56.832 55.7568v222.9248l-167.0656-163.84a46.08 46.08 0 0 0-63.9488 0L23.0912 480.6144a43.776 43.776 0 0 0 0 62.72L215.04 731.4432a46.08 46.08 0 0 0 63.9488 0l166.8608-163.84v222.976a56.32 56.32 0 0 0 56.832 55.7568h170.4448v55.808a56.32 56.32 0 0 0 56.832 55.7568H957.44a56.32 56.32 0 0 0 56.832-55.7568v-222.9248a56.32 56.32 0 0 0-57.0368-55.7568h-227.3792a56.32 56.32 0 0 0-56.832 55.7568v55.7568h-113.664V289.0752h113.664v55.7056a56.32 56.32 0 0 0 16.8448 39.6288zM350.3104 522.24L256 616.5504a25.6 25.6 0 0 1-36.1984 0L125.8496 522.24a25.6 25.6 0 0 1 0-36.1984L220.16 392.0896a25.6 25.6 0 0 1 36.1984 0L350.3104 486.4a25.6 25.6 0 0 1 0 35.84z" fill="#FD6D74" p-id="6129"></path></svg>