<?xml version="1.0" standalone="no"?><!DOCTYPE svg PUBLIC "-//W3C//DTD SVG 1.1//EN" "http://www.w3.org/Graphics/SVG/1.1/DTD/svg11.dtd"><svg class="icon" width="200px" height="200.00px" viewBox="0 0 1024 1024" version="1.1" xmlns="http://www.w3.org/2000/svg"><path d="M940.8 166.4v179.2h32c19.2 0 38.4 19.2 38.4 38.4s-19.2 38.4-38.4 38.4h-96c32 51.2 32 121.6 0 179.2h96c19.2 0 38.4 19.2 38.4 38.4s-19.2 38.4-38.4 38.4h-32v179.2h32c19.2 0 38.4 19.2 38.4 38.4s-19.2 38.4-38.4 38.4H281.6c-128 0-198.4-153.6-134.4-256H51.2c-19.2 0-38.4-19.2-38.4-38.4s19.2-38.4 38.4-38.4h32V422.4H51.2C32 422.4 12.8 403.2 12.8 384s19.2-38.4 38.4-38.4h96c-64-102.4 6.4-256 134.4-256h691.2c19.2 0 38.4 19.2 38.4 38.4s-19.2 38.4-38.4 38.4h-32z m-198.4 256H128v179.2h614.4c19.2 0 44.8-12.8 57.6-25.6 32-38.4 32-96 0-128-19.2-12.8-38.4-25.6-57.6-25.6z m153.6 256H281.6c-19.2 0-44.8 12.8-57.6 25.6-51.2 51.2-19.2 153.6 57.6 153.6H896v-179.2z m0-332.8V166.4H281.6c-76.8 0-102.4 102.4-57.6 153.6 12.8 12.8 32 25.6 57.6 25.6H896z" fill="#1296db" /></svg>