<?xml version="1.0" standalone="no"?><!DOCTYPE svg PUBLIC "-//W3C//DTD SVG 1.1//EN" "http://www.w3.org/Graphics/SVG/1.1/DTD/svg11.dtd"><svg t="1538276092440" class="icon" style="" viewBox="0 0 1024 1024" version="1.1" xmlns="http://www.w3.org/2000/svg" p-id="5751" xmlns:xlink="http://www.w3.org/1999/xlink" width="500" height="500"><defs><style type="text/css"></style></defs><path d="M846.305949 406.634254c-2.607384-5.287423-10.844999-17.748223-31.137161-19.300578-0.635473-0.044002-1.254573-0.063445-1.890047-0.063445L604.28687 385.93277l53.772694-267.273253c0.161682-0.732687 0.274246-1.499144 0.356111-2.235924 1.890047-16.737196-1.483794-29.999245-10.033517-39.438221-7.148817-7.92346-17.323551-12.269441-28.65769-12.269441-12.978593 0-24.26259 5.732561-27.40721 7.489578-2.817162 1.567705-5.311982 3.628644-7.377014 6.074346L182.845375 554.060955c-0.615007 0.735757-1.201361 1.503237-1.737574 2.318812-6.191003 9.169847-10.214642 23.769356-2.950192 37.202297 3.711532 6.869455 13.290701 18.373463 35.698037 18.373463 1.073448 0 2.177596-0.033769 3.368724-0.078795l185.02297-0.130983L298.937416 910.881686c-0.599657 1.709945-1.010003 3.487428-1.235131 5.288446-0.537236 4.233418-1.450025 18.944468 9.247618 30.927383 7.021927 7.845689 17.114796 12.187577 28.467355 12.187577 6.952342 0 14.310937-1.577938 22.490224-4.804423 3.647063-1.455141 6.933923-3.676739 9.623171-6.517437l471.739041-499.18923c0.9967-1.055029 1.90335-2.187829 2.719948-3.403516C845.147566 440.673511 854.835206 423.998737 846.305949 406.634254z" fill="#f4ea2a" p-id="5752"></path></svg>