<?xml version="1.0" standalone="no"?><!DOCTYPE svg PUBLIC "-//W3C//DTD SVG 1.1//EN" "http://www.w3.org/Graphics/SVG/1.1/DTD/svg11.dtd"><svg class="icon" width="200px" height="200.00px" viewBox="0 0 1024 1024" version="1.1" xmlns="http://www.w3.org/2000/svg"><path d="M0 0h1024v1024H0z" fill="#ffffff" /><path d="M971.487179 728.615385V512c0-43.323077-35.446154-78.769231-78.76923-78.769231H682.666667c-43.323077 0-78.769231 35.446154-78.769231 78.769231v216.615385V656.410256h78.769231v-105.025641c0-22.317949 17.066667-39.384615 39.384615-39.384615h131.282051c22.317949 0 39.384615 17.066667 39.384616 39.384615v105.025641h78.76923v72.205129zM131.282051 393.846154V223.179487h275.692308c22.317949 0 39.384615-17.066667 39.384615-39.384615s-17.066667-39.384615-39.384615-39.384616H91.897436c-10.502564 0-21.005128 3.938462-27.569231 11.815385-7.876923 6.564103-11.815385 17.066667-11.815384 27.569231v210.051282h78.76923z m0 236.307692v170.666667h275.692308c22.317949 0 39.384615 17.066667 39.384615 39.384615s-17.066667 39.384615-39.384615 39.384616H91.897436c-10.502564 0-21.005128-3.938462-27.569231-11.815385-7.876923-6.564103-11.815385-17.066667-11.815384-27.569231V630.153846h78.76923z" fill="#3b88e7" /><path d="M643.282051 590.769231c22.317949 0 39.384615 17.066667 39.384616 39.384615v210.051282c0 22.317949-17.066667 39.384615-39.384616 39.384616s-39.384615-17.066667-39.384615-39.384616V630.153846c0-22.317949 17.066667-39.384615 39.384615-39.384615zM932.102564 590.769231c22.317949 0 39.384615 17.066667 39.384615 39.384615v210.051282c0 22.317949-17.066667 39.384615-39.384615 39.384616s-39.384615-17.066667-39.384615-39.384616V630.153846c0-22.317949 17.066667-39.384615 39.384615-39.384615z" fill="#3b88e7" /><path d="M39.384615 472.615385h354.461539c22.317949 0 39.384615 17.066667 39.384615 39.384615s-17.066667 39.384615-39.384615 39.384615H39.384615c-22.317949 0-39.384615-17.066667-39.384615-39.384615s17.066667-39.384615 39.384615-39.384615z" fill="#ff661a" /></svg>