<?xml version="1.0" standalone="no"?><!DOCTYPE svg PUBLIC "-//W3C//DTD SVG 1.1//EN" "http://www.w3.org/Graphics/SVG/1.1/DTD/svg11.dtd"><svg t="1529124948721" class="icon" style="" viewBox="0 0 1024 1024" version="1.1" xmlns="http://www.w3.org/2000/svg" p-id="566" xmlns:xlink="http://www.w3.org/1999/xlink" width="200" height="200"><defs><style type="text/css"></style></defs><path d="M778.522 234.945v27.103c-30.171-6.724-55.694-24.252-84.183-44.065-45.552-31.679-97.182-67.589-182.055-67.589-84.765 0-136.22 35.841-181.611 67.466-28.58 19.906-54.18 37.508-84.628 44.218v-27.134H64.212v610.068h181.833v-29.433h532.477v29.433h181.833V234.945H778.522zM316.715 784.184h-70.67V294.033c26.399-4.541 49.019-15.456 70.67-29.023v519.174z m93.864 0h-78.166v-529.41c5.39-3.656 10.778-7.379 16.203-11.16 19.467-13.559 39.391-27.172 61.963-38.263v578.833z m78.158 0h-62.461V198.349c18.454-7.504 38.857-13.076 62.461-15.318v601.153z m109.554 0H535.83V183.031c23.585 2.236 43.992 7.795 62.461 15.28v585.873z m93.863 0h-78.166V205.286c22.746 11.135 42.818 24.832 62.43 38.474a1642.644 1642.644 0 0 0 15.736 10.832v529.592z m86.368 0h-70.67V264.838c21.697 13.618 44.324 24.593 70.67 29.169v490.177z" p-id="567" fill="#8a8a8a"></path></svg>