<?xml version="1.0" standalone="no"?><!DOCTYPE svg PUBLIC "-//W3C//DTD SVG 1.1//EN" "http://www.w3.org/Graphics/SVG/1.1/DTD/svg11.dtd"><svg t="1534055289287" class="icon" style="" viewBox="0 0 1024 1024" version="1.1" xmlns="http://www.w3.org/2000/svg" p-id="10518" xmlns:xlink="http://www.w3.org/1999/xlink" width="500" height="500"><defs><style type="text/css"></style></defs><path d="M746.66666656 158l51.33333375 13.99999969c13.99999969 4.00000031 22.66666688 18.66666656 18.66666656 32.66666719l-65.33333343 244.66666687-103.33333313-27.33333375 65.33333344-244.66666688c4.66666687-14.66666625 19.33333312-23.33333344 33.33333281-19.33333312z" fill="#5CBAEA" p-id="10519"></path><path d="M497.33333375 156.66666687L175.33333344 242.66666656c-7.33333313 1.99999969-11.33333344 9.33333375-9.33333375 16.00000032L245.33333375 555.33333313l348-93.33333282-80.00000062-296.00000062c-1.99999969-7.33333313-9.33333375-11.33333344-15.99999938-9.33333282z" fill="#FFC10D" p-id="10520"></path><path d="M715.37333375 481.01333375l-51.52000031-13.8 34.50666656-128.78666719 51.52000031 13.8z" fill="#FFFFFF" p-id="10521"></path><path d="M297.99999969 340.66666625l142.00000031-37.99999969c13.99999969-4.00000031 22.66666688-18.66666656 18.66666656-32.66666625-4.00000031-13.99999969-18.66666656-22.66666688-32.66666625-18.66666656l-142.00000031 37.99999969c-13.99999969 4.00000031-22.66666688 18.66666656-18.66666656 32.66666625 4.00000031 13.99999969 18.66666656 22.66666688 32.66666625 18.66666656zM321.33333312 428l142.00000032-37.99999969c13.99999969-4.00000031 22.66666688-18.66666656 18.66666656-32.66666719-4.00000031-13.99999969-18.66666656-22.66666688-32.66666625-18.66666656l-142.00000031 37.99999969c-13.99999969 4.00000031-22.66666688 18.66666656-18.66666656 32.66666719 4.00000031 13.99999969 18.66666656 22.66666688 32.66666625 18.66666656z" fill="#194F82" p-id="10522"></path><path d="M489.99999969 130.66666625l-321.99999938 86.66666719c-21.33333375 6-34.00000031 28.00000031-28.00000031 48.66666656l85.99999969 322.00000031 399.33333375-106.66666687-85.99999969-322.00000032c-6-21.33333375-28.00000031-34.00000031-49.33333406-28.66666687z m70.00000031 312.6666675L264.00000031 522.66666687 195.33333312 265.33333344l296.00000063-79.33333313 68.66666625 257.33333344z" fill="#194F82" p-id="10523"></path><path d="M894.00000031 225.33333312l-51.33333375-13.99999968c7.33333313-28.66666687-9.33333375-58.00000031-37.99999969-65.33333344l-51.33333375-13.99999969c-28.66666687-7.33333313-58.00000031 9.33333375-65.33333343 37.99999969l-27.33333282 103.33333312-44.66666718 167.33333344L605.33333375 478.66666625l154.66666594 41.33333344 10.66666687-38.66666625 44.66666719-167.33333344 13.99999969-51.33333375 25.99999968 6.6666675-20.66666625 77.3333325c-4.00000031 13.99999969 4.66666687 28.66666687 18.66666657 32.66666719 13.99999969 4.00000031 28.66666687-4.66666687 32.66666625-18.66666656l27.33333375-103.33333313c3.33333375-13.99999969-4.66666687-28.66666687-19.33333313-32.00000062zM681.33333312 402.66666688l17.33333344-64.66666688 51.33333375 13.99999969-17.33333343 64.66666687-51.33333375-13.99999968z m30.66666657-116.00000063l27.33333375-103.33333312 51.33333281 14.00000062-27.33333281 103.33333313-51.33333375-14.00000063z" fill="#194F82" p-id="10524"></path><path d="M891.99999969 505.33333344H145.33333344c-7.33333313 0-13.33333313-6-13.33333313-13.33333313v-26.66666719c0-7.33333313 6-13.33333313 13.33333313-13.33333312h746.66666625c7.33333313 0 13.33333313 6 13.33333406 13.33333312v26.66666719c0 7.33333313-6 13.33333313-13.33333406 13.33333313zM831.99999969 538.66666625H192.00000031c-7.33333313 0-13.33333313 6-13.33333406 13.33333406v240c0 29.33333344 24 53.33333344 53.33333344 53.33333344h560.00000062c29.33333344 0 53.33333344-24 53.33333344-53.33333344V552.00000031c0-7.33333313-6-13.33333313-13.33333406-13.33333406z" fill="#FFFFFF" p-id="10525"></path><path d="M845.33333375 752H645.33333312c-7.33333313 0-13.33333313-6-13.33333312-13.33333313V658.66666625c0-7.33333313 6-13.33333313 13.33333313-13.33333313h200.00000062v106.66666688z" fill="#5CBAEA" p-id="10526"></path><path d="M891.99999969 398.66666656H132.00000031c-22.00000031 0-40.00000031 18-40.00000031 40.00000032v79.99999968c0 22.00000031 18 40.00000031 40.00000031 40.00000032h19.99999969v253.33333312c0 43.99999969 36 79.99999969 79.99999969 79.99999969h560.00000062c43.99999969 0 79.99999969-36 79.99999969-79.99999969V558.66666687h19.99999969c22.00000031 0 40.00000031-18 40.00000031-40.00000031V438.66666688c0-22.00000031-18-40.00000031-40.00000031-40.00000032z m-73.33333313 326.66666719H658.66666625v-53.33333344h160.00000031v53.33333344z m0-106.66666688H645.33333312c-22.00000031 0-40.00000031 18-39.99999937 39.99999938v80.00000062c0 22.00000031 18 40.00000031 39.99999938 39.99999938h173.33333343v33.33333375c0 14.66666625-12 26.66666625-26.66666625 26.66666625H231.99999969c-14.66666625 0-26.66666625-12-26.66666625-26.66666625V558.66666687h613.33333312v60z m60-113.33333343H145.33333344v-53.33333344h733.33333312v53.33333344z" fill="#194F82" p-id="10527"></path></svg>