<?xml version="1.0" standalone="no"?><!DOCTYPE svg PUBLIC "-//W3C//DTD SVG 1.1//EN" "http://www.w3.org/Graphics/SVG/1.1/DTD/svg11.dtd"><svg class="icon" width="200px" height="200.00px" viewBox="0 0 1024 1024" version="1.1" xmlns="http://www.w3.org/2000/svg"><path d="M286.72 817.152h-14.336C223.232 817.152 184.32 778.24 184.32 729.088V436.224c0-49.152 38.912-88.064 88.064-88.064h14.336c49.152 0 88.064 38.912 88.064 88.064v294.912c0 47.104-40.96 86.016-88.064 86.016z" fill="#75cec5" /><path d="M806.912 135.168H448.512c-57.344 0-102.4 45.056-102.4 102.4v88.064h-96.256c-57.344 0-102.4 45.056-102.4 102.4v321.536c0 57.344 45.056 102.4 102.4 102.4h557.056c57.344 0 102.4-45.056 102.4-102.4v-512c0-55.296-47.104-102.4-102.4-102.4z m-460.8 593.92c0 38.912-32.768 71.68-71.68 71.68h-4.096c-38.912 0-71.68-32.768-71.68-71.68v-286.72c2.048-34.816 30.72-63.488 63.488-65.536h83.968V729.088z m512 0c0 38.912-32.768 71.68-71.68 71.68H382.976c8.192-14.336 14.336-32.768 14.336-51.2v-491.52c0-38.912 32.768-71.68 71.68-71.68h317.44c38.912 0 71.68 32.768 71.68 71.68v471.04z m-77.824-407.552h-307.2c-14.336 0-24.576 12.288-24.576 24.576 0 14.336 12.288 24.576 24.576 24.576h307.2c14.336 0 24.576-12.288 24.576-24.576 2.048-12.288-10.24-24.576-24.576-24.576z m0 147.456h-307.2c-14.336 0-24.576 12.288-24.576 24.576 0 14.336 12.288 24.576 24.576 24.576h307.2c14.336 0 24.576-12.288 24.576-24.576 2.048-14.336-10.24-24.576-24.576-24.576z m0 147.456h-307.2c-14.336 0-24.576 12.288-24.576 24.576s12.288 24.576 24.576 24.576h307.2c14.336 0 24.576-12.288 24.576-24.576 2.048-12.288-10.24-24.576-24.576-24.576z" fill="#3fb1b4" /></svg>