<?xml version="1.0" standalone="no"?><!DOCTYPE svg PUBLIC "-//W3C//DTD SVG 1.1//EN" "http://www.w3.org/Graphics/SVG/1.1/DTD/svg11.dtd"><svg class="icon" width="200px" height="200.00px" viewBox="0 0 1024 1024" version="1.1" xmlns="http://www.w3.org/2000/svg"><path d="M261.632 659.456h164.352v-37.888h-164.352v37.888z m0-189.952h367.104v-37.888h-367.104v37.888zM805.888 760.32v-189.952-417.792c0-70.144-56.832-126.464-126.464-126.464h-468.48c-70.144 0-126.464 56.832-126.464 126.464v607.232c0 70.144 56.832 126.464 126.464 126.464h468.48c69.632 1.024 126.464-55.808 126.464-125.952z m-582.144 88.576c-55.808 0-101.376-45.568-101.376-101.376V165.888c0-55.808 45.568-101.376 101.376-101.376h442.88c55.808 0 101.376 45.568 101.376 101.376v582.656C768 804.352 722.432 849.92 666.624 849.92h-442.88z m37.888-569.344h367.104v-37.888h-367.104v37.888zM843.776 163.84v49.664c23.04 18.432 37.888 47.104 37.888 78.848v569.856c0 55.808-45.568 101.376-101.376 101.376h-417.792c-31.744 0-60.416-14.848-78.848-37.888h-49.664c19.456 44.544 64 75.776 115.712 75.776H793.088c70.144 0 126.464-56.832 126.464-126.464v-189.952-404.992c0-52.224-31.232-96.768-75.776-116.224z" fill="#2273c0" /></svg>