<?xml version="1.0" standalone="no"?><!DOCTYPE svg PUBLIC "-//W3C//DTD SVG 1.1//EN" "http://www.w3.org/Graphics/SVG/1.1/DTD/svg11.dtd"><svg t="1529125124049" class="icon" style="" viewBox="0 0 1024 1024" version="1.1" xmlns="http://www.w3.org/2000/svg" p-id="1659" xmlns:xlink="http://www.w3.org/1999/xlink" width="200" height="200"><defs><style type="text/css"></style></defs><path d="M884.363636 1024H139.636364c-74.472727 0-139.636364-65.163636-139.636364-139.636364V139.636364c0-74.472727 65.163636-139.636364 139.636364-139.636364h744.727272c74.472727 0 139.636364 65.163636 139.636364 139.636364v744.727272c0 74.472727-65.163636 139.636364-139.636364 139.636364z" fill="#6EBB53" p-id="1660"></path><path d="M791.272727 637.672727v-51.2l-228.072727-153.6V260.654545s0-51.2-51.2-51.2-51.2 51.2-51.2 51.2v176.872728L232.727273 586.472727v51.2l228.072727-74.472727v139.636364l-74.472727 60.509091v51.2l125.672727-51.2 125.672727 51.2v-51.2l-74.472727-60.509091v-139.636364l228.072727 74.472727z m0 0" fill="#FFFFFF" p-id="1661"></path></svg>