<?xml version="1.0" standalone="no"?><!DOCTYPE svg PUBLIC "-//W3C//DTD SVG 1.1//EN" "http://www.w3.org/Graphics/SVG/1.1/DTD/svg11.dtd"><svg t="1538275720169" class="icon" style="" viewBox="0 0 1024 1024" version="1.1" xmlns="http://www.w3.org/2000/svg" p-id="4298" xmlns:xlink="http://www.w3.org/1999/xlink" width="500" height="500"><defs><style type="text/css"></style></defs><path d="M529.066667 880.64c-6.826667-6.826667-10.24-13.653333-10.24-20.48v-204.8c0-6.826667 3.413333-13.653333 10.24-20.48s13.653333-6.826667 20.48-6.826667h160.426666v-146.773333h-6.826666c-47.786667 0-88.746667 37.546667-88.746667 85.333333v64.853334h-34.133333v-64.853334c0-68.266667 58.026667-122.88 126.293333-122.88h6.826667V184.32c0-27.306667-23.893333-47.786667-51.2-47.786667H187.733333C160.426667 136.533333 136.533333 157.013333 136.533333 184.32v655.36c0 27.306667 23.893333 47.786667 51.2 47.786667h471.04-109.226666c-6.826667 0-13.653333-3.413333-20.48-6.826667zM225.28 501.76c0 10.24-10.24 20.48-20.48 20.48s-20.48-6.826667-20.48-20.48v-27.306667c0-3.413333 3.413333-10.24 6.826667-13.653333 3.413333-3.413333 10.24-6.826667 13.653333-6.826667 6.826667 0 10.24 3.413333 13.653333 6.826667 3.413333 3.413333 6.826667 6.826667 6.826667 13.653333v27.306667z" fill="#6A89D8" p-id="4299"></path><path d="M706.56 682.666667zM699.733333 682.666667zM703.146667 682.666667zM709.973333 686.08zM706.56 682.666667zM696.32 686.08zM692.906667 686.08zM692.906667 686.08zM696.32 686.08c3.413333 0 3.413333 0 0 0 3.413333 0 3.413333 0 0 0zM689.493333 686.08zM686.08 689.493333z" fill="#7685F8" p-id="4300"></path><path d="M706.56 443.733333c-71.68 0-126.293333 54.613333-126.293333 122.88v64.853334h37.546666v-64.853334c0-47.786667 40.96-85.333333 88.746667-85.333333h6.826667c47.786667 3.413333 81.92 37.546667 81.92 85.333333v64.853334h37.546666v-64.853334c0-64.853333-54.613333-119.466667-122.88-122.88h-3.413333z" fill="#FFFFFF" p-id="4301"></path><path d="M877.226667 634.88c-6.826667-6.826667-13.653333-6.826667-20.48-6.826667h-307.2c-6.826667 0-17.066667 3.413333-20.48 6.826667-6.826667 6.826667-10.24 13.653333-10.24 20.48v204.8c0 6.826667 3.413333 13.653333 10.24 20.48s13.653333 6.826667 20.48 6.826667h307.2c6.826667 0 17.066667-3.413333 20.48-6.826667 6.826667-6.826667 10.24-13.653333 10.24-20.48v-204.8c0-6.826667-3.413333-13.653333-10.24-20.48zM737.28 716.8c-3.413333 0-3.413333 0 0 0v3.413333h-3.413333l3.413333 27.306667c0 10.24-6.826667 20.48-17.066667 20.48s-20.48-6.826667-20.48-17.066667l-17.066666-10.24v-3.413333c-10.24-6.826667-13.653333-20.48-10.24-34.133333 3.413333-6.826667 6.826667-10.24 13.653333-13.653334H716.8c20.48 23.893333 20.48 23.893333 20.48 27.306667 0-3.413333 0-3.413333 0 0 0-3.413333 0-3.413333 0 0z" fill="#9FB5ED" p-id="4302"></path><path d="M204.8 457.386667c-6.826667 0-10.24 3.413333-13.653333 6.826666-3.413333 3.413333-6.826667 6.826667-6.826667 13.653334v27.306666c0 10.24 10.24 20.48 20.48 20.48s20.48-6.826667 20.48-20.48V477.866667c0-3.413333-3.413333-10.24-6.826667-13.653334-3.413333-6.826667-6.826667-6.826667-13.653333-6.826666zM737.28 713.386667c0-3.413333 0-3.413333 0 0v-3.413334h-3.413333-3.413334-3.413333-3.413333-3.413334-3.413333-3.413333-3.413334-3.413333c-6.826667 3.413333-10.24 6.826667-13.653333 13.653334-3.413333 10.24 0 23.893333 10.24 34.133333v3.413333l3.413333 27.306667c0 10.24 10.24 17.066667 20.48 17.066667s20.48-10.24 17.066667-20.48l-3.413334-27.306667h3.413334c-6.826667-40.96-6.826667-40.96-6.826667-44.373333 0 3.413333 0 3.413333 0 0z" fill="#FFFFFF" p-id="4303"></path></svg>