<?xml version="1.0" standalone="no"?><!DOCTYPE svg PUBLIC "-//W3C//DTD SVG 1.1//EN" "http://www.w3.org/Graphics/SVG/1.1/DTD/svg11.dtd"><svg t="1535077813553" class="icon" style="" viewBox="0 0 1024 1024" version="1.1" xmlns="http://www.w3.org/2000/svg" p-id="3368" xmlns:xlink="http://www.w3.org/1999/xlink" width="500" height="500"><defs><style type="text/css"></style></defs><path d="M593.61366 524.918309l112.128469-112.226007c5.649954 23.029704 17.06185 44.99372 35.131589 63.023721 52.446313 52.442701 137.394313 52.475213 189.876751 0.0289 52.536626-52.475213 52.536626-137.491851 0-189.995964-52.478826-52.413801-137.430438-52.446313-189.876751 0l-249.24462 249.212108-5.270642-5.303154 249.208495-249.18682c52.381288-52.475213 52.381288-137.488238-0.0578-189.934552-52.453538-52.446313-137.527976-52.475213-189.909264 0-52.410188 52.446313-52.410188 137.459338 0 189.934552 17.997488 18.033613 39.997629 29.391322 63.056234 35.005151l-112.254907 112.189882s-1.376364 1.499189-56.001016 56.066041l-35.189389-35.160488 122.604728-122.57944c4.118253-4.179666 4.024328-11.010908-0.278163-15.349524-4.338616-4.306103-11.267396-4.403641-15.288111-0.220363l-122.57944 122.543315-12.94721-12.882184 122.640853-122.583053c4.150766-4.143541 3.995428-10.978396-0.249263-15.284498-4.367516-4.302491-11.202371-4.428928-15.378424-0.310676l-122.518027 122.57944-12.853284-12.853284 122.579439-122.55054c4.150766-4.179666 3.959303-11.043421-0.307062-15.349524-4.309716-4.273591-11.112058-4.367516-15.320624-0.220362l-122.55054 122.546927-12.853284-12.820772 122.57944-122.640852c4.089353-4.150766 3.991815-10.982008-0.307063-15.288111-4.248303-4.302491-11.075933-4.400028-15.259211-0.249263L304.309998 347.678092l-12.853285-12.885797 122.518028-122.640852c4.215791-4.150766 4.05684-10.982008-0.24565-15.317011-4.277203-4.277203-11.140958-4.400028-15.284499-0.220363L275.829027 319.226021l-12.885797-12.914697 122.611952-122.611952c4.179666-4.089353 4.05684-10.985621-0.281775-15.284499-4.277203-4.277203-11.169858-4.400028-15.223086-0.281775l-122.640852 122.60834-12.86051-12.914697 122.55054-122.543315c4.150766-4.150766 4.089353-10.985621-0.24565-15.291723-4.338616-4.302491-11.202371-4.461441-15.353136-0.307063L218.921273 262.318267l-12.853285-12.914697 122.640853-122.611952c4.089353-4.118253 3.991815-10.982008-0.307063-15.284499-4.309716-4.302491-11.202371-4.432541-15.291724-0.314288L190.469202 233.768659l-12.882184-12.853285 122.608339-122.604727c4.179666-4.150766 4.05684-10.982008-0.220362-15.291724-4.269978-4.302491-11.166246-4.461441-15.313399-0.27455L162.046031 205.3202l-12.853284-12.853284 122.546927-122.55054c4.150766-4.179666 4.05684-11.010908-0.249263-15.320624-4.302491-4.302491-11.137346-4.428928-15.284498-0.281775L58.811543 251.650547c-4.082128 4.082128-4.992479 9.948832-1.903789 13.037522L358.721513 566.472927c-184.04256 194.14673-304.873548 406.330685-304.873549 406.330686s170.033275-78.463557 401.464644-309.703465l307.868313 307.868313c3.020052 3.085077 8.854244 2.210852 13.037523-1.936301l67.232286-67.261187c4.08574-4.089353 5.017766-9.98857 1.990489-13.041135l-307.767163-307.741875a264910.508714 264910.508714 0 0 1 56.001016-56.037141l-0.061412-0.032513zM784.238199 329.207366c28.513483-28.452071 74.62708-28.452071 103.075538 0 28.455683 28.452071 28.520708 74.59818 0 103.046638-28.448458 28.426783-74.619855 28.426783-103.075538 0-28.387046-28.448458-28.387046-74.594567 0-103.046638z m-30.261934 123.20079a7.138305 7.138305 0 0 1 10.172807 0c19.120977 19.095689 44.607183 29.669484 71.693728 29.669485 27.017907 0 52.471601-10.548508 71.592577-29.636972 19.157102-19.157102 29.767022-44.650533 29.767022-71.664828 0-27.046807-10.613533-52.536626-29.767022-71.664827a7.326155 7.326155 0 0 1 0-10.230608 7.27558 7.27558 0 0 1 10.237833 0c21.873704 21.898991 33.943075 50.947125 33.943074 81.862923 0 30.89051-12.072984 59.935031-33.943074 81.837635-21.873704 21.837578-50.914612 33.87805-81.805123 33.87805s-59.992831-12.040471-81.866535-33.87805a7.387568 7.387568 0 0 1 0-10.23422l-0.025287 0.061412z m-164.946871-318.438495c28.426783-28.488196 74.565667-28.488196 103.046638 0 28.455683 28.419558 28.455683 74.562055 0 103.043025-28.513483 28.419558-74.619855 28.419558-103.046638 0-28.520708-28.480971-28.520708-74.594567 0-103.043025z m-30.32696 133.369985a7.214168 7.214168 0 0 1 0-10.230608c2.781627-2.806915 7.329768-2.806915 10.237833 0 39.499104 39.528004 103.823326 39.466591 143.29353 0 39.491879-39.470204 39.491879-103.798039 0-143.268242a7.167205 7.167205 0 0 1 0-10.201708c2.835815-2.803302 7.358668-2.803302 10.10417 0 45.177958 45.145446 45.177958 118.591237 0.065025 163.700558-22.614267 22.552854-52.160926 33.816637-81.866535 33.816637-29.543047 0-59.248656-11.263783-81.834023-33.816637z m-189.746701 288.552261L76.187681 263.15998c-2.803302-2.868327-2.803302-7.452593 0-10.23422a7.17443 7.17443 0 0 1 10.201707 0l292.612715 292.645227a973.533338 973.533338 0 0 0-10.01747 10.357045l-0.0289-0.036125z m40.745417 85.457363a17.303888 17.303888 0 0 1-24.489155 0c-6.679517-6.708417-6.679517-17.629013 0-24.398843a17.354463 17.354463 0 0 1 24.489155 0 17.3653 17.3653 0 0 1 0 24.398843z m352.825908 287.74306a7.138305 7.138305 0 0 1 0 10.165583c-1.376364 1.437776-3.251252 2.124152-5.024991 2.124151a6.97213 6.97213 0 0 1-5.122528-2.124151L465.481803 652.417978c3.46439-3.33434 6.896268-6.672292 10.324533-10.042758l286.74601 286.71711h-0.025288z m0 0" fill="#cdcdcd" p-id="3369"></path></svg>