<?xml version="1.0" standalone="no"?><!DOCTYPE svg PUBLIC "-//W3C//DTD SVG 1.1//EN" "http://www.w3.org/Graphics/SVG/1.1/DTD/svg11.dtd"><svg class="icon" width="200px" height="200.00px" viewBox="0 0 1024 1024" version="1.1" xmlns="http://www.w3.org/2000/svg"><path d="M510.986927 851.302753c-42.99114 0-85.977163-8.06263-126.282125-26.869974-37.614689-16.120143-75.229378-42.990117-104.785531-72.542176-29.55513-32.242332-53.734832-67.170842-69.855998-107.475803-16.121166-42.990117-26.869974-85.977163-26.869974-134.340661 0-48.363498 8.058536-91.353614 26.869974-134.340661 16.121166-40.304961 40.300868-77.91965 69.855998-107.47478 29.556153-32.242332 64.484663-56.422034 104.785531-72.5432 40.304961-18.811438 83.290985-26.869974 126.282125-26.869974 42.99114 0 85.978187 8.058536 126.282125 26.869974 37.614689 16.121166 72.5432 42.987047 104.785531 72.5432 29.556153 32.241308 53.735855 67.169819 69.855998 107.47478 16.121166 42.987047 26.869974 85.977163 26.869974 134.340661 0 61.798485-16.121166 120.906697-45.676295 174.645622-2.686179 5.372358-10.744715 10.744715-16.121166 10.744715-2.686179 0-8.058536 0-10.744715-2.686179-8.06263-5.372358-13.434987-18.807345-8.06263-29.556153 26.869974-45.676295 40.303938-99.412151 40.303938-153.148006 0-40.304961-8.061606-80.604806-21.496593-118.219495-13.434987-34.932604-34.92851-67.170842-61.798485-96.726995-26.865881-26.868951-56.422034-48.362474-91.350544-64.48364-34.927487-16.121166-72.54627-24.183795-112.847138-24.183795s-77.918627 10.748808-112.847138 26.869974c-32.242332 16.121166-64.484663 37.614689-91.350544 64.48364-26.869974 26.869974-48.362474 59.108213-61.797461 96.726995-16.121166 37.614689-21.497617 75.228355-21.497617 118.219495 0 40.300868 8.06263 80.605829 21.497617 118.220518 13.434987 34.927487 34.927487 67.169819 61.797461 96.725972 26.865881 26.869974 56.422034 48.363498 91.350544 64.484663 34.92851 16.121166 72.54627 24.182772 112.847138 24.182772 56.422034 0 110.160959-16.120143 158.524456-48.362474 2.686179-2.690272 8.058536-2.690272 10.744715-2.690272 8.06263 0 13.434987 2.690272 16.121166 10.748808 5.376451 10.748808 2.690272 21.493523-5.372358 29.556153C637.269052 832.495408 575.47159 851.302753 510.986927 851.302753L510.986927 851.302753zM510.986927 851.302753" fill="#00bcd4" /><path d="M508.300748 523.509125 508.300748 523.509125c-8.06263 0-13.434987-5.376451-13.434987-13.434987L494.865761 346.177324c0-8.06263 5.372358-13.434987 13.434987-13.434987l0 0c8.058536 0 13.434987 5.372358 13.434987 13.434987l0 163.896814C521.735735 518.132674 516.359284 523.509125 508.300748 523.509125L508.300748 523.509125zM508.300748 523.509125" fill="#00bcd4" /><path d="M494.865761 510.074138 494.865761 510.074138c0-8.06263 5.372358-13.434987 13.434987-13.434987l163.896814 0c8.058536 0 13.434987 5.372358 13.434987 13.434987l0 0c0 8.058536-5.376451 13.434987-13.434987 13.434987L508.300748 523.509125C500.238119 523.509125 494.865761 518.132674 494.865761 510.074138L494.865761 510.074138zM494.865761 510.074138" fill="#00bcd4" /></svg>