<?xml version="1.0" standalone="no"?><!DOCTYPE svg PUBLIC "-//W3C//DTD SVG 1.1//EN" "http://www.w3.org/Graphics/SVG/1.1/DTD/svg11.dtd"><svg t="1529125048904" class="icon" style="" viewBox="0 0 1024 1024" version="1.1" xmlns="http://www.w3.org/2000/svg" p-id="4974" xmlns:xlink="http://www.w3.org/1999/xlink" width="200" height="200"><defs><style type="text/css"></style></defs><path d="M61.44 167.253333l218.453333-51.2V853.333333h484.693334L279.893333 986.453333c-30.72 10.24-64.853333-10.24-75.093333-44.373333L17.066667 242.346667c-6.826667-34.133333 13.653333-64.853333 44.373333-75.093334z" fill="#9FE9ED" p-id="4975"></path><path d="M351.573333 95.573333v61.44c0 44.373333 47.786667 92.16 92.16 92.16h310.613334c44.373333 0 92.16-47.786667 92.16-92.16V95.573333h92.16c47.786667 0 61.44 37.546667 61.44 61.44v727.04c0 47.786667-40.96 61.44-61.44 61.44H259.413333c-20.48 0-61.44-10.24-61.44-61.44V157.013333c0-23.893333 17.066667-61.44 61.44-61.44h92.16z m0 303.786667c0 17.066667 20.48 30.72 30.72 30.72H819.2c10.24 0 30.72-13.653333 30.72-30.72s-20.48-30.72-30.72-30.72H382.293333c-10.24 0-30.72 13.653333-30.72 30.72z m0 180.906667c0 17.066667 17.066667 30.72 30.72 30.72H819.2c13.653333 0 30.72-10.24 30.72-30.72 0-17.066667-17.066667-30.72-30.72-30.72H382.293333c-10.24 0-30.72 13.653333-30.72 30.72z m0 180.906666c0 17.066667 17.066667 30.72 30.72 30.72h249.173334c13.653333 0 30.72-13.653333 30.72-30.72s-17.066667-30.72-30.72-30.72h-249.173334c-10.24 0-30.72 13.653333-30.72 30.72z m61.44-686.08c0-23.893333 17.066667-37.546667 37.546667-37.546666H750.933333c17.066667 0 37.546667 13.653333 37.546667 37.546666v75.093334c0 23.893333-17.066667 37.546667-37.546667 37.546666h-300.373333c-17.066667 0-37.546667-13.653333-37.546667-37.546666V75.093333z m0 0" fill="#0FC7D3" p-id="4976"></path></svg>