<?xml version="1.0" standalone="no"?><!DOCTYPE svg PUBLIC "-//W3C//DTD SVG 1.1//EN" "http://www.w3.org/Graphics/SVG/1.1/DTD/svg11.dtd"><svg t="1533285047865" class="icon" style="" viewBox="0 0 1024 1024" version="1.1" xmlns="http://www.w3.org/2000/svg" p-id="13688" xmlns:xlink="http://www.w3.org/1999/xlink" width="200" height="200"><defs><style type="text/css"></style></defs><path d="M1014.272 943.616L898.048 824.32c33.792-39.424 54.272-92.16 54.272-149.504 0.512-124.928-98.304-226.816-219.648-226.816s-220.16 101.888-220.16 226.816 98.304 226.816 220.16 226.816c43.008 0 83.968-13.312 118.272-35.84 0 0 0.512 0.512 0.512 1.536l118.784 122.368c12.288 12.288 32.768 12.288 44.544 0 12.288-13.312 12.288-33.792-0.512-46.08z m-284.16-89.088c-119.296 0-210.432-116.736-165.888-242.688 16.384-46.592 54.272-84.48 100.864-100.864 125.44-44.544 242.688 46.592 242.688 165.888 0.512 97.792-79.36 177.664-177.664 177.664z" fill="#FF847B" p-id="13689"></path><path d="M476.16 909.824H129.536c-71.68 0-129.536-58.368-129.536-129.536V194.56c0-71.68 58.368-129.536 129.536-129.536h698.88c71.68 0 129.536 58.368 129.536 129.536v194.048c0 19.456-9.728 36.864-26.624 47.104-16.384 10.24-36.352 10.24-53.248 1.536-63.488-33.792-138.24-41.472-210.432-22.016-91.136 25.088-162.816 96.256-187.904 186.368-23.04 82.944-10.752 166.4 34.816 234.496 9.728 14.848 10.752 33.792 2.56 49.664-8.192 14.848-23.552 24.064-40.96 24.064zM129.536 107.52C81.92 107.52 43.008 146.432 43.008 194.56v585.728c0 47.616 38.912 86.528 86.528 86.528H476.16c3.584-2.56 4.608-4.608 3.072-7.168-52.224-78.848-66.56-174.592-40.448-269.824 29.184-104.448 112.64-187.392 218.112-216.576 82.944-22.528 168.96-13.824 241.664 25.6 5.12 2.56 9.216 1.024 11.264-0.512 1.536-1.024 5.632-4.096 5.632-10.24V194.56c0-47.616-38.912-86.528-86.528-86.528H129.536z" fill="#474747" p-id="13690"></path><path d="M429.568 306.176H160.256c-18.432 0-33.792-15.36-33.792-33.792 0-18.432 15.36-33.792 33.792-33.792h269.312c18.432 0 33.792 15.36 33.792 33.792 0 18.432-15.36 33.792-33.792 33.792z" fill="#7BC3FF" p-id="13691"></path><path d="M272.896 429.056h-112.64c-18.432 0-33.792-15.36-33.792-33.792 0-18.432 15.36-33.792 33.792-33.792h112.128c18.432 0 33.792 15.36 33.792 33.792 0.512 18.432-14.848 33.792-33.28 33.792z" fill="#7BC3FF" p-id="13692"></path></svg>