<?xml version="1.0" standalone="no"?><!DOCTYPE svg PUBLIC "-//W3C//DTD SVG 1.1//EN" "http://www.w3.org/Graphics/SVG/1.1/DTD/svg11.dtd"><svg class="icon" width="200px" height="200.00px" viewBox="0 0 1024 1024" version="1.1" xmlns="http://www.w3.org/2000/svg"><path d="M773.9 689.5h-21.7V429.3h43.3c18.5 0 35.1-11.8 41-29.4 5.9-17.6 0.1-37-14.6-48.3L555.4 136.5c-12.9-7.1-27.2-10.6-41.5-10.6-14.2 0-28.6 3.5-41.5 10.6L205.7 351.7c-14.7 11.4-20.6 30.8-14.6 48.3 5.9 17.6 22.5 29.4 41 29.4h43.3v260.1h-21.7c-35.9 0-65 29.1-65 65s29.1 65 65 65h520.1c35.9 0 65-29.1 65-65 0.1-35.9-29-65-64.9-65z m-541-304.1L496 173.1c5.5-2.6 11.7-3.8 17.9-3.8 6.2 0 12.2 1.3 17.9 3.8L795.7 386l-562.8-0.6z m476 43.9v260.1h-43.3V429.3h43.3z m-86.7 0v260.1h-43.3V429.3h43.3z m-86.7 0v260.1h-43.3V429.3h43.3z m-86.7 0v260.1h-43.3V429.3h43.3z m-86.7 0v260.1h-43.3V429.3h43.3z m411.8 346.9H253.8c-11.9 0-21.7-9.8-21.7-21.6 0-12 9.8-21.6 21.7-21.6h520.1c11.9 0 21.7 9.8 21.7 21.6 0 11.9-9.8 21.6-21.7 21.6z" fill="#49bfe4" /><path d="M513.9 212.6L362.1 342.7h303.4L513.9 212.6z m0 57.2l34.5 29.6h-69.1l34.6-29.6z" fill="#eeb034" /></svg>