<?xml version="1.0" standalone="no"?><!DOCTYPE svg PUBLIC "-//W3C//DTD SVG 1.1//EN" "http://www.w3.org/Graphics/SVG/1.1/DTD/svg11.dtd"><svg class="icon" width="200px" height="200.00px" viewBox="0 0 1024 1024" version="1.1" xmlns="http://www.w3.org/2000/svg"><path d="M976.337455 489.704727a84.945455 84.945455 0 0 0-86.43491-83.409454l-22.341818 0.372363a380.276364 380.276364 0 0 0-30.021818-71.028363l19.549091-18.013091a84.945455 84.945455 0 0 0 4.887273-120.040727l-31.371637-34.024728a85.038545 85.038545 0 0 0-120.040727-4.887272l-26.158545 24.110545a380.695273 380.695273 0 0 0-66.606546-28.485818v-22.807273A85.038545 85.038545 0 0 0 532.759273 46.545455h-46.312728a85.038545 85.038545 0 0 0-84.945454 84.945454v17.733818a380.090182 380.090182 0 0 0-72.005818 27.368728l-16.011637-14.75491a84.945455 84.945455 0 0 0-120.040727 4.887273l-31.371636 34.071273a85.038545 85.038545 0 0 0 4.887272 120.040727l3.956364 3.677091a379.252364 379.252364 0 0 0-37.236364 84.945455 84.945455 84.945455 0 0 0-86.062545 83.409454l-0.837818 46.312727A84.945455 84.945455 0 0 0 130.327273 625.617455h2.280727a379.159273 379.159273 0 0 0 34.583273 82.385454l-5.073455 5.492364a84.945455 84.945455 0 0 0 4.654546 120.040727l34.024727 31.418182a85.038545 85.038545 0 0 0 120.040727-4.654546l1.303273-1.442909a379.252364 379.252364 0 0 0 81.082182 31.604364v2.141091A85.038545 85.038545 0 0 0 488.401455 977.454545h46.312727a85.038545 85.038545 0 0 0 84.945454-84.945454V884.363636a379.717818 379.717818 0 0 0 76.520728-34.583272l6.842181 7.400727a84.945455 84.945455 0 0 0 120.040728 4.654545l34.024727-31.418181a84.945455 84.945455 0 0 0 4.654545-120.040728l-17.873454-19.362909a380.555636 380.555636 0 0 0 26.298182-68.142545l23.272727-0.418909a85.038545 85.038545 0 0 0 83.409455-86.434909z m-93.975273 61.626182a22.109091 22.109091 0 0 1-15.034182 6.050909l-43.706182 0.791273a28.951273 28.951273 0 0 0-27.927273 22.993454 298.263273 298.263273 0 0 1-33.792 88.157091 28.951273 28.951273 0 0 0 3.770182 34.117819l30.72 33.28a21.550545 21.550545 0 0 1-1.210182 30.440727l-31.790545 29.370182a21.550545 21.550545 0 0 1-30.440727-1.210182l-22.853818-24.762182a28.951273 28.951273 0 0 0-37.748364-4.189091 297.890909 297.890909 0 0 1-96.023273 43.845818 28.951273 28.951273 0 0 0-21.736727 27.927273v29.463273a21.550545 21.550545 0 0 1-21.550546 21.550545h-43.287272a21.550545 21.550545 0 0 1-21.550546-21.550545v-25.134546a28.951273 28.951273 0 0 0-23.272727-28.439272A297.518545 297.518545 0 0 1 344.436364 774.981818a28.951273 28.951273 0 0 0-36.445091 5.026909l-16.849455 18.245818a21.550545 21.550545 0 0 1-30.440727 1.210182l-31.790546-29.370182a21.550545 21.550545 0 0 1-1.210181-30.440727l19.549091-21.178182a28.951273 28.951273 0 0 0 2.978909-35.421091 297.890909 297.890909 0 0 1-41.890909-99.514181 28.951273 28.951273 0 0 0-27.927273-22.760728l-24.250182-0.418909a21.550545 21.550545 0 0 1-21.131636-21.922909l0.744727-42.821818a22.155636 22.155636 0 0 1 6.050909-15.034182 21.457455 21.457455 0 0 1 15.872-6.562909l22.341818 0.418909a28.951273 28.951273 0 0 0 28.718546-22.481454 297.890909 297.890909 0 0 1 45.614545-103.563637 28.951273 28.951273 0 0 0-4.189091-37.748363l-21.550545-19.874909a21.550545 21.550545 0 0 1-1.256728-30.440728l29.323637-31.837091a21.550545 21.550545 0 0 1 30.440727-1.256727l30.161455 27.927273a28.951273 28.951273 0 0 0 34.117818 3.770182 297.890909 297.890909 0 0 1 91.787636-34.536728 28.951273 28.951273 0 0 0 23.272727-28.392727v-39.563636a21.550545 21.550545 0 0 1 21.550546-21.550546h43.287273a21.550545 21.550545 0 0 1 21.550545 21.550546v43.147636a28.951273 28.951273 0 0 0 21.922909 27.927273 298.309818 298.309818 0 0 1 86.667637 37.236363 28.951273 28.951273 0 0 0 35.002181-3.211636l40.215273-37.236364a21.550545 21.550545 0 0 1 30.440727 1.256728l29.323637 31.837091a21.550545 21.550545 0 0 1-1.256728 30.440727l-35.467636 32.581818a28.951273 28.951273 0 0 0-4.654545 36.864 297.890909 297.890909 0 0 1 39.098181 92.206546 28.951273 28.951273 0 0 0 28.672 22.248727l43.380364-0.791273a21.550545 21.550545 0 0 1 21.922909 21.131636l0.791273 43.287273a21.410909 21.410909 0 0 1-6.562909 15.965091z" fill="#798fb6" /><path d="M512 372.363636a139.636364 139.636364 0 1 0 139.636364 139.636364 139.636364 139.636364 0 0 0-139.636364-139.636364z" fill="#ffcf48" /></svg>