<?xml version="1.0" standalone="no"?><!DOCTYPE svg PUBLIC "-//W3C//DTD SVG 1.1//EN" "http://www.w3.org/Graphics/SVG/1.1/DTD/svg11.dtd"><svg t="1555086139517" class="icon" style="" viewBox="0 0 1024 1024" version="1.1" xmlns="http://www.w3.org/2000/svg" p-id="1821" xmlns:xlink="http://www.w3.org/1999/xlink" width="200" height="200"><defs><style type="text/css"></style></defs><path d="M512 512m-512 0a512 512 0 1 0 1024 0 512 512 0 1 0-1024 0Z" fill="#E57E25" p-id="1822"></path><path d="M13.330286 552.009143c66.212571-63.232 175.067429-83.309714 253.312-46.774857a963.876571 963.876571 0 0 0-149.12 333.147428c8.612571 10.404571 17.700571 20.370286 27.099428 30.043429a17.828571 17.828571 0 0 0 5.412572-9.197714 926.848 926.848 0 0 1 147.657143-334.555429c46.72 36.260571 69.650286 95.945143 64.457142 172.525714l-0.073142 0.987429 0.036571 1.005714c4.589714 110.866286 68.498286 212.315429 170.934857 271.341714a349.641143 349.641143 0 0 0 99.949714 38.930286 508.470857 508.470857 0 0 0 87.478858-29.878857c-55.753143 4.315429-114.779429-9.398857-169.179429-40.740571-91.227429-52.571429-148.205714-142.299429-152.612571-240.201143 7.222857-110.884571-36.717714-171.410286-79.067429-203.794286a937.508571 937.508571 0 0 1 88.832-100.352 4017.371429 4017.371429 0 0 1 367.104 389.723429l78.866286 95.945142 28.251428-23.241142-78.866285-95.945143A4053.650286 4053.650286 0 0 0 435.163429 369.371429a935.734857 935.734857 0 0 1 79.963428-64.786286c43.702857 55.241143 113.974857 82.304 201.801143 76.525714 82.633143 3.748571 160.182857 48.731429 212.900571 123.501714 40.996571 58.148571 61.860571 127.305143 59.776 191.817143a508.708571 508.708571 0 0 0 25.910858-92.032 369.737143 369.737143 0 0 0-55.789715-120.850285c-59.52-84.425143-147.821714-135.094857-242.249143-139.008l-1.005714-0.036572-0.987428 0.073143c-74.422857 5.010286-133.376-16.658286-169.965715-61.074286a926.72 926.72 0 0 1 313.691429-133.485714 17.865143 17.865143 0 0 0 9.106286-5.522286 511.305143 511.305143 0 0 0-29.970286-27.008 963.163429 963.163429 0 0 0-312.850286 135.442286c-35.584-71.460571-23.131429-171.885714 30.482286-240.804571l7.442286-9.563429A518.838857 518.838857 0 0 0 512 0v11.227429c-50.724571 80.292571-58.276571 184.850286-16.932571 262.784a976.164571 976.164571 0 0 0-86.912 70.528 4035.126857 4035.126857 0 0 0-183.826286-158.610286L163.712 136.850286c-8.996571 8.356571-17.664 17.024-26.038857 26.002285l63.652571 51.529143a3990.729143 3990.729143 0 0 1 180.205715 155.373715 975.323429 975.323429 0 0 0-92.982858 105.545142c-2.084571-1.060571-4.205714-2.157714-6.198857-3.090285C195.620571 431.597714 81.554286 448.621714 3.474286 512H0c0 17.005714 0.877714 33.792 2.486857 50.358857l10.843429-10.349714z" fill="#38454F" p-id="1823"></path></svg>