<?xml version="1.0" standalone="no"?><!DOCTYPE svg PUBLIC "-//W3C//DTD SVG 1.1//EN" "http://www.w3.org/Graphics/SVG/1.1/DTD/svg11.dtd"><svg t="1564676478345" class="icon" viewBox="0 0 1205 1024" version="1.1" xmlns="http://www.w3.org/2000/svg" p-id="11385" xmlns:xlink="http://www.w3.org/1999/xlink" width="235.3515625" height="200"><defs><style type="text/css"></style></defs><path d="M124.17281175 102.83947842l977.58224561 0 0 818.32104316-977.58224561 0 0-818.32104316Z" fill="#FFFFFF" p-id="11386"></path><path d="M1091.55795013 62H134.3826807A51.04934737 51.04934737 0 0 0 83.33333333 113.04934737v797.90130526a51.04934737 51.04934737 0 0 0 51.04934737 51.04934737h957.17526943a51.04934737 51.04934737 0 0 0 51.04934824-51.04934737V113.04934737a51.04934737 51.04934737 0 0 0-51.04934824-51.04934737z m-30.6296086 81.67895596v444.32076006l-104.72773623-142.05757237c-79.29239941-90.94441289-134.89790097-64.2456044-177.62620517 4.72206533-36.20674951 58.45150283-83.07005098 142.93817315-83.37634717 143.46142911C645.22074094 677.14463955 611.8089432 740.87975058 504.18415618 677.14463955c0 0-88.06012471-54.07402148-139.5689168-88.73652832-63.04594482-42.422008-120.04254141 74.41718643-176.04367558 138.17782178L165.01228929 752.90187148V143.67895596z" fill="#2674FD" p-id="11387"></path><path d="M408.84949935 335.35649463m-122.82473057 0a122.82473057 122.82473057 0 1 0 245.64946113 0 122.82473057 122.82473057 0 1 0-245.64946113 0Z" fill="#FFDD15" p-id="11388"></path></svg>