<?xml version="1.0" standalone="no"?><!DOCTYPE svg PUBLIC "-//W3C//DTD SVG 1.1//EN" "http://www.w3.org/Graphics/SVG/1.1/DTD/svg11.dtd"><svg t="1529125179305" class="icon" style="" viewBox="0 0 1024 1024" version="1.1" xmlns="http://www.w3.org/2000/svg" p-id="4041" xmlns:xlink="http://www.w3.org/1999/xlink" width="200" height="200"><defs><style type="text/css"></style></defs><path d="M709.632 538.9568a63.104 63.104 0 0 0-62.8992 62.8736 63.104 63.104 0 0 0 62.8736 62.8736 63.104 63.104 0 0 0 62.8736-62.8736 63.104 63.104 0 0 0-62.8736-62.8736z" fill="#51ABF7" p-id="4042"></path><path d="M512 0C229.376 0 0 229.376 0 512s229.376 512 512 512 512-229.376 512-512S794.624 0 512 0z m199.68 713.216c-9.216 24.064-24.576 46.08-45.056 62.464-25.6 20.992-58.368 32.256-91.648 32.256-38.912 0-75.776-15.36-102.912-42.496-27.136-27.136-42.496-62.976-42.496-101.376v-127.488c-66.56-4.096-118.784-24.576-156.16-62.464-28.672-29.184-48.128-67.584-57.856-114.688-6.144-29.184-7.168-55.808-7.168-74.752v-0.512-68.096h181.248v39.424H247.808v28.16c0 38.4 4.096 113.152 53.248 163.328 33.28 33.792 82.944 51.2 147.456 51.2 64.512 0 114.176-17.408 147.968-51.2 23.04-23.552 38.912-55.296 47.104-95.232 6.656-33.28 6.656-62.976 6.144-79.36V256h-141.312V216.576h181.248V300.544h-0.512c-0.512 16.384-2.56 36.864-6.656 58.88-9.728 47.104-29.184 85.504-57.856 114.688-37.376 37.888-90.112 58.88-156.16 62.464v125.952c0 58.88 47.616 106.496 106.496 106.496 24.576 0 47.616-8.192 67.072-23.552 12.8-10.24 23.04-23.552 30.208-38.4-40.448-14.848-69.12-53.76-69.12-99.328 0-58.368 47.616-105.984 106.496-105.984s106.496 47.616 106.496 105.984c-0.512 56.832-47.104 103.936-104.448 105.472z" fill="#51ABF7" p-id="4043"></path></svg>