<?xml version="1.0" standalone="no"?><!DOCTYPE svg PUBLIC "-//W3C//DTD SVG 1.1//EN" "http://www.w3.org/Graphics/SVG/1.1/DTD/svg11.dtd"><svg t="1534055204913" class="icon" style="" viewBox="0 0 1024 1024" version="1.1" xmlns="http://www.w3.org/2000/svg" p-id="9649" xmlns:xlink="http://www.w3.org/1999/xlink" width="500" height="500"><defs><style type="text/css"></style></defs><path d="M512 51.488335c253.929025 0 460.511665 206.582641 460.511665 460.511665S765.929025 972.523107 512 972.523107 51.488335 765.929025 51.488335 512 258.070975 51.488335 512 51.488335m0-51.488335C229.237508 0 0 229.237508 0 512s229.237508 512 512 512 512-229.226066 512-512S794.773934 0 512 0z" fill="#1DB4B1" p-id="9650"></path><path d="M262.842228 406.323054v-50.687405h54.92089v-92.90784h52.769822v92.90784h42.231876v50.675963h-42.231876v92.907839l44.337177-10.560829v54.92089l-44.337177 12.654688v145.700546q2.070975 59.085725-52.792706 59.12005-29.600072 2.070975-54.92089 2.116742-2.082417-16.876732-6.36167-44.337177-2.116743-8.478412-2.116743-10.560829h12.666131q19.004916 2.070975 27.460445 0c16.888174 1.384464 24.611424-5.606508 23.22696-21.110217V571.017073q-8.444087 2.116743-27.460445 6.338786c-12.66613 4.222043-22.529007 7.059623-29.565746 8.444087l-6.338786-59.12005a57.75847 57.75847 0 0 0 12.66613-2.116742l50.675963-12.666131v-105.573969z m156.261374 179.476892v-46.453919h90.791097q12.66613-21.075892 25.343703-46.45392l57.014749 8.444087q-4.256369 12.66613-16.888174 31.671047a24.313936 24.313936 0 0 1-4.222043 6.338786h192.18879v46.453919h-59.165817q-27.460445 59.12005-57.014749 88.685796 10.56083 4.256369 31.671046 12.666131 23.22696 10.595155 82.381336 31.671046l-29.565746 46.45392q-84.463753-40.160901-128.80093-59.12005-63.342094 38.009833-183.710378 61.236793c-1.407348-2.837579-4.222043-8.444087-8.444087-16.888174q-4.336462-6.338786-19.0278-31.671047a63.353535 63.353535 0 0 0 14.782873-2.116742q103.434343-16.888174 135.139716-33.78779l-99.246626-42.231876a552.343971 552.343971 0 0 0 40.115134-54.92089z m0-103.468669V437.9941h92.90784q-6.338786-10.56083-23.284169-33.810673c-7.059623-11.258783-11.968177-19.004916-14.782873-23.22696l50.675963-14.782873q14.748547 19.004916 48.570662 69.68088l-6.338786 2.116743h48.570663q4.222043-4.222043 10.560829-16.888174 23.22696-38.009833 35.89309-54.920891l52.792706 14.782873q-6.338786 8.444087-19.004916 27.460446-14.714222 19.0278-21.06445 29.588629h90.802539v44.337177z m16.888174-120.356842v-44.337177h135.116832q-4.256369-10.56083-14.782873-31.671047a169.694109 169.694109 0 0 0-6.338786-16.888174l61.236793-8.444087q12.66613 27.460445 23.22696 57.014749h114.006615v44.337177z m78.124967 259.730043l78.124966 31.671047q31.671047-25.343703 50.675963-67.575579h-103.457227a262.224368 262.224368 0 0 1-25.343702 35.893091z" fill="#1DB4B1" p-id="9651"></path></svg>