<?xml version="1.0" standalone="no"?><!DOCTYPE svg PUBLIC "-//W3C//DTD SVG 1.1//EN" "http://www.w3.org/Graphics/SVG/1.1/DTD/svg11.dtd"><svg class="icon" width="200px" height="200.00px" viewBox="0 0 1024 1024" version="1.1" xmlns="http://www.w3.org/2000/svg"><path d="M813.828096 900.862976zM676.06016 437.599232c0-17.312768-14.055424-31.397888-31.330304-31.397888H242.386944c-17.275904 0-31.332352 14.08512-31.332352 31.397888 0 17.311744 14.056448 31.39584 31.332352 31.39584h402.345984c17.272832 0 31.327232-14.084096 31.327232-31.39584zM472.189952 617.798656c8.368128 0 16.23552-3.263488 22.153216-9.191424 5.91872-5.927936 9.179136-13.814784 9.179136-22.207488 0-17.313792-14.056448-31.398912-31.332352-31.398912H242.386944c-17.275904 0-31.332352 14.08512-31.332352 31.398912 0 17.312768 14.055424 31.397888 31.332352 31.397888H472.18688l0.003072 0.001024zM242.34496 320.192512h402.341888c17.275904 0 31.331328-14.08512 31.331328-31.396864 0-17.312768-14.055424-31.397888-31.331328-31.397888H242.34496c-17.27488 0-31.330304 14.08512-31.330304 31.397888 0 8.39168 3.258368 16.278528 9.176064 22.207488 5.917696 5.925888 13.785088 9.189376 22.15424 9.189376zM242.429952 703.849472c-17.275904 0-31.331328 14.084096-31.331328 31.39584 0 17.313792 14.055424 31.398912 31.331328 31.398912h159.481856c17.276928 0 31.333376-14.08512 31.333376-31.398912 0-17.311744-14.056448-31.39584-31.333376-31.39584H242.429952z" fill="#aad08f" /><path d="M537.182208 865.113088H204.015616c-24.99072 0-45.323264-20.384768-45.323264-45.441024V204.371968c0-25.078784 20.33152-45.483008 45.323264-45.483008h479.167488c24.969216 0 45.282304 20.404224 45.282304 45.483008v233.228288c0 17.311744 14.056448 31.39584 31.331328 31.39584 17.275904 0 31.331328-14.084096 31.331328-31.39584V204.371968c0-59.728896-48.443392-108.321792-107.986944-108.321792H204.015616c-59.568128 0-108.030976 48.592896-108.030976 108.321792v615.300096c0.001024 59.705344 48.462848 108.27776 108.030976 108.27776H537.1392c17.299456 0 31.373312-14.103552 31.373312-31.440896 0-17.311744-14.055424-31.39584-31.330304-31.39584z" fill="#aad08f" /><path d="M717.671424 506.179584c-115.933184 0-210.251776 94.603264-210.251776 210.884608S601.73824 927.9488 717.671424 927.9488c115.95776 0 210.295808-94.60224 210.295808-210.883584s-94.338048-210.885632-210.295808-210.885632z m67.13856 284.700672H666.765312V643.738624c0-17.313792 14.056448-31.398912 31.332352-31.398912 17.276928 0 31.333376 14.08512 31.333376 31.398912v84.303872h55.379968c17.276928 0 31.333376 14.084096 31.333376 31.39584-0.001024 17.337344-14.057472 31.44192-31.3344 31.44192z" fill="#aad08f" /></svg>