<?xml version="1.0" standalone="no"?><!DOCTYPE svg PUBLIC "-//W3C//DTD SVG 1.1//EN" "http://www.w3.org/Graphics/SVG/1.1/DTD/svg11.dtd"><svg t="1529124621124" class="icon" style="" viewBox="0 0 1025 1024" version="1.1" xmlns="http://www.w3.org/2000/svg" p-id="10076" xmlns:xlink="http://www.w3.org/1999/xlink" width="200.1953125" height="200"><defs><style type="text/css"></style></defs><path d="M184.217504 679.142379L345.657224 839.782893c8.791272 8.791272 24.775403 135.865111 15.984131 144.656383l-31.968261 31.968262c-8.791272 8.791272-23.17699 8.791272-31.968262 0l-16.783337-16.783337-127.873046-127.873046C101.100024 819.80273 48.352392 767.854305 23.57699 742.279695l-15.984131-15.98413c-8.791272-8.791272-8.791272-23.17699 0-31.968262l31.968261-31.968261c8.791272-8.791272 135.865111 7.992065 144.656384 16.783337z" fill="#D8DBDB" p-id="10077"></path><path d="M244.157994 96.520813c-23.976196 0-43.95636 19.980163-43.95636 43.95636s19.980163 43.95636 43.95636 43.956359 43.95636-19.980163 43.95636-43.956359-19.980163-43.95636-43.95636-43.95636z m135.865111 47.952392c-23.976196 0-43.95636 19.980163-43.956359 43.95636s19.980163 43.95636 43.956359 43.956359 43.95636-19.980163 43.95636-43.956359-19.980163-43.95636-43.95636-43.95636zM879.527192 635.985226c0-23.976196-19.980163-43.95636-43.95636-43.95636S791.614472 612.00903 791.614472 635.985226s19.980163 43.95636 43.95636 43.956359 43.95636-19.180957 43.95636-43.956359z m3.996032 91.908752c-23.976196 0-43.95636 19.980163-43.956359 43.956359s19.980163 43.95636 43.956359 43.95636 43.95636-19.980163 43.95636-43.95636-19.980163-43.95636-43.95636-43.956359z" fill="#676767" p-id="10078"></path><path d="M599.005697 267.551012l158.242894 158.242894c17.582544 17.582544 191.809569 504.299325 174.227025 521.88187l-63.137316 63.137316c-17.582544 17.582544-45.554773 17.582544-63.137316 0L455.947727 567.253464 13.187305 219.59862c-17.582544-17.582544-17.582544-45.554773 0-63.137317l63.137316-63.137316c17.582544-17.582544 505.098532 156.644481 522.681076 174.227025z" fill="#D8DBDB" p-id="10079"></path><path d="M1005.002618 19.796985c43.95636 43.95636 4.795239 153.447655-47.153186 206.195287L386.416758 796.62574c-52.747631 52.747631-241.360374 171.030199-285.316734 127.07384-43.95636-43.95636 74.326208-232.569102 127.073839-285.316734L798.807331 66.950171c52.747631-52.747631 162.238927-91.109545 206.195287-47.153186z" fill="#E4E7E7" p-id="10080"></path><path d="M267.334984 676.744759l570.633468-570.633468c44.755566-44.755566 130.270666-79.121447 181.419884-62.33811-3.196826-9.590478-7.992065-17.582544-14.385718-24.775402-43.95636-43.95636-153.447655-4.795239-206.195287 47.952392L228.173863 637.583639c-52.747631 52.747631-170.230993 241.360374-127.073839 285.316734 6.393652 6.393652 16.783337 9.590478 29.570642 9.590478 0.799207-68.731762 91.908752-210.990526 136.664318-255.746092z" fill="#DDE0E0" p-id="10081"></path><path d="M280.122288 428.990733l90.310339 70.330175 230.970689-230.970689-2.397619-2.39762c-4.795239-4.795239-49.550805-23.17699-110.290502-46.353979L280.122288 428.990733z" fill="#C7CACA" p-id="10082"></path><path d="M526.277902 656.764596l278.123875 354.048496c15.984131 15.984131 41.55874 16.783337 59.141284 3.196826L556.64775 626.394747l-30.369848 30.369849z m-127.873046-188.612743L8.392065 162.854956c-11.988098 17.582544-10.389685 41.55874 4.79524 56.743664L368.035007 497.722495l30.369849-29.570642z" fill="#3DB39E" p-id="10083"></path><path d="M368.035007 497.722495l30.369849-29.570642-87.912719-68.731762-30.369849 29.570642z" fill="#38A592" p-id="10084"></path></svg>