<?xml version="1.0" standalone="no"?><!DOCTYPE svg PUBLIC "-//W3C//DTD SVG 1.1//EN" "http://www.w3.org/Graphics/SVG/1.1/DTD/svg11.dtd"><svg t="1533285112703" class="icon" style="" viewBox="0 0 1024 1024" version="1.1" xmlns="http://www.w3.org/2000/svg" p-id="14424" xmlns:xlink="http://www.w3.org/1999/xlink" width="200" height="200"><defs><style type="text/css"></style></defs><path d="M298.427733 422.2976h82.602667v54.237867h-82.602667zM709.2224 544.5632h90.248533v44.7488h-90.248533zM592.7936 544.5632h90.248533v44.7488h-90.248533zM298.427733 580.949333h82.602667v59.323734h-82.602667zM709.2224 610.065067h90.248533v44.373333h-90.248533z" fill="#656BBA" p-id="14425"></path><path d="M512 0C229.239467 0 0 229.239467 0 512s229.239467 512 512 512 512-229.239467 512-512S794.760533 0 512 0z m-122.9824 332.0832c9.454933 11.6736 20.241067 26.2144 32.3584 43.656533l-25.088 16.725334a1277.44 1277.44 0 0 0-30.9248-45.4656l23.6544-14.916267z m-220.842667 22.186667a2315.264 2315.264 0 0 1 61.1328 74.615466c-1.706667 1.194667-10.069333 8.362667-25.088 21.469867a1680.7936 1680.7936 0 0 0-58.9824-77.5168l22.9376-18.568533z m8.738134 312.149333l-29.832534-13.448533a1553.749333 1553.749333 0 0 0 53.1456-149.1968c9.4208 5.085867 18.670933 9.250133 27.648 12.3904a21727.505067 21727.505067 0 0 0-50.961066 150.254933z m325.632-1.774933h-204.117334v29.115733h-28.398933v-231.185067c-9.557333 15.2576-19.490133 29.764267-29.832533 43.451734a121.617067 121.617067 0 0 0-20.718934-22.186667c34.9184-42.7008 63.214933-92.535467 84.753067-149.538133l26.9312 9.454933c-7.850667 18.5344-16.145067 36.352-24.746667 53.4528h191.3856v25.088h-88.439466v54.237867h78.609066v25.088h-78.609066v54.203733h79.325866v25.088h-79.325866v59.323733h93.149866v24.405334z m323.106133 27.613866h-26.2144v-16.008533h-206.677333v16.008533H566.613333v-169.540266h259.072v169.540266z m32.733867-173.8752c-62.702933-7.509333-115.268267-20.445867-157.730134-38.741333-48.128 20.616533-106.2912 36.795733-174.455466 48.571733a307.029333 307.029333 0 0 0-15.2576-26.2144c60.142933-8.738133 112.5376-21.674667 157.149866-38.775466-28.603733-16.5888-51.0976-36.352-67.515733-59.2896a555.1104 555.1104 0 0 1-61.303467 59.869866 251.835733 251.835733 0 0 0-20.002133-20.036266c43.383467-34.884267 76.526933-72.772267 99.328-113.493334l27.272533 11.639467c-5.3248 8.874667-11.093333 17.6128-17.271466 26.2144h197.0176v24.3712c-22.4256 27.067733-52.6336 50.619733-90.589867 70.7584 40.1408 13.482667 88.029867 21.674667 143.701333 24.576-7.953067 11.3664-14.7456 21.572267-20.343466 30.549333z" fill="#656BBA" p-id="14426"></path><path d="M623.547733 392.0896c19.524267 23.313067 45.1584 42.461867 76.970667 57.514667 34.2016-16.247467 62.941867-35.396267 86.2208-57.514667h-163.191467zM298.427733 501.623467h82.602667v54.203733h-82.602667zM592.7936 610.065067h90.248533v44.373333h-90.248533z" fill="#656BBA" p-id="14427"></path></svg>