<?xml version="1.0" standalone="no"?><!DOCTYPE svg PUBLIC "-//W3C//DTD SVG 1.1//EN" "http://www.w3.org/Graphics/SVG/1.1/DTD/svg11.dtd"><svg class="icon" width="200px" height="200.00px" viewBox="0 0 1024 1024" version="1.1" xmlns="http://www.w3.org/2000/svg"><path d="M872.574398 1023.77285c-132.322641 0.511886-264.645282 0-396.71198 0h-318.6493C45.365934 1023.77285 0.319929 973.735952 0.319929 850.691253V163.099812c0-108.775865 47.669423-162.076039 147.167347-162.267997 264.645282-0.703844 460.697783-0.76783 725.471036 0 101.865399 0.383915 151.006495 55.667649 151.134467 166.363089v691.046674C1023.77285 970.984563 976.295384 1023.069007 872.574398 1023.77285z m95.466818-862.272683c0-73.583674-23.866705-100.265754-90.219983-100.393725H146.143574C79.662325 61.106442 55.859606 87.916494 55.79562 161.30821v701.732303c0 73.519688 23.866705 100.137782 90.283969 100.329739h731.35773c66.545235 0 90.283968-26.746066 90.347954-100.201768V161.180238z m-408.741311 597.179501a17.212181 17.212181 0 0 1-28.537668 3.19929 22.970903 22.970903 0 0 1 3.391248-33.656532c58.738967-67.377051 117.413949-134.818087 176.728788-201.491294a18.427911 18.427911 0 0 0 0-30.457243c-58.099109-64.94559-115.174446-130.914953-172.761669-196.564387a86.828735 86.828735 0 0 1-10.8136-13.756948 20.411471 20.411471 0 0 1 2.623418-24.634534 14.396806 14.396806 0 0 1 20.155528-4.159077 62.51413 62.51413 0 0 1 12.79716 11.453459q95.978705 109.607681 191.95741 219.471304A36.919808 36.919808 0 0 1 767.829638 511.886425a26.68208 26.68208 0 0 1-7.93424 17.468124z m-268.740373-0.639858a17.276167 17.276167 0 0 1-28.537668 3.19929 23.034889 23.034889 0 0 1 3.391247-33.720518c58.738967-67.313065 117.413949-134.754101 176.728789-201.427309a18.427911 18.427911 0 0 0 0-30.457242c-58.099109-64.94559-115.174446-130.914953-172.761669-196.564387a98.474151 98.474151 0 0 1-10.8136-13.756948 20.603429 20.603429 0 0 1 2.687403-24.69852A14.268834 14.268834 0 0 1 281.537534 255.943213a60.658541 60.658541 0 0 1 12.79716 11.453458q95.978705 109.607681 191.95741 219.471305a36.919808 36.919808 0 0 1 12.413246 23.994676 26.810052 26.810052 0 0 1-7.93424 17.468125z" fill="#33ad00" /></svg>