<?xml version="1.0" standalone="no"?><!DOCTYPE svg PUBLIC "-//W3C//DTD SVG 1.1//EN" "http://www.w3.org/Graphics/SVG/1.1/DTD/svg11.dtd"><svg t="1529125189145" class="icon" style="" viewBox="0 0 1024 1024" version="1.1" xmlns="http://www.w3.org/2000/svg" p-id="4184" xmlns:xlink="http://www.w3.org/1999/xlink" width="200" height="200"><defs><style type="text/css"></style></defs><path d="M860.85 166.2L550.36 15.31a72 72 0 0 0-63 0L177.81 166.18a72 72 0 0 0-40.46 64.72l-1 439.61a72 72 0 0 0 25.83 55.4l310.49 259.5a72 72 0 0 0 92.35 0l310.54-259.55a72 72 0 0 0 25.83-55.24V231a72 72 0 0 0-40.54-64.8z m-31.58 471.07a61.39 61.39 0 0 1-21 46.43l-252 218.11a56.89 56.89 0 0 1-74.94 0L229.45 683.75a61.4 61.4 0 0 1-21-46.56l0.79-369.43c0-23.14 12.75-44.26 32.83-54.39L493.29 86.61a56.62 56.62 0 0 1 51.13 0l252 126.8c20.12 10.12 32.89 31.26 32.89 54.42z" fill="#0e932e" p-id="4185"></path><path d="M550.41 275.02l0 365.98-63.07 0 0-365.98 63.07 0Z" fill="#0e932e" p-id="4186"></path></svg>