<?xml version="1.0" standalone="no"?><!DOCTYPE svg PUBLIC "-//W3C//DTD SVG 1.1//EN" "http://www.w3.org/Graphics/SVG/1.1/DTD/svg11.dtd"><svg class="icon" width="200px" height="200.00px" viewBox="0 0 1024 1024" version="1.1" xmlns="http://www.w3.org/2000/svg"><path d="M275.034519 82.870406c-110.972441 0-200.949708 89.976244-200.949708 200.949708 0 110.970394 89.976244 200.921056 200.949708 200.921056l200.947661 0L475.98218 283.819091C475.98218 172.84665 386.005936 82.870406 275.034519 82.870406L275.034519 82.870406zM414.12639 422.911986 275.034519 422.911986c-76.686567 0-139.093918-62.406329-139.093918-139.091872 0-76.715219 62.406329-139.120524 139.093918-139.120524 76.713172 0 139.091872 62.405305 139.091872 139.120524L414.12639 422.911986 414.12639 422.911986zM939.682128 283.819091c0-110.972441-89.979314-200.949708-200.949708-200.949708S537.781688 172.84665 537.781688 283.819091l0 200.921056 200.950731 0C849.703837 484.740146 939.682128 394.790508 939.682128 283.819091L939.682128 283.819091zM599.640548 283.819091c0-76.715219 62.377676-139.120524 139.091872-139.120524 76.686567 0 139.093918 62.405305 139.093918 139.120524 0 76.685543-62.406329 139.091872-139.093918 139.091872L599.640548 422.910962 599.640548 283.819091 599.640548 283.819091zM74.08481 747.489362c0 111.00007 89.976244 200.949708 200.949708 200.949708 110.971417 0 200.947661-89.949638 200.947661-200.949708L475.98218 546.567283 275.034519 546.567283C164.062078 546.567283 74.08481 636.518968 74.08481 747.489362L74.08481 747.489362zM414.12639 747.489362c0 76.717266-62.378699 139.120524-139.091872 139.120524-76.686567 0-139.093918-62.403259-139.093918-139.120524 0-76.68452 62.406329-139.092895 139.093918-139.092895l139.091872 0L414.12639 747.489362 414.12639 747.489362zM738.732419 546.567283 537.781688 546.567283l0 200.922079c0 110.971417 89.980337 200.949708 200.950731 200.949708s200.949708-89.978291 200.949708-200.949708C939.682128 636.518968 849.703837 546.567283 738.732419 546.567283L738.732419 546.567283zM738.732419 886.609886c-76.714196 0-139.091872-62.403259-139.091872-139.120524L599.640548 608.396467l139.091872 0c76.686567 0 139.093918 62.407352 139.093918 139.092895C877.826338 824.206628 815.420009 886.609886 738.732419 886.609886L738.732419 886.609886zM738.732419 886.609886" fill="#7cba59" /></svg>