<?xml version="1.0" standalone="no"?><!DOCTYPE svg PUBLIC "-//W3C//DTD SVG 1.1//EN" "http://www.w3.org/Graphics/SVG/1.1/DTD/svg11.dtd"><svg t="1535077897180" class="icon" style="" viewBox="0 0 1024 1024" version="1.1" xmlns="http://www.w3.org/2000/svg" p-id="6283" xmlns:xlink="http://www.w3.org/1999/xlink" width="500" height="500"><defs><style type="text/css"></style></defs><path d="M640 96c-115.2 0-192 25.6-230.4 76.8C377.6 204.8 384 243.2 384 256 217.6 268.8 128 339.2 128 416 128 512 192 512 192 512l448 0c0 0 64 0 64-96C704 339.2 614.4 268.8 448 256L448 249.6c0 0-6.4-19.2 12.8-38.4C473.6 192 518.4 160 640 160c57.6 0 192 12.8 192 160l0 544c0 19.2 12.8 32 32 32s32-12.8 32-32L896 320C896 185.6 793.6 96 640 96zM640 416C640 435.2 633.6 448 633.6 448L198.4 448C198.4 448 192 435.2 192 416 192 377.6 268.8 320 416 320S640 377.6 640 416z" p-id="6284" fill="#8992c8"></path><path d="M224 576C204.8 576 192 601.6 192 640l0 128c0 38.4 12.8 64 32 64S256 806.4 256 768l0-128C256 601.6 243.2 576 224 576z" p-id="6285" fill="#8992c8"></path><path d="M416 576C396.8 576 384 601.6 384 640l0 128c0 38.4 12.8 64 32 64S448 806.4 448 768l0-128C448 601.6 435.2 576 416 576z" p-id="6286" fill="#8992c8"></path><path d="M608 576C588.8 576 576 601.6 576 640l0 128c0 38.4 12.8 64 32 64s32-25.6 32-64l0-128C640 601.6 627.2 576 608 576z" p-id="6287" fill="#8992c8"></path></svg>