<?xml version="1.0" standalone="no"?><!DOCTYPE svg PUBLIC "-//W3C//DTD SVG 1.1//EN" "http://www.w3.org/Graphics/SVG/1.1/DTD/svg11.dtd"><svg class="icon" width="200px" height="200.00px" viewBox="0 0 1024 1024" version="1.1" xmlns="http://www.w3.org/2000/svg"><path d="M798.194872 420.102564l-84.020513 525.128205H307.2l13.128205 76.14359h501.497436L918.974359 420.102564z" fill="#d3efcb" /><path d="M112.902564 315.076923l99.774359 630.153846h501.497436L813.948718 315.076923H112.902564z m330.830769 441.107692l-5.251282 5.251282-13.128205-13.128205-128.65641-128.65641 55.138461-55.138461 86.646154 86.646153 165.415385-168.041025 55.138461 57.764102-215.302564 215.302564z" fill="#8cd579" /><path d="M577.641026 26.25641l-78.769231-26.25641c-15.753846 57.764103-36.758974 94.523077-52.512821 105.025641-39.384615 36.758974-52.512821 86.646154-52.51282 157.538462h78.769231c0-52.512821 10.502564-84.020513 26.25641-105.025641 28.882051-18.379487 55.138462-65.641026 78.769231-131.282052zM577.641026 262.564103h78.76923c0-23.630769 7.876923-49.887179 26.256411-78.769231 15.753846-23.630769 26.25641-63.015385 26.25641-105.025641h-78.769231c0 26.25641-5.251282 47.261538-26.25641 78.769231-15.753846 10.502564-26.25641 49.887179-26.25641 105.025641z" fill="#d5eccf" /></svg>