<?xml version="1.0" standalone="no"?><!DOCTYPE svg PUBLIC "-//W3C//DTD SVG 1.1//EN" "http://www.w3.org/Graphics/SVG/1.1/DTD/svg11.dtd"><svg t="1535092711638" class="icon" style="" viewBox="0 0 1024 1024" version="1.1" xmlns="http://www.w3.org/2000/svg" p-id="8190" xmlns:xlink="http://www.w3.org/1999/xlink" width="500" height="500"><defs><style type="text/css"></style></defs><path d="M828.426924 239.111066 512.446499 239.111066c0-23.94044-8.375108-44.287212-25.132549-61.043931-16.756718-16.755996-37.102769-25.132549-61.038151-25.132549l-57.455321 0c-23.936105 0-44.281433 8.37583-61.038873 25.132549-16.756718 16.756718-25.132549 37.103491-25.132549 61.043931L196.472576 239.111066c-23.94044 0-44.287212 8.376553-61.044653 25.133271-16.755996 16.755996-25.132549 37.102769-25.132549 61.044653l0 459.600666c0 23.941162 8.37583 44.287212 25.132549 61.043208 16.757441 16.755996 37.102769 25.132549 61.044653 25.132549l631.953625 0c23.936827 0 44.282155-8.376553 61.038873-25.132549s25.137606-37.102769 25.137606-61.043208L914.602681 325.288268c0-23.941162-8.380888-44.288657-25.137606-61.044653S852.363751 239.111066 828.426924 239.111066L828.426924 239.111066zM512.446499 727.440115c-47.279045 0-87.820145-16.909164-121.622578-50.730381-33.797375-33.816883-50.709429-74.359428-50.726046-121.624023-0.021675-47.258093 16.888934-87.802805 50.726046-121.621855 33.84217-33.81616 74.381825-50.726046 121.622578-50.726046 47.247255 0 87.785466 16.909886 121.6233 50.726046 33.837835 33.819773 50.747721 74.363763 50.731104 121.621855-0.01734 47.264595-16.928671 87.80714-50.731104 121.624023C600.272424 710.529506 559.732769 727.440115 512.446499 727.440115L512.446499 727.440115zM785.340491 440.187351c-11.969497 0-22.147941-4.194779-30.537499-12.579279-8.388835-8.389558-12.580002-18.566557-12.580002-30.537499s4.191166-22.147941 12.580002-30.533886c8.388835-8.388835 18.566557-12.583614 30.537499-12.583614 11.966607 0 22.142884 4.195501 30.533164 12.583614 8.388835 8.3845 12.584337 18.562222 12.584337 30.533886 0 11.97022-4.195501 22.147219-12.584337 30.537499C807.484097 435.992572 797.306375 440.187351 785.340491 440.187351L785.340491 440.187351z" p-id="8191" fill="#1296db"></path></svg>