<?xml version="1.0" standalone="no"?><!DOCTYPE svg PUBLIC "-//W3C//DTD SVG 1.1//EN" "http://www.w3.org/Graphics/SVG/1.1/DTD/svg11.dtd"><svg t="1529124970367" class="icon" style="" viewBox="0 0 1024 1024" version="1.1" xmlns="http://www.w3.org/2000/svg" p-id="2022" xmlns:xlink="http://www.w3.org/1999/xlink" width="200" height="200"><defs><style type="text/css"></style></defs><path d="M618.666667 256a21.333333 21.333333 0 0 1-21.333334 21.333333h-170.666666a21.333333 21.333333 0 0 1-21.333334-21.333333V192a21.333333 21.333333 0 0 1 21.333334-21.333333h170.666666a21.333333 21.333333 0 0 1 21.333334 21.333333v64z" fill="#FFEB3B" p-id="2023"></path><path d="M405.333333 213.333333h42.666667v42.666667h-42.666667zM448 170.666667h42.666667v42.666666h-42.666667zM490.666667 213.333333h42.666666v42.666667h-42.666666zM533.333333 170.666667h42.666667v42.666666h-42.666667zM576 213.333333h42.666667v42.666667h-42.666667z" fill="#455A64" p-id="2024"></path><path d="M234.666667 682.666667a21.333333 21.333333 0 0 0-21.333334-21.333334H128a21.333333 21.333333 0 0 0-21.333333 21.333334v128a21.333333 21.333333 0 0 0 21.333333 21.333333h85.333333a21.333333 21.333333 0 0 0 21.333334-21.333333v-128zM917.333333 682.666667a21.333333 21.333333 0 0 0-21.333333-21.333334h-85.333333a21.333333 21.333333 0 0 0-21.333334 21.333334v128a21.333333 21.333333 0 0 0 21.333334 21.333333h85.333333a21.333333 21.333333 0 0 0 21.333333-21.333333v-128z" fill="#795548" p-id="2025"></path><path d="M938.666667 469.333333h-82.965334S774.016 309.12 768 298.666667c-11.946667-20.757333-21.333333-42.666667-64-42.666667H320c-42.666667 0-50.325333 21.333333-64 42.666667-7.594667 11.882667-88.106667 170.666667-88.106667 170.666666H85.333333a21.333333 21.333333 0 0 0-21.333333 21.333334v42.666666a21.333333 21.333333 0 0 0 21.333333 21.333334h853.333334a21.333333 21.333333 0 0 0 21.333333-21.333334v-42.666666a21.333333 21.333333 0 0 0-21.333333-21.333334z" fill="#FFC107" p-id="2026"></path><path d="M874.666667 490.666667s-192-21.333333-362.666667-21.333334-362.666667 21.333333-362.666667 21.333334c-23.552 0-42.666667 40.448-42.666666 64v170.666666a21.333333 21.333333 0 0 0 21.333333 21.333334h768a21.333333 21.333333 0 0 0 21.333333-21.333334v-170.666666c0-23.552-19.114667-64-42.666666-64z" fill="#FFC107" p-id="2027"></path><path d="M512 469.333333c112.448 0 233.813333 9.237333 303.765333 15.552-31.104-60.970667-80.042667-156.586667-84.8-165.013333l-2.432-4.288C718.976 298.666667 718.976 298.666667 704 298.666667H320c-13.952 0-13.952 0-23.168 15.125333-1.6 2.602667-3.2 5.248-4.885333 7.893333-5.44 9.045333-47.082667 90.218667-84.096 163.242667C277.717333 478.613333 399.338667 469.333333 512 469.333333z" fill="#546E7A" p-id="2028"></path><path d="M874.666667 640a21.333333 21.333333 0 0 1-21.333334 21.333333H170.666667a21.333333 21.333333 0 0 1-21.333334-21.333333v-64a21.333333 21.333333 0 0 1 21.333334-21.333333h682.666666a21.333333 21.333333 0 0 1 21.333334 21.333333v64z" fill="#37474F" p-id="2029"></path><path d="M202.666667 608m-32 0a32 32 0 1 0 64 0 32 32 0 1 0-64 0Z" fill="#4DD0E1" p-id="2030"></path><path d="M821.333333 608m-32 0a32 32 0 1 0 64 0 32 32 0 1 0-64 0Z" fill="#4DD0E1" p-id="2031"></path></svg>