<?xml version="1.0" standalone="no"?><!DOCTYPE svg PUBLIC "-//W3C//DTD SVG 1.1//EN" "http://www.w3.org/Graphics/SVG/1.1/DTD/svg11.dtd"><svg t="1529124539865" class="icon" style="" viewBox="0 0 1821 1024" version="1.1" xmlns="http://www.w3.org/2000/svg" p-id="6021" xmlns:xlink="http://www.w3.org/1999/xlink" width="355.6640625" height="200"><defs><style type="text/css"></style></defs><path d="M1043.809331 887.535719h-113.806549V582.238968c40.136553-17.608294 68.232141-57.615375 68.23214-104.355038 0-62.794285-50.882792-113.80655-113.806549-113.80655-62.794285 0-113.80655 50.882792-113.80655 113.80655 0 46.610191 28.095587 86.746744 68.232141 104.355038V887.535719H725.047414c-37.676571 0-68.232141 30.55557-68.23214 68.23214s30.55557 68.232141 68.23214 68.232141h318.632444c37.676571 0 68.232141-30.55557 68.232141-68.232141 0.129473-37.676571-30.426097-68.232141-68.102668-68.23214zM952.789986 73.928942v-5.696801c0-37.676571-30.55557-68.232141-68.232141-68.232141h-22.787204c-37.676571 0-68.232141 30.55557-68.232141 68.232141v9.969402C611.111392 117.949678 474.517638 274.611708 474.517638 461.181945c0 128.695916 65.901631 249.493994 176.341889 322.905045 12.429384 8.286256 26.671387 12.170439 40.783917 12.170438 22.269313 0 44.279681-9.839929 58.133266-28.354533 22.528259-30.296624 14.889367-71.98685-17.090403-93.349854-72.763687-48.422809-116.266532-128.178025-116.266532-213.371096 0-142.678973 120.150714-258.816032 267.749652-258.816033 147.598938 0 267.749652 116.137059 267.749653 258.816033 0 83.768871-42.33759 162.876723-113.288659 211.429005-31.720824 21.751422-38.841826 63.571122-15.795676 93.479327s67.325831 36.640789 99.176129 14.889366c107.591857-73.669996 171.810343-193.173347 171.810342-319.797698 0.258946-194.209129-147.598938-355.920597-341.03123-387.253003z" fill="#d81e06" p-id="6022"></path></svg>