<?xml version="1.0" standalone="no"?><!DOCTYPE svg PUBLIC "-//W3C//DTD SVG 1.1//EN" "http://www.w3.org/Graphics/SVG/1.1/DTD/svg11.dtd"><svg class="icon" width="200px" height="200.00px" viewBox="0 0 1024 1024" version="1.1" xmlns="http://www.w3.org/2000/svg"><path d="M346.182 669.785c-10.62 0-19.213-8.593-19.213-19.213L326.969 489.402c0-10.62 8.593-19.213 19.213-19.213s19.213 8.593 19.213 19.213l0 161.17C365.395 661.193 356.802 669.785 346.182 669.785zM507.858 730.743c-60.472 0-142.425-30.244-169.124-56.231-7.805-7.599-11.765-15.648-11.765-23.941 0-10.62 8.593-19.213 19.213-19.213 9.212 0 16.904 6.49 18.782 15.139 12.081 14.184 89.251 47.413 146.534 45.762 59.159-1.632 134.94-31.803 147.641-45.968 1.932-8.555 9.589-14.934 18.726-14.934 10.62 0 19.213 8.593 19.213 19.213 0 43.34-129.479 78.596-184.529 80.114C511.011 730.725 509.434 730.743 507.858 730.743zM512.023 594.659c-3.058 0-6.116-0.731-8.911-2.195L242.463 456.024c-6.323-3.302-10.301-9.87-10.301-17.017 0-7.151 3.959-13.697 10.301-17.018l260.648-136.591c5.591-2.927 12.232-2.927 17.824 0l260.629 136.591c6.322 3.32 10.301 9.868 10.301 16.999 0 7.128-3.941 13.697-10.263 17.018L520.916 592.464C518.139 593.928 515.081 594.659 512.023 594.659zM292.785 439.007l219.238 114.75 219.314-114.712-219.314-114.94L292.785 439.007zM677.865 669.785c-10.62 0-19.213-8.593-19.213-19.213L658.652 489.402c0-10.62 8.593-19.213 19.213-19.213 10.62 0 19.213 8.593 19.213 19.213l0 161.17C697.077 661.193 688.485 669.785 677.865 669.785zM772.652 693.201c-10.62 0-19.213-8.593-19.213-19.213L753.439 439.007c0-10.62 8.593-19.213 19.213-19.213 10.62 0 19.213 8.593 19.213 19.213l0 234.981C791.866 684.608 783.273 693.201 772.652 693.201z" fill="#04be02" /><path d="M511.998 991.656c-64.743 0-127.564-12.686-186.711-37.702-57.121-24.16-108.415-58.741-152.459-102.787-44.044-44.044-78.627-95.34-102.786-152.459C45.025 639.56 32.341 576.743 32.341 511.999c0-64.743 12.685-127.564 37.702-186.711 24.159-57.121 58.741-108.415 102.786-152.459s95.339-78.627 152.459-102.787c59.148-25.018 121.967-37.702 186.711-37.702 64.745 0 127.564 12.685 186.711 37.702 57.12 24.16 108.415 58.742 152.459 102.787s78.627 95.339 102.787 152.459c25.017 59.148 37.702 121.967 37.702 186.711 0 64.745-12.686 127.564-37.702 186.711-24.16 57.12-58.742 108.415-102.787 152.459-44.044 44.044-95.34 78.627-152.459 102.787C639.559 978.972 576.742 991.656 511.998 991.656zM511.998 74.377c-241.305 0-437.622 196.318-437.622 437.622s196.317 437.622 437.622 437.622c241.306 0 437.622-196.318 437.622-437.622S753.302 74.377 511.998 74.377z" fill="#04be02" /></svg>