<?xml version="1.0" standalone="no"?><!DOCTYPE svg PUBLIC "-//W3C//DTD SVG 1.1//EN" "http://www.w3.org/Graphics/SVG/1.1/DTD/svg11.dtd"><svg t="1563763560894" class="icon" viewBox="0 0 1024 1024" version="1.1" xmlns="http://www.w3.org/2000/svg" p-id="1997" xmlns:xlink="http://www.w3.org/1999/xlink" width="200" height="200"><defs><style type="text/css"></style></defs><path d="M841.81932875 32H181.07943781a82.59248625 82.59248625 0 0 0-82.59248625 82.59248625v794.8150275a82.59248625 82.59248625 0 0 0 82.59248625 82.59248625h660.73989094a82.59248625 82.59248625 0 0 0 82.59248625-82.59248625V114.59248625a82.59248625 82.59248625 0 0 0-82.59248625-82.59248625zM181.07943781 87.06165781h660.73989094a27.53082844 27.53082844 0 0 1 27.53082937 27.53082844v116.18009718H153.54860938V114.59248625a27.53082844 27.53082844 0 0 1 27.53082843-27.53082844z m660.73989094 849.87668438H181.07943781a27.53082844 27.53082844 0 0 1-27.53082844-27.53082844V285.83424125h715.80154875v623.5732725a27.53082844 27.53082844 0 0 1-27.53082937 27.53082844z" fill="#808080" p-id="1998"></path><path d="M777.39719001 158.09119625m-41.29624407 0a41.29624313 41.29624313 0 1 0 82.59248718 0 41.29624313 41.29624313 0 1 0-82.59248718 0Z" fill="#808080" p-id="1999"></path><path d="M655.16030937 158.09119625m-41.29624312 0a41.29624313 41.29624313 0 1 0 82.59248625 0 41.29624313 41.29624313 0 1 0-82.59248625 0Z" fill="#808080" p-id="2000"></path><path d="M511.44938375 359.89217094a251.63177531 251.63177531 0 1 0 251.35646626 251.63177531A251.90708345 251.90708345 0 0 0 511.44938375 359.89217094z m0 447.92658468a196.5701175 196.5701175 0 1 1 196.29480937-196.29480937A196.5701175 196.5701175 0 0 1 511.44938375 807.81875562z" fill="#808080" p-id="2001"></path></svg>