<?xml version="1.0" standalone="no"?><!DOCTYPE svg PUBLIC "-//W3C//DTD SVG 1.1//EN" "http://www.w3.org/Graphics/SVG/1.1/DTD/svg11.dtd"><svg t="1555145339759" class="icon" style="" viewBox="0 0 1024 1024" version="1.1" xmlns="http://www.w3.org/2000/svg" p-id="16707" xmlns:xlink="http://www.w3.org/1999/xlink" width="200" height="200"><defs><style type="text/css"></style></defs><path d="M971.10812445 359.65648592v-53.03182222c0-58.43626667-47.43964445-105.87591111-105.87591112-105.87591111H158.76778667c-58.43626667 0-105.87591111 47.43964445-105.87591112 105.87704889v53.03182222h918.2162489z" fill="#0FA1ED" p-id="16708"></path><path d="M52.89187555 423.74030222v317.90762667c0 58.43740445 47.34634667 105.87704889 105.87591112 105.87704889h706.46442666c58.43626667 0 105.87591111-47.43964445 105.87591112-105.87704889V423.74030222H52.89187555z m829.95427556 300.38471111c0 9.69386667-7.82791111 17.42848-17.42848 17.42848h-106.3424c-9.69272889 0-17.42848-7.82791111-17.42848-17.42848V653.1072c0-9.69272889 7.82904889-17.42848 17.42848-17.42848h106.3424c9.69386667 0 17.42848 7.82904889 17.42848 17.42848v71.02008889z" fill="#4EB7EE" p-id="16709"></path></svg>