<?xml version="1.0" standalone="no"?><!DOCTYPE svg PUBLIC "-//W3C//DTD SVG 1.1//EN" "http://www.w3.org/Graphics/SVG/1.1/DTD/svg11.dtd"><svg t="1555145262577" class="icon" style="" viewBox="0 0 1024 1024" version="1.1" xmlns="http://www.w3.org/2000/svg" p-id="14560" xmlns:xlink="http://www.w3.org/1999/xlink" width="200" height="200"><defs><style type="text/css"></style></defs><path d="M563.38386489 723.13110124a232.80935822 232.80935822 0 0 1 102.60631703-192.91856593c3.39088118-12.95185541 6.94196148-27.39526163 10.94087111-44.11179615 14.38151111 16.57818075 35.17098667 17.38645808 54.17278579-38.39924147 6.29631052-18.4932883 14.84026311-56.17284741 14.8402631-56.17284742 5.26715259-28.07974875-13.57323378-50.8437997-42.10081185-50.8437997h-12.88996029c7.8109203-166.67625245-50.00032711-245.79883615-198.35926756-245.79883616s-206.15683792 79.10923378-198.35805393 245.79883616h-12.877824c-28.56398697 0-47.36796445 22.76405097-42.10081184 50.8437997 0 0 8.54395259 37.66742282 14.8402631 56.17163378 19.00179911 55.78691318 39.74151585 54.97984948 54.17278578 38.39924148 24.99955675 104.54569718 33.38209659 127.67019615 84.97106489 165.89588859v78.38833778C221.85756445 752.44268405 95.18254459 830.24847961 95.18254459 922.88240197h581.93540741c-67.97054103-40.75975111-113.73408711-114.92708503-113.73408711-199.74887348z" fill="#00AEE1" p-id="14561"></path><path d="M796.24176829 541.97382005a181.10752237 181.10752237 0 1 0 181.108736 181.15849481 181.10752237 181.10752237 0 0 0-181.108736-181.15849481zM923.14130962 678.85789235L767.06975289 834.94158539l-39.94055111-39.98909631 0.09951762-0.12500384-60.00913066-60.02126697 39.98909629-39.9890963 60.0103443 60.00791705 115.93197037-115.9817292z" fill="#00AEE1" p-id="14562"></path></svg>