<?xml version="1.0" standalone="no"?><!DOCTYPE svg PUBLIC "-//W3C//DTD SVG 1.1//EN" "http://www.w3.org/Graphics/SVG/1.1/DTD/svg11.dtd"><svg t="1555145281889" class="icon" style="" viewBox="0 0 1024 1024" version="1.1" xmlns="http://www.w3.org/2000/svg" p-id="15314" xmlns:xlink="http://www.w3.org/1999/xlink" width="200" height="200"><defs><style type="text/css"></style></defs><path d="M534 911.06l2-255.8c0.4-50.2 41.79-90.94 92-90.55l110.65 255.8 114.67-254c50.2 0.4 90.94 41.79 90.55 92l-2 255.8z" fill="#FF4C00" p-id="15315"></path><path d="M941.86 930.08h-0.12l-407.85-3.22a15.8 15.8 0 0 1-15.69-15.93l2-255.8A107.2 107.2 0 0 1 627.29 548.9h0.85a15.82 15.82 0 0 1 14.39 9.53L739 781.4 838.93 560c2.56-5.7 8.35-8.78 14.53-9.3a107.32 107.32 0 0 1 106.23 107.9l-2 255.8a15.8 15.8 0 0 1-15.83 15.68z m-391.92-34.71l376.24 3 1.9-240A75.79 75.79 0 0 0 863.22 583L753.08 827c-2.56 5.7-7.92 9.72-14.53 9.3a15.82 15.82 0 0 1-14.39-9.53L617.88 581.1a75.59 75.59 0 0 0-66 74.28z" fill="#FF4C00" p-id="15316"></path><path d="M690.077 520.572l101.997 0.801-0.382 48.569a2.41 2.41 0 0 1-2.469 2.41l-97.137-0.763a2.41 2.41 0 0 1-2.39-2.429l0.38-48.588z" fill="#FF4C00" p-id="15317"></path><path d="M753.85 587.88h-0.45l-25.8-0.2a54 54 0 0 1-53.46-54.33l0.09-12.88a15.84 15.84 0 0 1 4.71-11.15 15.3 15.3 0 0 1 11.22-4.55l102 0.81a15.81 15.81 0 0 1 15.69 15.94l-0.11 12.89a53.9 53.9 0 0 1-53.86 53.46z m-47.92-51.36a22.31 22.31 0 0 0 21.92 19.55l25.8 0.2a21.67 21.67 0 0 0 15.81-6.4 22.23 22.23 0 0 0 6.44-12.79z" fill="#FF4C00" p-id="15318"></path><path d="M740.956 527.34a140.2 140.2 0 1 0 2.201-280.392 140.2 140.2 0 1 0-2.202 280.392z" fill="#FF4C00" p-id="15319"></path><path d="M742.12 543.18h-1.27a156 156 0 0 1 1.2-312h1.27c86 0.69 155.45 71.23 154.77 157.24a156 156 0 0 1-156 154.79z m0-280.42a124.4 124.4 0 0 0-1 248.79h1a124.38 124.38 0 0 0 124.36-123.4 124.54 124.54 0 0 0-123.4-125.38zM702.44 565.3l-33.02 86m0 15.81a15.83 15.83 0 0 1-14.76-21.48l33-86A15.81 15.81 0 0 1 717.2 571l-33 86a15.81 15.81 0 0 1-14.78 10.11z m109.5-101.21l31.9 87.18m0 15.81A15.82 15.82 0 0 1 796 658.51l-31.91-87.18a15.81 15.81 0 0 1 29.7-10.87l31.91 87.18a15.84 15.84 0 0 1-14.85 21.25zM79.1 907.47l2.33-295.53c0.49-61.78 51.44-111.94 113.22-111.44l136.18 314.83L472 502.69c61.78 0.49 111.93 51.43 111.44 113.21l-2.33 295.53z" fill="#FF4C00" p-id="15320"></path><path d="M581.08 927.23H581l-502-4a15.81 15.81 0 0 1-15.69-15.93l2.33-295.52C66.18 541.16 124 484 194.78 484.69a15.82 15.82 0 0 1 14.39 9.53l122 282 126.41-280a15.45 15.45 0 0 1 14.53-9.3c70.65 0.56 127.68 58.49 127.14 129.14l-2.33 295.52a15.81 15.81 0 0 1-15.81 15.69zM95 891.78l470.36 3.71 2.21-279.71a96.67 96.67 0 0 0-85.7-96.68L345.24 821.84c-2.56 5.7-8.58 9.69-14.53 9.3a15.8 15.8 0 0 1-14.39-9.53L184.46 516.75a96.68 96.68 0 0 0-87.23 95.32z" fill="#FF4C00" p-id="15321"></path><path d="M271.003 446.183l125.497 0.985-0.474 60.308a2.41 2.41 0 0 1-2.429 2.391l-120.676-0.947a2.41 2.41 0 0 1-2.391-2.43l0.473-60.307z" fill="#FF4C00" p-id="15322"></path><path d="M358.21 525.44h-0.43l-49.31-0.39A53.9 53.9 0 0 1 255 470.73l0.2-24.66a15.6 15.6 0 0 1 15.93-15.68l125.48 1a15.82 15.82 0 0 1 15.69 15.92l-0.19 24.69a54 54 0 0 1-53.9 53.44z m-71.53-63.31l-0.08 8.86a22.27 22.27 0 0 0 22.11 22.45l49.31 0.39c12.74 0.67 22.37-9.82 22.46-22.11l0.06-8.85z" fill="#FF4C00" p-id="15323"></path><path d="M333.943 455.11a172.56 172.56 0 1 0 3.614-345.1 172.56 172.56 0 1 0-3.614 345.1z" fill="#FF4C00" p-id="15324"></path><path d="M335.08 470.35h-1.53c-103.85-0.82-187.69-86-186.88-189.85 0.82-103.36 85.18-186.89 188.33-186.89h1.5a188.37 188.37 0 0 1 186.9 189.86l-15.81-0.12 15.81 0.12a188.37 188.37 0 0 1-188.32 186.88zM335 125.23c-85.85 0-156.05 69.5-156.73 155.51-0.68 86.43 69.09 157.3 155.51 158a156.75 156.75 0 1 0 2.47-313.49z m-48.75 375.99L245.6 607.07m0 15.82a15.83 15.83 0 0 1-14.76-21.48l40.65-105.85A15.81 15.81 0 0 1 301 506.89l-40.64 105.85a15.81 15.81 0 0 1-14.76 10.15z m134.77-120.92l39.27 107.29m0 15.81a15.83 15.83 0 0 1-14.85-10.38L365.51 507.4a15.81 15.81 0 0 1 29.7-10.87l39.28 107.29a15.84 15.84 0 0 1-14.85 21.25z" fill="#FF4C00" p-id="15325"></path><path d="M158.53 798.4h-0.12a15.81 15.81 0 0 1-15.69-15.93l0.86-109.81c0.08-8.74 7.87-15.45 15.93-15.69a15.81 15.81 0 0 1 15.69 15.93l-0.86 109.81a15.8 15.8 0 0 1-15.81 15.69z m-0.99 125.49h-0.12A15.81 15.81 0 0 1 141.73 908l0.49-62.74A15.8 15.8 0 0 1 158 829.53h0.12a15.81 15.81 0 0 1 15.69 15.93l-0.49 62.74a15.8 15.8 0 0 1-15.78 15.69z" fill="#FFFFFF" p-id="15326"></path></svg>