<?xml version="1.0" standalone="no"?><!DOCTYPE svg PUBLIC "-//W3C//DTD SVG 1.1//EN" "http://www.w3.org/Graphics/SVG/1.1/DTD/svg11.dtd"><svg t="1555145248512" class="icon" style="" viewBox="0 0 1024 1024" version="1.1" xmlns="http://www.w3.org/2000/svg" p-id="14174" xmlns:xlink="http://www.w3.org/1999/xlink" width="200" height="200"><defs><style type="text/css"></style></defs><path d="M792.00000031 504.00000031c-4.00000031-4.00000031-7.99999969-7.99999969-12-4.00000031l-248.00000062 124.00000031c-12 4.00000031-24 4.00000031-36 0l-247.99999969-124.00000031h-4.00000031c-4.00000031 0-7.99999969 4.00000031-7.99999969 7.99999969v232.00000031c0 7.99999969 4.00000031 16.00000031 12 19.99999969l259.99999969 112.00000031c4.00000031 4.00000031 12 4.00000031 16.00000031 0l259.99999969-112.00000031c7.99999969-4.00000031 12-12 12-19.99999969v-232.00000031c-4.00000031 0-4.00000031-4.00000031-3.99999938-3.99999938z" fill="#d81e06" p-id="14175"></path><path d="M963.99999969 366.66666697c0-4.00000031-4.00000031-7.99999969-7.99999969-8.00000062L528.00000031 162.66666697c-12-4.00000031-24-4.00000031-32.00000062 0L72.00000031 354.66666697c-12 7.99999969-16.00000031 19.99999969-12 27.99999938L72.00000031 394.66666635l423.99999938 196.00000031c12 4.00000031 24 4.00000031 32.00000062 0l343.99999969-160.00000031V674.66666666c0 24 16.00000031 40.00000031 40.00000031 40.00000031s40.00000031-16.00000031 39.99999938-40.00000031V394.66666635c12-7.99999969 16.00000031-19.99999969 12-27.99999938z" fill="#2c2c2c" p-id="14176"></path></svg>