<?xml version="1.0" standalone="no"?><!DOCTYPE svg PUBLIC "-//W3C//DTD SVG 1.1//EN" "http://www.w3.org/Graphics/SVG/1.1/DTD/svg11.dtd"><svg t="1555145310748" class="icon" style="" viewBox="0 0 1024 1024" version="1.1" xmlns="http://www.w3.org/2000/svg" p-id="16077" xmlns:xlink="http://www.w3.org/1999/xlink" width="200" height="200"><defs><style type="text/css"></style></defs><path d="M682.667 554.667A42.667 42.667 0 0 0 640 512h-21.333c-23.552 0-21.334 19.115-21.334 42.667L576 917.333A42.667 42.667 0 0 0 618.667 960h42.666A42.667 42.667 0 0 0 704 917.333l-21.333-362.666zM426.667 448h-85.334L320 917.333A42.667 42.667 0 0 0 362.667 960h42.666A42.667 42.667 0 0 0 448 917.333L426.667 448z" fill="#092b59" p-id="16078"></path><path d="M682.667 554.667h-85.334V64c42.667 0 192 85.333 85.334 490.667zM448 64v277.333h-42.667V64h-42.666v277.333H320V64h-42.667L256 362.667 341.333 448h85.334L512 362.667 490.667 64z" fill="#c7c0c0" p-id="16079"></path></svg>