<?xml version="1.0" standalone="no"?><!DOCTYPE svg PUBLIC "-//W3C//DTD SVG 1.1//EN" "http://www.w3.org/Graphics/SVG/1.1/DTD/svg11.dtd"><svg t="1555145259149" class="icon" style="" viewBox="0 0 1024 1024" version="1.1" xmlns="http://www.w3.org/2000/svg" p-id="14436" xmlns:xlink="http://www.w3.org/1999/xlink" width="200" height="200"><defs><style type="text/css"></style></defs><path d="M918.41422222 889.856H105.58577778c-11.83288889 0-21.39022222-9.55733333-21.39022223-21.39022222s9.55733333-21.39022222 21.39022223-21.39022223h14.22222222v-641.70666666c0-39.36711111 31.97155555-71.33866667 71.33866667-71.33866667h356.46577778c39.36711111 0 71.33866667 31.97155555 71.33866666 71.33866667v142.56355556h213.90222222c39.36711111 0 71.33866667 31.97155555 71.33866667 71.33866666v427.80444444h14.22222222c11.83288889 0 21.39022222 9.55733333 21.39022223 21.39022223s-9.55733333 21.39022222-21.39022223 21.39022222zM319.488 269.53955555h-99.78311111v99.78311112h99.78311111v-99.78311112z m0 203.20711112h-99.78311111v99.78311111h99.78311111v-99.78311111z m0 203.20711111h-99.78311111v99.78311111h99.78311111v-99.78311111z m199.68-406.41422223h-99.78311111v99.78311112h99.78311111v-99.78311112z m0 203.20711112h-99.78311111v99.78311111h99.78311111v-99.78311111z m0 203.20711111h-99.78311111v99.78311111h99.78311111v-99.78311111z m299.46311111-199.56622223h-99.78311111v99.78311112h99.78311111v-99.78311112z m0 199.56622223h-99.78311111v99.78311111h99.78311111v-99.78311111z" fill="#e0620d" p-id="14437"></path></svg>