<?xml version="1.0" standalone="no"?><!DOCTYPE svg PUBLIC "-//W3C//DTD SVG 1.1//EN" "http://www.w3.org/Graphics/SVG/1.1/DTD/svg11.dtd"><svg t="1555145322476" class="icon" style="" viewBox="0 0 1024 1024" version="1.1" xmlns="http://www.w3.org/2000/svg" p-id="16327" xmlns:xlink="http://www.w3.org/1999/xlink" width="200" height="200"><defs><style type="text/css"></style></defs><path d="M962 523.25c0 236.25-202.5 438.75-461.25 438.75C264.5 962 62 759.5 62 523.25 62 264.5 264.5 62 500.75 62 759.5 62 962 264.5 962 523.25" fill="#06c662" p-id="16328"></path><path d="M331.94666667 401.92c-15.36 0-30.72-12.8-30.72-28.16s12.8-28.16 30.72-28.16c15.36 0 30.72 12.8 30.72 28.16s-12.8 28.16-30.72 28.16m151.04-58.88c15.36 0 30.72 12.8 30.72 28.16s-12.8 28.16-30.72 28.16-30.72-12.8-30.72-28.16 12.8-28.16 30.72-28.16m128 64h10.24C605.86666667 320 516.26666667 256 408.74666667 256c-117.76 0-215.04 79.36-215.04 179.2 0 58.88 33.28 110.08 84.48 143.36h2.56l-20.48 64 76.8-38.4h2.56c20.48 5.12 43.52 10.24 66.56 10.24h15.36c-5.12-12.8-7.68-28.16-7.68-43.52 2.56-92.16 89.6-163.84 197.12-163.84" fill="#ffffff" p-id="16329"></path><path d="M545.28 541.01333333c0-12.8 10.24-25.6 25.6-25.6 12.8 0 25.6 10.24 25.6 25.6 0 12.8-10.24 25.6-25.6 25.6-15.36-2.56-25.6-12.8-25.6-25.6m125.44 0c0-12.8 10.24-25.6 25.6-25.6 12.8 0 25.6 10.24 25.6 25.6 0 12.8-10.24 25.6-25.6 25.6-12.8-2.56-25.6-12.8-25.6-25.6M442.88 584.53333333c0 84.48 81.92 151.04 181.76 151.04 20.48 0 38.4-2.56 56.32-7.68h2.56l66.56 33.28-17.92-53.76h2.56c43.52-28.16 71.68-71.68 71.68-120.32 0-84.48-81.92-151.04-181.76-151.04-99.84-2.56-181.76 64-181.76 148.48" fill="#ffffff" p-id="16330"></path></svg>