<?xml version="1.0" standalone="no"?><!DOCTYPE svg PUBLIC "-//W3C//DTD SVG 1.1//EN" "http://www.w3.org/Graphics/SVG/1.1/DTD/svg11.dtd"><svg t="1532998147534" class="icon" style="" viewBox="0 0 1024 1024" version="1.1" xmlns="http://www.w3.org/2000/svg" p-id="4594" xmlns:xlink="http://www.w3.org/1999/xlink" width="200" height="200"><defs><style type="text/css"></style></defs><path d="M89.70024 186.4C241.70024 32 391.30024 100 512.10024 209.6c120-109.6 269.6-178.4 422.4-23.2 119.2 120.8 120 315.2 0 436-200.8 184-305.6 279.2-360.8 329.6-34.4 31.2-86.4 31.2-120.8 0-55.2-49.6-160.8-145.6-363.2-329.6-120-120-119.2-314.4 0-436z" fill="#E2574C" p-id="4595"></path><path d="M512.10024 209.6V976c21.6 0 44-8 61.6-23.2 55.2-50.4 160-145.6 360.8-329.6 120-120.8 119.2-315.2 0-436C781.70024 31.2 632.10024 100 512.10024 209.6z" fill="#D65348" p-id="4596"></path><path d="M784.10024 168c72-8 112-48 120-120 8 72 48 112 120 120-72 8-112 48-120 120-8-72-48-112-120-120z" fill="#EFC75E" p-id="4597"></path><path d="M112.10024 395.2C112.10024 292 196.10024 208 299.30024 208c12 0 20.8 9.6 20.8 20.8 0 12-9.6 20.8-20.8 20.8-80 0-144.8 64.8-144.8 144.8 0 12-9.6 20.8-20.8 20.8-12 0.8-21.6-8.8-21.6-20z" fill="#E67067" p-id="4598"></path></svg>