<?xml version="1.0" standalone="no"?><!DOCTYPE svg PUBLIC "-//W3C//DTD SVG 1.1//EN" "http://www.w3.org/Graphics/SVG/1.1/DTD/svg11.dtd"><svg t="1555145223560" class="icon" style="" viewBox="0 0 1024 1024" version="1.1" xmlns="http://www.w3.org/2000/svg" p-id="13771" xmlns:xlink="http://www.w3.org/1999/xlink" width="200" height="200"><defs><style type="text/css"></style></defs><path d="M349.3 230.16666667c0-17.2-14-31.2-31.2-31.2H208.2c-17.2 0-31.2 14-31.2 31.2v369c0 17.2 14 31.2 31.2 31.2h109.9c17.2 0 31.2-14 31.2-31.2v-369z" fill="#FFB819" p-id="13772"></path><path d="M521.5 144.76666667c0-17.2-14-31.2-31.2-31.2H380.5c-17.2 0-31.2 14-31.2 31.2v369c0 17.2 14 31.2 31.2 31.2h109.9c17.2 0 31.2-14 31.2-31.2v-369z" fill="#0071CE" p-id="13773"></path><path d="M421.1 196.56666667h28.7v265.4h-28.7z" fill="#00B3E3" p-id="13774"></path><path d="M177 275.66666667h344.5v63.6H177z" fill="" p-id="13775"></path><path d="M635.6 135.66666667c-12.1-12.1-32-12.1-44.1 0l-60.8 60.8c-12.1 12.1-12.1 32 0 44.1l234 234.1c12.1 12.1 32 12.1 44.1 0l60.8-60.8c12.1-12.1 12.1-32 0-44.1L635.6 135.66666667z" fill="#00AD68" p-id="13776"></path><path d="M616.7 221.66666667m-14.3 0a14.3 14.3 0 1 0 28.6 0 14.3 14.3 0 1 0-28.6 0Z" fill="#FFFFFF" p-id="13777"></path><path d="M665.336 249.97366667L808.1 392.73666667l-20.294 20.294L645.043 270.26666667z" fill="#FFFFFF" p-id="13778"></path><path d="M775.6 275.66666667H565.7l63.6 63.5h209.9z" fill="" p-id="13779"></path><path d="M118.2 347.06666667h786.1v505.9H118.2z" fill="#D1D3D3" p-id="13780"></path><path d="M118.2 564.86666667H201v39.9h-82.8zM249 448.56666667h82.8v39.9H249zM504.3 435.96666667h82.8v39.9h-82.8zM376.5 371.96666667h82.8v39.9h-82.8zM821.4 492.86666667h82.8v39.9h-82.8zM807.7 737.86666667h82.8v39.9h-82.8zM633.6 775.16666667h82.8v39.9h-82.8zM486.5 662.46666667h82.8v39.9h-82.8zM152.4 771.26666667h82.8v39.9h-82.8z" fill="" p-id="13781"></path><path d="M118.2 347.06666667h786.1v74.7H118.2z" fill="" p-id="13782"></path><path d="M937.3 372.76666667c0 10.5-8.6 19.1-19.1 19.1h-814c-10.5 0-19.1-8.6-19.1-19.1v-45c0-10.5 8.6-19.1 19.1-19.1h813.9c10.5 0 19.1 8.6 19.1 19.1l0.1 45zM527.9 436.96666667h321.2v346.6H527.9z" fill="#333E48" p-id="13783"></path><path d="M664.6 580.66666667c0 5.7-4.7 10.4-10.4 10.4h-75.8c-5.7 0-10.4-4.7-10.4-10.4v-96c0-5.7 4.7-10.4 10.4-10.4h75.8c5.7 0 10.4 4.7 10.4 10.4v96z" fill="#00AD68" p-id="13784"></path><path d="M594.2 500.36666667h44.2v28.7h-44.2z" fill="#FFFFFF" p-id="13785"></path><path d="M809.1 580.66666667c0 5.7-4.7 10.4-10.4 10.4h-75.8c-5.7 0-10.4-4.7-10.4-10.4v-96c0-5.7 4.7-10.4 10.4-10.4h75.8c5.7 0 10.4 4.7 10.4 10.4v96z" fill="#0071CE" p-id="13786"></path><path d="M738.7 500.36666667h44.2v28.7h-44.2z" fill="#FFFFFF" p-id="13787"></path><path d="M664.6 735.86666667c0 5.7-4.7 10.4-10.4 10.4h-75.8c-5.7 0-10.4-4.7-10.4-10.4v-96.1c0-5.7 4.7-10.4 10.4-10.4h75.8c5.7 0 10.4 4.7 10.4 10.4v96.1z" fill="#00B3E3" p-id="13788"></path><path d="M594.2 655.56666667h44.2v28.7h-44.2z" fill="#FFFFFF" p-id="13789"></path><path d="M809.1 735.86666667c0 5.7-4.7 10.4-10.4 10.4h-75.8c-5.7 0-10.4-4.7-10.4-10.4v-96.1c0-5.7 4.7-10.4 10.4-10.4h75.8c5.7 0 10.4 4.7 10.4 10.4v96.1z" fill="#FFB819" p-id="13790"></path><path d="M738.7 655.56666667h44.2v28.7h-44.2z" fill="#FFFFFF" p-id="13791"></path><path d="M193.8 512.76666667h258.5v340.2H193.8z" fill="#D68231" p-id="13792"></path><path d="M239.4 561.66666667h167.3v120.2H239.4z" fill="#333E48" p-id="13793"></path><path d="M283.3 599.76666667h79.4v28.7h-79.4z" fill="#FFFFFF" p-id="13794"></path><path d="M253.7 737.96666667m-14.3 0a14.3 14.3 0 1 0 28.6 0 14.3 14.3 0 1 0-28.6 0Z" fill="#333E48" p-id="13795"></path><path d="M959.2 858.46666667c0 4.2-3.5 7.7-7.7 7.7H70.9c-4.2 0-7.7-3.5-7.7-7.7v-27.6c0-4.2 3.5-7.7 7.7-7.7h880.6c4.2 0 7.7 3.5 7.7 7.7v27.6z" fill="#A4A9AD" p-id="13796"></path></svg>