<?xml version="1.0" standalone="no"?><!DOCTYPE svg PUBLIC "-//W3C//DTD SVG 1.1//EN" "http://www.w3.org/Graphics/SVG/1.1/DTD/svg11.dtd"><svg t="1555145275841" class="icon" style="" viewBox="0 0 1024 1024" version="1.1" xmlns="http://www.w3.org/2000/svg" p-id="15065" xmlns:xlink="http://www.w3.org/1999/xlink" width="200" height="200"><defs><style type="text/css"></style></defs><path d="M929.80586667 95.36497778l-2.32853334-18.84586667-18.71253333-3.22666667c-1.1328-0.1952-28.1984-4.784-68.27413333-4.784-46.63893333 0-116.01493333 6.36053333-181.66186667 36.6592-50.29013333 23.21066667-94.66346667 77.6064-131.88906667 161.67573334-5.98826667 13.52746667-11.2864 26.70506667-15.91253333 39.04-7.65546667-25.30133333-17.43466667-48.74986667-29.2352-70.016-22.144-39.90826667-51.40906667-72.16746667-86.98026667-95.8816-86.95466667-57.96906667-171.072-70.1376-226.32746666-70.1376-40.48213333 0-66.47146667 6.58773333-67.5584 6.86933333l-17.41333334 4.4928-1.66613333 17.9072c-0.1888 2.01386667-4.46506667 50.00533333 6.14186667 110.85333333 6.28053333 36.032 16.51413333 69.26933333 30.416 98.7872 17.7216 37.62666667 41.456 69.26933333 70.544 94.048 41.7792 35.58933333 86.03626667 61.77386667 131.53813333 77.8272 35.93173333 12.67626667 72.7712 19.104 109.4944 19.104h0.00106667c22.99413333 0 42.63573333-2.5632 57.4368-5.30346666v66.99733333h-247.68v303.8944c0 47.0208 38.2528 85.27573333 85.27573333 85.27573333h388.78293333c47.0208 0 85.27466667-38.25493333 85.27466667-85.27573333V561.42897778H538.58133333V419.82791111c34.256 5.53173333 66.6304 8.33706667 96.57386667 8.33706667 98.21866667 0 174.07573333-29.4752 225.46453333-87.60533334 86.29333333-97.61386667 69.92533333-239.21386667 69.18613334-245.19466666z" fill="#76F13F" p-id="15066"></path></svg>