<?xml version="1.0" standalone="no"?><!DOCTYPE svg PUBLIC "-//W3C//DTD SVG 1.1//EN" "http://www.w3.org/Graphics/SVG/1.1/DTD/svg11.dtd"><svg t="1555217254224" class="icon" style="" viewBox="0 0 1024 1024" version="1.1" xmlns="http://www.w3.org/2000/svg" p-id="2380" xmlns:xlink="http://www.w3.org/1999/xlink" width="200" height="200"><defs><style type="text/css"></style></defs><path d="M257.61274812 307.94068854c4.04884125 15.27376313 5.48819906 30.15403219 10.53112969 48.04763344a980.76196219 980.76196219 0 0 0 17.11696969 54.73702313 708.73365844 708.73365844 0 0 0 21.60072469 55.22371312c8.08732781 18.19389937 13.82404969 33.19842938 23.22647531 49.09349813v393.49354968l-248.5222425 62.13056063V349.01934354L257.61274812 307.94068854z m134.61621469 289.94261532c19.44686531 21.16581094 41.59640999 40.25024813 59.99741063 57.49147875a3335.30310187 3335.30310187 0 0 0 49.81835437 45.76951312c17.40691219 15.2323425 30.15403219 29.81231437 45.51063562 41.71031625 8.0355525-6.60654938 20.87586844-15.22198687 30.94101938-23.87884594a506.67472031 506.67472031 0 0 0 30.1747425-27.81378093c11.3595375-11.27669719 17.31371625-27.62738906 32.08007907-41.51356969v321.00789656l-248.52224157-62.13056062V597.88330386z m559.17504375-311.52263063v622.17543281l-248.52224156 62.13056063v-383.13845625c4.04884125-3.99706594 4.89795938-5.92311375 8.5843725-10.2308325 3.66570281-4.27665375 7.54886343-8.46011156 11.55628406-12.42611156 13.44091125-14.54890594 25.84631344-31.99723875 37.21620563-52.21038094a521.04759001 521.04759001 0 0 0 30.7235625-64.62613875 924.15066656 924.15066656 0 0 0 24.1687875-68.63355844c7.04146313-22.90546687 13.24416469-44.25766969 18.60810281-64.14980437l117.66492656-28.89071063z" fill="#009AFF" p-id="2381"></path><path d="M326.12204656 282.82464691c0-3.25149937-0.16568156-6.39944813-0.50740031-9.39207a88.78457063 88.78457063 0 0 1-0.46597875-9.34029375c0-29.61556687 5.71601156-57.28437655 17.22052031-82.97536407a220.06644563 220.06644563 0 0 1 46.73253657-67.69124531c19.6850325-19.45722094 42.62156438-34.73098313 68.88208124-45.93519469 26.21909625-11.19385594 54.44708156-16.81667156 84.61146844-16.81667156 30.1747425 0 58.36130625 5.62281563 84.66324375 16.81667156 26.17767655 11.19385594 49.19704875 26.47797375 68.88208125 45.93519469a222.04426781 222.04426781 0 0 1 46.73253657 67.69124531c11.47344375 25.65992156 17.17909969 53.30802094 17.17909968 82.97536407v11.82551625c0 3.97635563-0.31065281 7.94235655-0.97337812 11.86693782-3.96600094 34.92772969-11.62876969 68.32290656-23.13327938 100.26836905a527.44703813 527.44703813 0 0 1-43.76062406 92.32601251 660.65496 660.65496 0 0 1-61.05363094 85.45023093 988.08301313 988.08301313 0 0 1-73.82146125 78.53302875c-4.57695094 4.59766125-9.47491031 6.91720219-14.75600812 6.91720219-5.23967719 0-10.16870156-2.31954094-14.75600813-6.91720219a840.16050375 840.16050375 0 0 1-74.79483937-79.05078281 648.7466025 648.7466025 0 0 1-61.02256594-86.91029907 542.63796 542.63796 0 0 1-43.71920437-94.28312624 425.3665275 425.3665275 0 0 1-22.13918907-101.29352344zM542.63669469 173.21598316c-13.15096875 0-25.24571812 2.31954094-36.39815344 6.90684751a87.614445 87.614445 0 0 0-29.0460375 19.29153937c-8.18052375 8.21158875-14.75600812 17.95573219-19.64361187 29.14958719s-7.35211594 23.01937219-7.35211594 35.55939093c0 12.52966313 2.46451219 24.365535 7.35211594 35.55939093a93.99318281 93.99318281 0 0 0 19.64361187 29.1392325 87.83190187 87.83190187 0 0 0 29.0460375 19.25011876c11.15243531 4.59766125 23.25753938 6.91720219 36.39815344 6.91720312s25.44246469-2.31954094 36.90555281-6.91720312a86.43396469 86.43396469 0 0 0 29.51201625-19.25011876 94.95620625 94.95620625 0 0 0 19.6850325-29.1392325 87.003495 87.003495 0 0 0 7.35211594-35.55939093 87.82154719 87.82154719 0 0 0-7.35211594-35.55939093c-4.92902438-11.19385594-11.50450875-20.90693344-19.6850325-29.14958719s-18.0385725-14.69387719-29.51201625-19.29153937a98.37338719 98.37338719 0 0 0-36.90555281-6.90684751z" fill="#FF2121" p-id="2382"></path></svg>