<?xml version="1.0" standalone="no"?><!DOCTYPE svg PUBLIC "-//W3C//DTD SVG 1.1//EN" "http://www.w3.org/Graphics/SVG/1.1/DTD/svg11.dtd"><svg t="1555145217885" class="icon" style="" viewBox="0 0 1024 1024" version="1.1" xmlns="http://www.w3.org/2000/svg" p-id="13640" xmlns:xlink="http://www.w3.org/1999/xlink" width="200" height="200"><defs><style type="text/css"></style></defs><path d="M62 512a450 450 0 1 0 900 0A450 450 0 1 0 62 512z" fill="#3cc51f" p-id="13641"></path><path d="M467.627 765.06074074l-3.414-286.72c0-23.893 17.067-40.96 37.547-40.96h3.413c75.094 0 136.534 61.44 136.534 136.533 0 23.894-17.067 40.96-40.96 40.96s-40.96-17.066-40.96-40.96c0-13.653-6.827-27.306-13.654-37.546l3.414 276.48v10.24c0 34.133-40.96 61.44-92.16 61.44-51.2 0-92.16-23.894-95.574-58.027 0-34.133 40.96-61.44 92.16-61.44h13.654z m303.786 13.653c-6.826 6.827-20.48 6.827-27.306 0-6.827-6.826-6.827-20.48 0-27.306 126.293-126.294 126.293-334.507 0-464.214s-334.507-129.706-464.214 0-126.293 334.507 0 464.214c6.827 6.826 6.827 20.48 0 27.306-6.826 6.827-20.48 6.827-27.306 0-143.36-143.36-143.36-378.88 0-522.24s378.88-143.36 522.24 0 143.36 378.88-3.414 522.24z m-81.92-81.92c-17.066 17.067-40.96 17.067-58.026 0s-17.067-40.96 0-58.026c68.266-68.267 68.266-174.08 0-242.347s-174.08-68.267-242.347 0-68.267 174.08 0 242.347c17.067 17.066 17.067 40.96 0 58.026s-40.96 17.067-58.027 0c-98.986-98.986-98.986-259.413 0-358.4s259.414-98.986 358.4 0 98.987 259.414 0 358.4z" fill="#ffffff" p-id="13642"></path></svg>