<?xml version="1.0" standalone="no"?><!DOCTYPE svg PUBLIC "-//W3C//DTD SVG 1.1//EN" "http://www.w3.org/Graphics/SVG/1.1/DTD/svg11.dtd"><svg t="1555145291284" class="icon" style="" viewBox="0 0 1024 1024" version="1.1" xmlns="http://www.w3.org/2000/svg" p-id="15700" xmlns:xlink="http://www.w3.org/1999/xlink" width="200" height="200"><defs><style type="text/css"></style></defs><path d="M679.25333333 249.1911111c9.81333333-1.70666667 19.52 5.01333333 21.33333334 14.72000001l0.21333333 1.38666667 0.32 1.38666667 133.65333333 515.19999999c1.06666667 9.38666667-5.54666667 18.45333333-15.04 20.16l-512.32 91.30666666c-9.49333333 1.70666667-18.88-4.58666667-21.12-13.75999999l-55.46666666-529.28-0.10666667-1.28000001-0.21333333-1.27999999c-1.70666667-9.70666667 5.12-19.41333333 14.93333333-21.12" fill="#e6e6e6" p-id="15701"></path><path d="M857.6 754.79111111l-0.10666667-0.64000001-121.92-461.97333333c-8.74666667-30.82666667-13.76-38.18666667-27.73333333-49.06666666-2.88-2.24-5.97333333-4.26666667-9.17333333-5.86666666-7.68-4.16-16.21333333-6.29333333-24.96-6.29333335h-66.88c-7.25333333-74.66666667-66.45333333-133.01333333-138.24-133.01333332s-130.98666667 58.45333333-138.24 133.01333332h-76.05333334c-29.22666667 0-53.01333333 23.89333333-53.01333333 53.01333335l-36.48 510.72c0 29.12 23.89333333 53.01333333 53.01333333 53.01333333h51.62666667l1.49333333 13.22666667 0.21333334 1.28c3.2 17.6 13.12 32.96 27.94666666 43.2 14.61333333 10.13333333 32.74666667 14.08 50.24 10.87999999l454.29333334-83.19999999c36.37333333-6.72 60.58666667-41.81333333 53.97333333-78.29333334zM468.48 133.45777778c52.26666667 0 95.57333333 42.45333333 102.50666667 97.49333332H366.08c6.82666667-55.04 50.13333333-97.49333333 102.4-97.49333332zM200.32 795.64444445l36.37333333-509.12000001 0.10666667-1.27999999v-1.28c0-9.49333333 8-17.49333333 17.49333333-17.49333335H329.6v93.22666668c0 9.81333333 8 17.81333333 17.81333333 17.81333333s17.81333333-8 17.81333334-17.81333333v-93.22666668h206.93333333v93.22666668c0 9.81333333 8 17.81333333 17.81333333 17.81333333s17.81333333-8 17.81333334-17.81333333v-93.22666668h66.13333333c9.49333333 0 17.49333333 8 17.49333333 17.49333335v1.38666666l0.10666667 1.38666667L730.66666667 795.75111111c-0.53333333 9.06666667-8.32 16.53333333-17.49333334 16.53333334H217.70666667c-9.06666667 0-16.96-7.57333333-17.38666667-16.64z m142.61333333 85.65333333c-8.21333333 1.49333333-16.74666667-0.32-23.68-5.12-6.82666667-4.58666667-11.52-11.73333333-13.12-19.73333333l-0.96-8.64h220.8l-183.04 33.49333333z m454.18666667-83.2l-32 5.86666666c0.53333333-2.98666667 0.85333333-6.08 0.85333333-9.17333333l-26.88-349.86666667 83.62666667 316.90666666c2.77333333 16.96-8.64 33.17333333-25.6 36.26666668z m0 0" p-id="15702"></path></svg>