<?xml version="1.0" standalone="no"?><!DOCTYPE svg PUBLIC "-//W3C//DTD SVG 1.1//EN" "http://www.w3.org/Graphics/SVG/1.1/DTD/svg11.dtd"><svg t="1555145297701" class="icon" style="" viewBox="0 0 1024 1024" version="1.1" xmlns="http://www.w3.org/2000/svg" p-id="15825" xmlns:xlink="http://www.w3.org/1999/xlink" width="200" height="200"><defs><style type="text/css"></style></defs><path d="M68.26666667 512a443.73333333 443.73333333 0 1 0 887.46666666 0 443.73333333 443.73333333 0 1 0-887.46666666 0z" fill="#37BBEF" p-id="15826"></path><path d="M663.66577778 186.14044445c60.52977778 0 118.89777778 8.64711111 174.19377777 24.80355555C756.84977778 123.22133333 640.79644445 68.26666667 512 68.26666667c-245.07733333 0-443.73333333 198.656-443.73333333 443.73333333 0 30.72 3.072 60.64355555 9.10222222 89.65688889 84.87822222-242.00533333 315.27822222-415.51644445 586.29688889-415.51644444z" fill="#3ED6FF" p-id="15827"></path><path d="M648.98844445 89.88444445c118.784 81.57866667 193.64977778 201.04533333 193.64977777 334.05155555 0 245.98755555-256.11377778 445.44-572.07466667 445.44-7.39555555 0-14.90488889-0.11377778-22.18666666-0.34133333C322.10488889 923.53422222 413.24088889 955.73333333 512 955.73333333c245.07733333 0 443.73333333-198.656 443.73333333-443.73333333 0-197.29066667-128.68266667-364.43022222-306.74488888-422.11555555z" fill="#3495C6" p-id="15828"></path><path d="M655.92888889 525.19822222s-16.384-9.78488889-27.19288889-13.08444444c-10.92266667-3.29955555-5.46133333-19.56977778-5.46133333-19.56977778s6.48533333 9.78488889 25.03111111 13.08444445 49.03822222 7.62311111 57.68533333 18.54577777c8.76088889 10.92266667 9.78488889 17.408 14.10844444 21.73155556 4.32355555 4.32355555 7.62311111 15.24622222 7.62311112 15.24622222s-17.97688889-2.84444445-21.73155556-10.92266667c-3.75466667-8.07822222-7.62311111-20.70755555-10.92266666-17.408-3.29955555 3.29955555-1.13777778 15.24622222-13.08444445 15.24622222s-15.24622222-10.92266667-23.89333333-13.08444444-2.16177778-9.78488889-2.16177778-9.78488889z m-48.92444444-226.41777777l30.49244444-5.46133334 15.24622222-16.384-4.32355556-15.24622222 6.48533334-23.89333334-8.76088889-13.08444444s0-25.03111111-9.78488889-29.35466666-6.48533333-31.51644445-6.48533333-31.51644445l1.13777777-5.46133333-10.92266666 9.78488888 6.48533333 28.33066667 9.78488889 28.33066667 1.13777778 49.03822222-22.86933334 13.99466667-17.408 22.86933333 9.7848889-11.94666666z m22.86933333-55.52355556l-6.48533333-8.76088889-7.62311112 1.13777778-2.16177778 14.10844444 7.62311112 1.13777778 8.64711111-7.62311111z m85.90222222 375.46666666s-1.13777778-19.56977778-9.78488889-19.56977777-11.94666667-21.73155555-11.94666666-21.73155556l-17.408-18.54577777s0 27.19288889 1.13777777 31.51644444c1.13777778 4.32355555-11.94666667 10.92266667-15.24622222 8.76088889-3.29955555-2.16177778-15.24622222-20.70755555-15.24622222-20.70755556s4.89244445-10.35377778-2.16177778-9.78488889c-0.68266667 0-1.13777778 0.11377778-1.36533333 0.22755556-1.70666667-0.22755555-4.66488889-0.68266667-9.44355556-1.25155556l-22.528-2.73066666-2.50311111 9.216s-13.08444445 10.92266667-20.70755555 14.10844444c-7.62311111 3.29955555-16.384 34.816-26.1688889 34.816s-23.89333333 1.13777778-23.89333333 1.13777778-17.408 29.35466667-11.94666667 40.27733333c5.46133333 10.92266667 7.62311111 21.73155555 6.48533334 34.816s1.13777778 10.92266667 19.56977778 7.62311111c18.54577778-3.29955555 33.792-28.33066667 54.38577778-23.89333333 20.70755555 4.32355555 27.19288889 25.03111111 27.19288888 25.03111111l17.408-15.24622222s-2.16177778 10.92266667-5.46133333 11.94666666 3.29955555 2.16177778 7.62311111 9.7848889c4.32355555 7.62311111 28.21688889 18.432 58.82311111-10.92266667 30.60622222-29.24088889 19.56977778-54.38577778 19.56977778-54.38577778l-16.384-30.49244445z m-477.86666667-26.0551111c2.16177778-20.70755555-9.78488889-15.24622222-8.76088888-44.6008889 1.13777778-29.35466667 41.41511111-97.96266667 38.11555555-97.96266666-3.29955555 0-21.73155555 14.10844445-28.33066667 13.08444444-6.48533333-1.13777778-34.816-65.30844445-34.816-75.09333333 0-9.78488889-7.62311111-46.76266667-7.62311111-46.76266667s8.76088889 25.03111111 15.24622223 26.16888889 8.76088889 28.33066667 14.10844444 41.41511111 22.86933333 34.816 33.792 33.792c10.92266667-1.13777778 44.60088889-62.00888889 44.60088889-62.00888888l-18.54577778-10.92266667-19.456 11.71911111s-5.46133333-13.08444445-11.94666667-20.70755556c-6.48533333-7.62311111-5.46133333-26.16888889-1.13777778-26.16888888s9.216 12.62933333 31.51644445 27.19288888c22.30044445 14.56355555 42.43911111 0 46.76266667 3.29955556 4.32355555 3.29955555 21.73155555 17.408 22.86933333 26.16888889 1.13777778 8.76088889 22.86933333 68.608 26.16888889 72.93155555 3.29955555 4.32355555 16.384-15.24622222 21.73155556-40.27733333 5.46133333-25.03111111 31.51644445-36.97777778 40.27733333-43.57688889 8.76088889-6.48533333 7.62311111 7.62311111 13.08444444 20.70755556s19.56977778 20.70755555 26.16888889 26.16888888c6.48533333 5.46133333 1.13777778 22.86933333 11.94666667 22.86933334 10.92266667 0 19.56977778-18.54577778 19.56977777-18.54577778l-7.6231111-20.70755556c-7.62311111-20.70755555 3.29955555-22.86933333 13.08444444-27.19288888 9.78488889-4.32355555 27.19288889-20.70755555 39.13955556-39.13955556 11.94666667-18.54577778-9.78488889-35.95377778-16.384-52.224-6.48533333-16.384 7.62311111-15.24622222 15.24622222-16.384s15.24622222 42.43911111 15.24622222 42.43911111l14.10844444-7.62311111s-3.29955555-14.10844445-9.78488888-27.19288889 8.76088889-13.08444445 27.19288888-32.65422222c18.54577778-19.56977778 7.96444445-28.89955555 8.76088889-53.36177778S589.36888889 175.78666667 589.36888889 175.78666667s-5.46133333 8.76088889 1.13777778-21.73155556c6.48533333-30.49244445 51.2-13.08444445 62.00888888-14.10844444 8.53333333-0.91022222 19.22844445-21.95911111 23.32444445-30.94755556-50.85866667-20.82133333-106.60977778-32.31288889-164.97777778-32.31288889-232.56177778 0-422.57066667 182.272-434.74488889 411.87555556 5.34755555 2.84444445 12.288 5.91644445 20.13866667 7.39555555 17.408 3.29955555 9.78488889 30.49244445 10.92266667 44.60088889 1.13777778 14.10844445 4.32355555 29.35466667 10.92266666 43.57688889 6.48533333 14.10844445-2.16177778 22.86933333-5.46133333 32.65422222-3.29955555 9.78488889 4.32355555 25.03111111 10.92266667 25.03111112s-11.94666667 33.792 8.76088888 68.608 51.2-3.29955555 65.30844445-53.36177778c14.22222222-50.28977778 38.11555555-43.69066667 40.27733333-64.39822222zM518.82666667 497.89155555l8.76088888 17.408 18.54577778 8.7608889s6.48533333-26.16888889 17.408-39.13955556c10.92266667-13.08444445-6.48533333-25.03111111-14.10844444-27.19288889L518.82666667 497.89155555z m181.13422222-298.32533333c0.68266667 2.16177778 1.70666667 3.29955555 1.70666666 3.29955556s-0.68266667-1.25155555-1.70666666-3.29955556zM569.23022222 551.936c-5.68888889-1.70666667-14.90488889-4.32355555-28.672-8.192-34.816-9.78488889-26.16888889-6.48533333-38.11555555-14.10844445s-1.13777778-10.92266667 1.13777778-20.70755555c2.16177778-9.78488889-10.92266667-41.41511111-10.92266667-41.41511111l-13.08444445-10.92266667-3.29955555 19.56977778-14.10844445 4.32355555 17.408 41.41511112s29.35466667 25.03111111 47.90044445 33.792c11.03644445 5.12 29.01333333 0.68266667 41.75644444-3.75466667zM254.29333333 668.89955555s17.408-31.51644445 20.70755556-46.76266666c3.29955555-15.24622222-2.16177778-39.13955555-2.16177778-39.13955556s-22.86933333 17.408-18.54577778 19.56977778c4.32355555 2.16177778-6.48533333 11.94666667-8.76088888 29.35466667-2.16177778 17.29422222 8.76088889 36.97777778 8.76088888 36.97777777zM692.45155555 116.05333333c-9.55733333 11.71911111-22.41422222 28.55822222-22.41422222 34.70222222 0 9.78488889 15.24622222 9.78488889 16.384 17.408 0.79644445 5.91644445 9.78488889 24.00711111 13.53955556 31.51644445-0.91022222-2.84444445-1.36533333-7.39555555 1.70666666-12.97066667 5.46133333-9.78488889 6.48533333-32.65422222 1.13777778-42.43911111-2.61688889-4.66488889 0.68266667-13.08444445 4.77866667-20.82133333-5.00622222-2.61688889-10.01244445-5.12-15.13244445-7.39555556z m-113.20888888 432.01422222c3.072-1.25155555 4.89244445-2.16177778 4.89244444-2.16177777s-2.50311111 0.91022222-4.89244444 2.16177777z m-3.86844445 5.34755556c-3.18577778-1.25155555 0.34133333-3.64088889 3.86844445-5.46133333-2.61688889 1.13777778-6.03022222 2.50311111-10.01244445 3.86844444 8.76088889 2.73066667 9.44355555 2.95822222 6.144 1.59288889z" fill="#E8EEEF" p-id="15829"></path></svg>