<?xml version="1.0" standalone="no"?><!DOCTYPE svg PUBLIC "-//W3C//DTD SVG 1.1//EN" "http://www.w3.org/Graphics/SVG/1.1/DTD/svg11.dtd"><svg t="1555145306798" class="icon" style="" viewBox="0 0 1251 1024" version="1.1" xmlns="http://www.w3.org/2000/svg" p-id="15952" xmlns:xlink="http://www.w3.org/1999/xlink" width="244.3359375" height="200"><defs><style type="text/css"></style></defs><path d="M543.45730604 760.95027587a187.27499086 187.27499086 0 1 0 374.54998001-1e-8 187.27499086 187.27499086 0 1 0-374.54998001 0Z" fill="#619E73" p-id="15953"></path><path d="M396.13178164 49.45734114c163.50191481-55.91055276 346.82482203 6.23874182 434.03717341 157.29496552l171.15932263 296.45664119 96.41917919-55.6676387 45.04241826 78.01575611L307.16188484 1008.00711166l-42.11651451-78.01573415 93.49180489-55.66681387L187.37870257 577.86939143c-87.21235141-151.05622525-49.37376571-340.89316544 80.79861995-454.53555074a72.63269116 72.63269116 0 0 1-3.84842423-5.9698215c-19.87487456-34.4242929-7.20942723-79.05405021 28.24519906-99.52378816s80.43785373-9.1234579 100.31272671 25.30083499c1.18208812 2.04743821 2.31961699 4.2519053 3.24580597 6.31774409z" fill="#8CD79F" p-id="15954"></path></svg>