<?xml version="1.0" standalone="no"?><!DOCTYPE svg PUBLIC "-//W3C//DTD SVG 1.1//EN" "http://www.w3.org/Graphics/SVG/1.1/DTD/svg11.dtd"><svg t="1555145329810" class="icon" style="" viewBox="0 0 1254 1024" version="1.1" xmlns="http://www.w3.org/2000/svg" p-id="16580" xmlns:xlink="http://www.w3.org/1999/xlink" width="244.921875" height="200"><defs><style type="text/css"></style></defs><path d="M630.35603846 0.052a509.621721 509.621721 0 0 0-312.579829 106.52994201H176.15228647a42.504977 42.504977 0 0 0-42.34897701 42.38397699 42.504977 42.504977 0 0 0 42.38297701 42.382976h132.373928a42.521977 42.521977 0 0 1 42.39997699 42.382977 42.504977 42.504977 0 0 1-42.34797699 42.382977h-268.52985301a42.382977 42.382977 0 0 0 0 84.766954h101.009944A511.99972 511.99972 0 0 0 118.40931846 511.99972c0 282.744845 229.202875 511.99972 511.99972001 511.99972a509.499721 509.499721 0 0 0 282.18984499-84.78395399H835.95392546a42.504977 42.504977 0 0 1-42.382976-42.382976 42.504977 42.504977 0 0 1 42.382976-42.38397701h171.424907c1.144999 0 2.272999 0 3.469998 0.157a510.038721 510.038721 0 0 0 131.523928-342.571813C1142.30375846 229.253875 913.08388346 0.052 630.35603846 0.052zM-112.35555554 318.49882601a42.347977 42.347977 0 1 0 84.69695401-2e-8 42.347977 42.347977 0 1 0-84.69695401 0z" fill="#71BEFF" p-id="16581"></path><path d="M1091.12078647 939.18048599H835.74592646a42.382977 42.382977 0 0 1-42.417977-42.382976 42.382977 42.382977 0 0 1 42.382977-42.38297699h175.190904A509.969721 509.969721 0 0 0 1142.30375846 511.99972c0-282.745845-229.202875-511.99972-511.99972-511.99972v1023.99944h460.816748a42.382977 42.382977 0 0 0 42.382977-42.417977 42.382977 42.382977 0 0 0-42.382977-42.39997699z" fill="#1B8CFF" p-id="16582"></path><path d="M923.55942693 667.20692363a70.840979 70.840979 0 1 0-70.84227356 70.84227482 70.81897185 70.81897185 0 0 0 70.84097901-70.84227482z m-27.63708333 24.04085729h-82.27692363a8.9866795 8.9866795 0 0 1-8.98667951-8.9866795v-43.27380205a8.9866795 8.9866795 0 0 1 8.98667951-8.9866795h82.27692363a8.9866795 8.9866795 0 0 1 8.98797533 8.9866795v43.27380205a8.9866795 8.9866795 0 0 1-8.98797533 8.9866795z" fill="#FFFFFF" p-id="16583"></path><path d="M946.00411851 302.14862623h-54.39517383v-26.39950474a26.17554961 26.17554961 0 1 0-52.35109925 0v26.39950474H404.0576184v-26.39950474a26.17554961 26.17554961 0 0 0-52.35109923 0v26.39950474h-40.80123394a26.96133434 26.96133434 0 0 0-26.96133433 26.96262758v411.70178126a26.96133434 26.96133434 0 0 0 26.96133433 26.96133435h635.10012783a26.96133434 26.96133434 0 0 0 26.96133435-26.96262889v-411.70178126a26.96133434 26.96133434 0 0 0-26.96133435-26.96133304z m-41.09379958 116.24947335v43.18318308a8.9866795 8.9866795 0 0 1-8.98797533 8.9866808h-82.27692363a8.9866795 8.9866795 0 0 1-8.98667951-8.9866808v-43.18318308a8.9866795 8.9866795 0 0 1 8.98667951-8.9866808h82.27692363a8.9866795 8.9866795 0 0 1 8.98797533 8.9866808z m0 110.2945999v43.18318436a8.9866795 8.9866795 0 0 1-8.98797533 8.98797404h-82.27692363a8.9866795 8.9866795 0 0 1-8.98667951-8.98797404v-43.18318436a8.9866795 8.9866795 0 0 1 8.98667951-8.9866795h82.27692363a8.9866795 8.9866795 0 0 1 8.98797533 8.9866795z m-50.12578924-254.26918518a10.67216704 10.67216704 0 0 1 21.34433537 0v34.8709593a10.67216704 10.67216704 0 1 1-21.34433537 0z m-488.47433202 0a10.67216704 10.67216704 0 0 1 21.34433536 0v34.8709593a10.67216704 10.67216704 0 0 1-21.34433537 0z m92.49988717 407.83758712a8.9866795 8.9866795 0 0 1-8.9866795 8.9866795h-82.30022532a8.9866795 8.9866795 0 0 1-8.98797533-8.9866795v-43.27380205a8.9866795 8.9866795 0 0 1 8.98797533-8.9866795h82.30022532a8.9866795 8.9866795 0 0 1 8.9866795 8.9866795z m0-110.29459989a8.9866795 8.9866795 0 0 1-8.9866795 8.98667949h-82.30022532a8.9866795 8.9866795 0 0 1-8.98797533-8.98667949v-43.27380205a8.9866795 8.9866795 0 0 1 8.98797533-8.9866795h82.30022532a8.9866795 8.9866795 0 0 1 8.9866795 8.9866795z m0-110.2946012a8.9866795 8.9866795 0 0 1-8.9866795 8.9866795h-82.30022532a8.9866795 8.9866795 0 0 1-8.98797533-8.98797404v-43.27250621a8.9866795 8.9866795 0 0 1 8.98797533-8.9866808h82.30022532a8.9866795 8.9866795 0 0 1 8.9866795 8.9866808z m-83.53650937-95.08378427a7.86431612 7.86431612 0 0 1 0-15.72863093h508.89825071a7.86431612 7.86431612 0 0 1 0 15.72863093z m306.57497556 315.67298536a8.9866795 8.9866795 0 0 1-8.98667951 8.9866795h-82.27821944a8.9866795 8.9866795 0 0 1-8.9866795-8.9866795v-43.27380205a8.9866795 8.9866795 0 0 1 8.9866795-8.9866795h82.27821944a8.9866795 8.9866795 0 0 1 8.98667951 8.9866795z m0-110.29459989a8.9866795 8.9866795 0 0 1-8.98667951 8.98667949h-82.27821944a8.9866795 8.9866795 0 0 1-8.9866795-8.98667949v-43.27380205a8.9866795 8.9866795 0 0 1 8.9866795-8.9866795h82.27821944a8.9866795 8.9866795 0 0 1 8.98667951 8.9866795z m0-110.2946012a8.9866795 8.9866795 0 0 1-8.98667951 8.9866795h-82.27821944a8.9866795 8.9866795 0 0 1-8.9866795-8.98797404v-43.27250621a8.9866795 8.9866795 0 0 1 8.9866795-8.9866808h82.27821944a8.9866795 8.9866795 0 0 1 8.98667951 8.9866808z m252.98888683 290.23920618a4.49333975 4.49333975 0 0 1-6.31345925 0l-24.35543013-24.37614272a79.29042641 79.29042641 0 1 1 6.44809126-6.15682014l24.22079812 24.22079683a4.49333975 4.49333975 0 0 1 0 6.31216603z" fill="#FFFFFF" p-id="16584"></path></svg>