<?xml version="1.0" standalone="no"?><!DOCTYPE svg PUBLIC "-//W3C//DTD SVG 1.1//EN" "http://www.w3.org/Graphics/SVG/1.1/DTD/svg11.dtd"><svg t="1555145326854" class="icon" style="" viewBox="0 0 1024 1024" version="1.1" xmlns="http://www.w3.org/2000/svg" p-id="16453" xmlns:xlink="http://www.w3.org/1999/xlink" width="200" height="200"><defs><style type="text/css"></style></defs><path d="M526.06293333 68.33813333h43.1392c85.8848 0 171.75893333-0.13653333 257.57226667 0 71.34186667 0.06506667 115.44213333 44.16533333 115.57333333 115.5072 0.13653333 94.6176 0 189.2352 0 283.8528v16.93013334h-18.50346666c-126.42453333 0-252.65173333-0.20266667-379.08266667 0.4096-14.88106667 0.0704-19.18506667-3.88906667-19.0432-19.04426667 0.61226667-126.36373333 0.34453333-252.7232 0.34453333-379.08693333V68.33813333zM644.3008 249.856v50.92693333h174.76266667c0-14.06293333 0.6176-27.17013333-0.47466667-40.21226666-0.27306667-3.7568-5.3312-10.16853333-8.26346667-10.16853334-55.02293333-0.75413333-110.04586667-0.54613333-166.02453333-0.54613333z" fill="#28CE24" p-id="16454"></path><path d="M684.512 950.34346667l-166.23146667-0.07146667V839.68c0-98.16746667 0.06506667-196.53653333-0.4096-294.70933333 0-7.1008 0.68266667-15.22133333 6.144-20.82453334 5.3248-5.39093333 13.17333333-6.0736 20-6.0736 68.87786667 0.208 136.94186667 0.27306667 204.93546667 0.27306667h201.31626667v308.56533333c-0.20266667 76.05546667-47.44853333 123.36106667-123.49226667 123.36106667-47.44213333 0-94.8192 0.07146667-142.26133333 0.07146667z m-150.66666667-15.70133334h150.66666667c47.37813333 0 94.82026667 0 142.2688-0.07146666 67.31093333 0 107.58826667-40.27733333 107.78986667-107.7248 0.07146667-55.43253333 0.07146667-110.8704 0.07146666-166.2976l-0.07146666-126.63786667-185.68533334 0.07146667c-68.064 0-136.12373333-0.07146667-204.11733333-0.4096-7.43786667 0-9.2192 1.15733333-9.76 1.568-0.48 0.68266667-1.57226667 2.73066667-1.5008 9.62773333 0.48 98.304 0.4096 196.53653333 0.34346667 294.912v94.96213333zM821.38453333 787.79733333H640.816v-54.41066666h180.62933333v54.41066666h-0.0608z m-164.99733333-15.5648h149.36746667v-23.21066666H656.3872v23.21066666z m164.8608-56.59626666H640.544v-54.20373334h180.704v54.20373334z m-165.13386667-15.5584H805.54666667V677.00266667H656.11413333v23.07413333z" fill="#B2B2B2" p-id="16455"></path><path d="M484.62186667 942.4896h-48.05973334c-84.24106667 0-168.41066667 0.07146667-252.65706666-0.07146667-71.34186667 0-115.5072-44.17066667-115.57333334-115.5072-0.0704-94.6112 0-189.16373333 0-283.8528v-16.864h18.56853334c126.29333333 0 252.6528 0.20693333 378.94613333-0.34453333 15.01866667-0.20266667 19.18506667 3.9648 19.11466667 19.0496-0.61226667 126.22186667-0.4096 252.58666667-0.4096 378.94506667 0.0704 5.4016 0.0704 10.7264 0.0704 18.64533333z m-206.0224-184.11733333c8.73813333 15.01866667 15.62986667 27.85813333 23.48373333 40.14613333 2.59413333 4.02453333 7.43786667 8.93973333 11.53386667 9.27786667 15.01866667 1.09226667 30.1088 0.34453333 48.40426666 0.34453333-12.56106667-18.83626667-23.28213333-35.01866667-34.06826666-51.26506667-22.9376-34.34133333-23.00266667-34.26986667 0.27306666-68.8192 10.10346667-15.01866667 20.272-30.10773333 32.08533334-47.7152-15.09013333 0-26.0128 0.75413333-36.79893334-0.20266666-11.33226667-0.8896-18.224 2.5952-23.07413333 13.17333333-5.3248 11.808-12.768 22.528-20.0704 35.296-8.46506667-14.4064-15.5648-27.24053333-23.48373333-39.66506667-2.32106667-3.62133333-6.82666667-7.85386667-10.51306667-8.12053333-14.9472-0.96213333-29.9008-0.4096-47.98826667-0.4096 17.06666667 25.66826667 31.5392 48.59946667 47.24053334 70.72426667 6.48853333 9.07626667 6.28053333 15.36213333-0.13653334 24.29653333-16.45546667 22.9376-31.67573333 46.62933333-49.36 72.7072 15.42826667 0 27.30666667-0.74773333 39.12 0.2784 10.8512 0.81386667 16.9952-3.00906667 21.7088-12.768 5.94133333-11.94986667 13.38026667-23.1456 21.64266667-37.28z" fill="#D8613D" p-id="16456"></path><path d="M68.26666667 484.69333333v-16.9952c0-94.55253333-0.07146667-189.17013333 0-283.8528 0.07146667-71.34186667 44.2368-115.37066667 115.64373333-115.44213333 94.07146667-0.13653333 188.14293333 0 282.28586667 0h18.36586666v18.70506667c0 126.29333333-0.20693333 252.65173333 0.4096 378.94506666 0.07146667 15.3632-4.36906667 19.11466667-19.2512 18.97813334-126.29866667-0.54613333-252.65706667-0.33813333-378.9504-0.33813334H68.26666667z m116.59946666-231.69706666v46.01173333h71.20533334v70.78933333h46.55786666V298.32533333h70.65813334v-46.14826666H301.472v-70.17813334h-46.14826667v70.99733334h-70.45653333z" fill="#DDAE2A" p-id="16457"></path></svg>