<?xml version="1.0" standalone="no"?><!DOCTYPE svg PUBLIC "-//W3C//DTD SVG 1.1//EN" "http://www.w3.org/Graphics/SVG/1.1/DTD/svg11.dtd"><svg t="1555145269673" class="icon" style="" viewBox="0 0 1024 1024" version="1.1" xmlns="http://www.w3.org/2000/svg" p-id="14809" xmlns:xlink="http://www.w3.org/1999/xlink" width="200" height="200"><defs><style type="text/css"></style></defs><path d="M651.21875 62c-18.984375 0-37.265625 7.734375-50.625 21.09375L111.21875 570.359375c-13.359375 13.359375-21.09375 31.640625-21.09375 51.328125s7.734375 37.265625 21.09375 51.328125L380.515625 940.90625c13.359375 13.359375 31.640625 21.09375 50.625 21.09375s37.265625-7.734375 50.625-21.09375L912.78125 512c13.359375-13.359375 21.09375-32.34375 21.09375-51.328125V354.5c0-18.984375-7.03125-36.5625-19.6875-49.921875l-210.9375-220.78125C689.890625 70.4375 670.90625 62 651.21875 62z" fill="#EFEFEF" p-id="14810"></path><path d="M710 554L460.25 807.5c-15.75 15.75-40.5 15.75-56.25 0L254 654.5c-15.75-15.75-15.75-41.25 0-57l249.75-253.5c15.75-15.75 40.5-15.75 56.25 0l150 153c15.75 15.75 15.75 41.25 0 57z" fill="#EFC75E" p-id="14811"></path><path d="M670.90625 227.9375c4.21875-4.921875 11.25-2.8125 16.171875 2.109375 6.328125 6.328125 7.03125 13.359375 11.25 17.578125 4.21875 4.21875 11.25 3.515625 15.46875-0.703125 8.4375-8.4375-4.21875-26.015625-10.546875-32.34375-14.765625-14.765625-36.5625-17.578125-51.328125-2.109375-25.3125 25.3125 18.984375 54.140625 5.625 66.796875-5.625 5.625-13.359375 5.625-20.390625-1.40625s-9.140625-17.578125-14.0625-22.5c-4.21875-4.21875-10.546875-3.515625-14.765625 0.703125-9.84375 10.546875 5.625 30.234375 14.0625 38.671875 14.765625 14.765625 37.265625 18.28125 52.734375 2.8125 28.125-28.828125-14.765625-58.359375-4.21875-69.609375z m80.15625 36.5625c-4.921875-4.921875-11.25-4.921875-16.875 0l-61.875 61.875c-5.625 5.625-4.921875 11.953125 0 16.875s11.25 4.921875 16.875 0l61.875-61.875c5.625-5.625 4.921875-11.953125 0-16.875zM847.390625 360.828125c-5.625-5.625-13.359375-5.625-18.984375-2.8125l-55.546875 30.234375 30.234375-56.25c2.8125-4.921875 2.109375-13.359375-2.8125-18.984375-5.625-5.625-14.765625-5.625-18.984375-2.109375l-70.3125 50.625c-0.703125 0.703125-1.40625 1.40625-2.109375 1.40625-4.921875 4.921875-4.21875 11.25 0 15.46875 5.625 5.625 9.84375 4.921875 16.171875 0.703125l50.625-37.96875-32.34375 59.0625c-2.109375 3.515625-3.515625 9.140625 2.109375 14.765625s11.25 4.21875 14.765625 2.109375l58.359375-32.34375-37.96875 50.625c-4.21875 5.625-4.921875 10.546875 0.703125 16.171875 4.21875 4.21875 10.546875 4.921875 15.46875 0 0.703125-0.703125 1.40625-1.40625 1.40625-2.109375l50.625-71.015625c4.21875-2.8125 4.21875-11.953125-1.40625-17.578125z" fill="#cdcdcd" p-id="14812"></path><path d="M710 497L669.5 455.75l-9.75-9.75-100.5-102c-7.5-8.25-18-12-28.5-12s-20.25 3.75-28.5 12l-28.5 28.5-20.25 20.25-60.75 61.5-3.75 3.75-76.5 79.5-20.25 20.25-39 39c-15.75 15.75-15.75 41.25 0 57l39.75 40.5 10.5 10.5 51 51.75 20.25 20.25 29.25 30c7.5 8.25 18 12 28.5 12s20.25-3.75 28.5-12l38.25-39 20.25-20.25 190.5-193.5c15.75-15.75 15.75-41.25 0-57zM470.75 409.25l42 42.75-60.75 62.25-42-42.75 60.75-62.25z m-81.75 82.5l42 42.75-60.75 62.25-42-42.75 60.75-62.25zM269.75 613.25l38.25-39 42 42.75-51 51.75-30-30c-6-7.5-6-18.75 0.75-25.5z m50.25 76.5L553.25 452l-10.5-10.5-51.75-53.25 28.5-29.25c3-3 7.5-5.25 12-5.25 4.5 0 9 1.5 12 5.25l100.5 102.75-273.75 279-50.25-51z m283.5-144.75l42 42.75-60.75 61.5-42-42.75 60.75-61.5zM444.5 791.75c-3 3-7.5 5.25-12 5.25-4.5 0-9-1.5-12-5.25l-30-30 51-51.75 42 42.75-39 39z m17.25-102.75l60.75-62.25L564.5 669.5l-60.75 61.5-42-42z m232.5-150.75L665.75 566.75l-42-42.75 40.5-41.25 29.25 30c7.5 6.75 7.5 18.75 0.75 25.5z" fill="#D7B354" p-id="14813"></path></svg>