<?xml version="1.0" standalone="no"?><!DOCTYPE svg PUBLIC "-//W3C//DTD SVG 1.1//EN" "http://www.w3.org/Graphics/SVG/1.1/DTD/svg11.dtd"><svg t="1555145284976" class="icon" style="" viewBox="0 0 1024 1024" version="1.1" xmlns="http://www.w3.org/2000/svg" p-id="15449" xmlns:xlink="http://www.w3.org/1999/xlink" width="200" height="200"><defs><style type="text/css"></style></defs><path d="M932.0665625 819.2440625c0 61.875-50.625 112.5-112.5 112.5H204.69875c-61.875 0-112.5-50.625-112.5-112.5V204.37625c0-61.875 50.625-112.5 112.5-112.5h614.8678125c61.875 0 112.5 50.625 112.5 112.5v614.8678125z" fill="#27A244" p-id="15450"></path><path d="M562.7909375 454.7984375c8.5640625 4.2121875 17.37375 7.8478125 25.46625 12.6721875 39.79875 23.56125 64.4615625 58.1165625 73.2534375 103.6134375 1.8703125 9.7884375 2.551875 19.8909375 2.5865625 29.8359375 0.226875 62.6090625 0.105 125.2171875 0.105 187.82625v4.2478125c-101.46375 17.041875-202.5609375 17.0071875-303.7978125 0.0346875-0.0703125-1.1709375-0.1575-1.9228125-0.1575-2.709375 0-64.6884375-0.384375-129.36 0.174375-194.06625 0.5240625-61.891875 39.0646875-116.5303125 96.78-139.025625 1.520625-0.5765625 3.04125-1.205625 5.15625-2.0803125-32.248125-15.2765625-54.778125-38.8378125-66.76875-71.925-9.403125-25.9209375-9.665625-52.27875-1.573125-78.5315625 15.8353125-51.4575 63.78-86.536875 118.0509375-86.8340625 53.9221875-0.2971875 102.915 35.656875 118.453125 87.2540625 9.01875 29.9409375 7.37625 59.4103125-5.645625 87.9009375-12.9496875 28.35-34.081875 48.7471875-62.083125 61.786875zM692.920625 744.10625v-5.2959375c0-45.549375-0.0178125-91.134375 0-136.6490625 0.0178125-25.67625-4.456875-50.42625-14.6296875-74.0578125-0.3675-0.8390625-0.6815625-1.695-1.0659375-2.551875-3.898125-8.476875-3.9853125-8.565 2.9709375-14.559375 7.813125-6.7640625 16.6575-12.0075 26.0784375-16.185 2.4815625-1.08375 5.0165625-2.0446875 8.355-3.40875-22.5646875-10.7840625-38.593125-26.9175-47.506875-49.5346875-8.949375-22.6696875-8.6165625-45.5146875 0.6121875-68.026875 15.084375-36.7575 53.0128125-58.9734375 93.091875-54.9178125 38.435625 3.915 70.8590625 33.3140625 78.6196875 71.8546875 8.023125 39.74625-11.08125 81.20625-51.8596875 100.485 1.6434375 0.71625 2.7965625 1.258125 4.0021875 1.8 40.0434375 17.32125 63.500625 47.3671875 69.320625 90.766875 0.6290625 4.666875 0.751875 9.350625 0.76875 14.0353125 0.0525 45.1828125 0.0346875 90.33 0.0346875 135.495v4.0546875c-55.9678125 9.474375-111.8990625 11.81625-168.7921875 6.695625zM236.673125 491.4509375c-49.779375-23.45625-60.6684375-75.9796875-49.0978125-110.5003125 12.8821875-38.4703125 47.979375-62.90625 86.641875-62.469375 43.7840625 0.489375 77.08125 30.500625 86.641875 67.573125 10.4521875 40.4109375-7.970625 85.348125-50.7234375 105.309375 1.7653125 0.7865625 3.09375 1.4334375 4.4746875 1.9753125 12.585 4.981875 23.8059375 12.1303125 33.8559375 21.2015625 2.01 1.8178125 2.72625 3.1640625 1.3809375 5.855625-12.7246875 25.6059375-18.2653125 52.8909375-18.2475 81.41625 0.0346875 45.6721875 0 91.3790625 0 137.0503125v5.2265625c-56.77125 5.15625-112.8075 2.7965625-168.879375-6.6946875v-4.0378125c0-45.3225-0.4546875-90.6271875 0.1228125-135.879375 0.6290625-47.3671875 22.9321875-81.485625 65.405625-102.425625 2.6390625-1.3284375 5.4178125-2.325 8.424375-3.6009375z" fill="#FFFFFF" p-id="15451"></path></svg>