<?xml version="1.0" standalone="no"?><!DOCTYPE svg PUBLIC "-//W3C//DTD SVG 1.1//EN" "http://www.w3.org/Graphics/SVG/1.1/DTD/svg11.dtd"><svg t="1555145279014" class="icon" style="" viewBox="0 0 1024 1024" version="1.1" xmlns="http://www.w3.org/2000/svg" p-id="15189" xmlns:xlink="http://www.w3.org/1999/xlink" width="200" height="200"><defs><style type="text/css"></style></defs><path d="M321.64332531 258.41920885c51.00092429 0 92.46239605-41.19738595 92.46239606-92.33035315 0-50.99962975-41.19738595-92.46239605-92.33035316-92.46239605h-0.1320429c-50.99962975 0-92.33035315 41.32942885-92.33035314 92.33035315 0 51.13167265 41.33072339 92.46239605 92.33035314 92.46239605z m373.42768799 76.56676061c1.98711625-17.61866587-10.73042773-33.3822584-28.34779908-35.36937464-0.53076069 0-0.92818395-0.1320429-1.45765009-0.13204291l-245.33053693-15.76359253-40.5358769-0.79484651c-1.1909752 0-2.25249659 0.52946615-2.9127111 1.32431264l-47.95487573 59.74294125c-3.04604855 4.10627539-8.74201695 4.9011219-12.8495869 1.98711625a7.09536427 7.09536427 0 0 1-1.98711625-1.98711625l-48.35100444-59.74294125c-0.66150907-0.92688941-1.7217359-1.4576501-2.91271111-1.45765008h-28.3490936c-43.18450221 0-78.1564536 34.97195141-78.15645362 78.1564536 0 2.91400565 0.13333744 5.96134875 0.53076069 8.8753544l22.78387358 171.01627291c2.78196275 25.03637017 19.47244468 46.36388819 43.18579675 55.10719968l38.28208576 282.28831005c1.85507333 15.23412638 14.83540859 26.62606317 30.07082951 26.62606318h60.53778773c15.36616928 0 28.34779907-11.5239797 30.06953498-26.89014898l17.88404622-95.37769625 42.91912186-401.24472636c0.26538035-1.98711625 1.85507333-3.57680925 3.84089506-3.71014668l217.38016109-13.90851919c16.02897289-0.92688941 29.40802592-12.84958688 31.66052252-28.74522233z" fill="#1296DB" p-id="15190"></path><path d="M746.60140373 547.72909449c1.0589323-3.04734309 1.85377881-6.22672909 1.85377881-9.53815799v-7.4177043c0-14.17519408-10.72913319-25.69917377-24.50560947-27.28886677 27.02219188-14.96874604 45.03828101-37.35519636 45.03828099-57.22635883 0-8.8753544-3.70885215-16.02767835-10.8611761-20.53137699l-2.64991983-1.7217359H563.39705299l-2.64862529 1.7217359c-7.02157558 4.50369865-10.86247063 11.65602259-10.86247063 20.53137699 0 19.87116247 18.01608912 42.2576128 45.03957554 57.22635883-13.77777083 1.58969299-24.50690402 13.11367269-24.50690402 27.28886677v7.4177043c0 3.44347181 0.66150907 6.62415234 1.85377879 9.53815799-73.12199427 38.54876065-121.47299872 121.60504162-121.47299871 198.03846478 0 99.35192873 76.03729445 156.31290722 208.63684962 156.31290723s208.63814416-56.95968395 208.63814416-156.31161269c0-76.43471771-48.35100445-159.49099867-121.47299872-198.03975932z m-143.46332034-38.68080356H711.09998617c13.11367269 0 23.84410043 8.74331149 23.84410042 19.60578213s-10.73042773 19.60448758-23.84539495 19.60448757h-107.96060825c-13.11367269 0-23.84539497-8.74201695-23.84539495-19.60448757s10.73172227-19.60578213 23.84539495-19.60578213z m150.48360139 204.39853131v28.21575617H693.4813203l-7.68308465 9.8022438v8.74331149h67.95549203v27.15552932h-67.95549203v38.01799996h-60.27370192V787.36366302h-69.41314212v-27.15552932h69.41314212v-8.74331149l-7.68308464-9.8022438h-60.14036448l-1.589693-28.21575617h49.41123129l-49.41123129-80.27561276h63.31975047l40.13845365 83.58704167 41.72685211-83.58833621h61.73005749l-49.40993676 80.40895021h40.00511621z" fill="#1296DB" p-id="15191"></path></svg>