<?xml version="1.0" standalone="no"?><!DOCTYPE svg PUBLIC "-//W3C//DTD SVG 1.1//EN" "http://www.w3.org/Graphics/SVG/1.1/DTD/svg11.dtd"><svg t="1555145288302" class="icon" style="" viewBox="0 0 1024 1024" version="1.1" xmlns="http://www.w3.org/2000/svg" p-id="15574" xmlns:xlink="http://www.w3.org/1999/xlink" width="200" height="200"><defs><style type="text/css"></style></defs><path d="M645.46999122 748.52338027c-19.58903877 0-32.63462842 16.31687432-32.63462843 32.63374952 0 19.58903877 16.31687432 32.63374951 32.63374951 32.63374951s32.63374951-13.07635136 32.63374864-32.63374951c0-19.58815987-16.31687432-32.63374951-32.63374864-32.63374952z" fill="#1296db" p-id="15575"></path><path d="M751.20140498 677.00950332c4.54394003 52.48821709-47.70433652 69.50294209-47.70433652 69.50294209 24.50211855 34.64556328 20.00212383 67.27931279 2.89335586 102.98659306l92.29031719-1.22870917v59.40871611c0 72.42793857 101.8440167 72.42793857 101.84401581 0v-59.40871611H961.99890136V469.61424863l-23.34108514-274.86001582c-9.86395254-49.60365029-54.01751221-69.38956406-101.6146213-89.22996914C790.13514658 85.97126006 677.7346001 62.6301749 594.7000332 62c-82.9791958 0.6301749-195.43423447 23.97126006-242.34228193 43.5822706-47.59623105 19.84040508-91.75506416 39.62719776-101.67262998 89.23084893l-20.97507217 248.16502881c17.61326016-14.34988477 40.70737177-26.29684248 69.75430928-34.9153875L319.95866973 261.15639717c3.7265581-24.25954043 11.98299287-40.13959922 43.41176279-40.13959922h462.6082248c31.3690043 0 39.62631885 15.88445333 43.41088477 40.13959922l27.81031729 199.39018622c2.52421523 19.09860908-2.9838832 38.0785667-29.35806944 38.07856758H615.10821172c19.39919502 33.75435323 22.13962119 41.12133662 34.85210537 69.53018819 11.42576719 36.84106846 45.78744375 44.34252363 45.78744463 44.34252363s51.82200703 22.57204307 55.45364326 64.51164053z m-5.45448603-501.00671249H443.59513964c-29.82125302 0-29.82125302-44.73012129 0-44.7301213h302.15177931c29.76324521 0 29.76324521 44.73012129 0 44.73012129z m164.18212383 520.47006766c0 11.41170469-9.28739092 20.70349013-20.64548233 20.70349015h-83.61024961a20.68239638 20.68239638 0 0 1-20.64548232-20.70436905v-35.37857022c0-11.41170469 9.23377763-20.70436904 20.64548232-20.70436904h83.61024961a20.68239638 20.68239638 0 0 1 20.64548233 20.70436904v35.37857022zM288.98868799 901.34741269v6.33075382c0 72.42793857 101.78952451 72.42793857 101.78952363 0v-6.33075381H288.98868799z" fill="#1296db" p-id="15576"></path><path d="M644.85739356 637.24783291h-8.78026202c-2.93290664-8.78026289-2.93290664-7.91542002-5.84471953-16.694804-2.96191055-11.74041563-32.23384717-76.15361777-55.66106513-105.44840596-32.23296826-38.07417217-93.7343584-64.06251943-190.38052881-64.06251943-99.57995683 0-161.082225 25.98746836-190.3814086 64.06251943-26.38824873 29.29918271-52.75364677 93.70799122-55.66106514 105.44840596-2.93378555 8.77938398-5.87196562 10.82635401-5.87196562 16.694804h-8.78026201C73.71404844 637.24783291 62 673.27415615 62 696.70137324c0 8.80663008 8.78026289 17.58689297 17.58601406 20.49343243l48.60433477 5.84471953c-8.77938398 43.9478956-25.58229258 96.67429628-25.58229258 146.4616371v61.50139014c0 11.71404844 8.77938398 30.59117402 20.49255263 30.59117402h47.71839903c11.71316953 0 20.49255352-18.87712558 20.49255264-30.59117402v-23.45358428h394.98262383v20.49255264c0 11.71404844 8.78026289 33.95738057 20.49343154 33.95738056h40.17563525c11.71316953 0 20.49343242-22.24333213 20.49343154-33.95738056V866.54101045c0-49.7873417-16.80378838-102.51374238-25.58317148-146.46075908l46.93529356-5.84559844c8.77938398 0 17.58601406-8.78026289 17.58601406-20.49343155-0.03164063-20.49255352-11.74920469-56.49250957-61.5374253-56.49250956zM182.12700166 829.75794981c-15.05212998 0-30.13150606-12.06473115-30.13150606-30.10513975 0-15.05300888 12.03748506-30.13238496 30.13150606-30.13238496 15.05300888 0 30.13238496 12.06473115 30.13238496 30.13238496 0 18.04040771-12.06473115 30.10513886-30.13238496 30.10513974zM161.57995684 690.40138115c20.49343242-96.67341739 49.7882206-134.31516768 61.50226816-146.00197002 17.58513516-20.49255352 58.56672568-41.01323115 161.08134697-41.01323115s143.52697354 20.49343242 161.10859219 41.01323115c11.71404844 11.71316953 41.01323115 49.36019326 61.50138926 146.00197002-43.9470167 17.58689297-120.09975557 54.09925049-222.61437598 54.09925049S205.50060635 707.96102803 161.57995684 690.40138115z m424.22379785 138.54621797c-14.64695508 0-29.29918271-11.71316953-29.29918272-29.29918359 0-14.64783398 11.71316953-29.30006162 29.29918272-29.30006162 14.64783398 0 29.29918271 11.71404844 29.29918359 29.30006162 0 17.55876797-14.65134961 29.29918271-29.29918359 29.29918359z" fill="#e0620d" p-id="15577"></path></svg>